<?xml version="1.0" encoding="UTF-8"?>
<svg version="1.1" xmlns="http://www.w3.org/2000/svg" width="512" height="512">
<path d="M0 0 C5.50120357 3.16713221 10.08146563 7.17713764 13.5 12.5625 C13.87012371 14.22138436 14.20841774 15.88802436 14.5 17.5625 C15.21745832 17.55881283 15.93491665 17.55512566 16.67411613 17.55132675 C34.16078145 17.46284942 51.64738964 17.3967291 69.13422966 17.35525131 C77.59087049 17.33465793 86.04736156 17.30659932 94.50390625 17.26074219 C101.87776135 17.22077532 109.25150796 17.19504376 116.62546837 17.18614602 C120.52714039 17.18094786 124.4285021 17.16879837 128.33007431 17.13957977 C132.00893733 17.1122545 135.68736479 17.10408912 139.36631966 17.11006927 C141.34685472 17.10845903 143.3273433 17.08702633 145.30775452 17.06481934 C153.32596497 17.10155614 161.15532845 17.71041193 167.40789604 23.25408554 C172.97839735 29.15712081 174.95649985 35.52916017 174.87752342 43.5230093 C174.88188374 44.29858784 174.88624407 45.07416638 174.89073652 45.8732473 C174.90167666 48.46966781 174.89127665 51.06555549 174.88095093 53.66197205 C174.88440798 55.54322362 174.88917287 57.42447317 174.89513266 59.30571848 C174.9076658 64.47363088 174.90146169 69.64137726 174.89217401 74.80929029 C174.88539331 80.3833443 174.89585992 85.95736953 174.90411377 91.53141785 C174.917464 102.45062445 174.91456753 113.36976923 174.90587585 124.28897827 C174.89910445 133.16269989 174.89818023 142.03640418 174.9014473 150.91012764 C174.901907 152.17243415 174.90236669 153.43474067 174.90284032 154.73529889 C174.90379949 157.29955431 174.90477213 159.86380972 174.9057581 162.42806513 C174.91407184 185.79598323 174.90544552 209.16386166 174.88973031 232.53177207 C174.87549522 253.86096182 174.87676592 275.19009783 174.89111328 296.51928711 C174.90718005 320.48468575 174.91349014 344.4500508 174.90427649 368.41545683 C174.90332083 370.97065675 174.90237772 373.52585667 174.9014473 376.08105659 C174.90098447 377.33830027 174.90052164 378.59554394 174.90004479 379.8908859 C174.89745358 388.75435645 174.90182877 397.61780796 174.90888596 406.48127556 C174.91729674 417.28237673 174.91502971 428.08341249 174.89904372 438.88450616 C174.89115514 444.39633277 174.88807949 449.90805028 174.89799118 455.4198761 C174.90692638 460.46496152 174.90202445 465.50983665 174.88605852 470.55490298 C174.88270574 472.38052848 174.88441594 474.20617173 174.89168589 476.03178584 C174.90081086 478.51349287 174.89144933 480.99448001 174.87752342 483.47614956 C174.88454692 484.18471404 174.89157042 484.89327852 174.89880675 485.62331465 C174.82865906 491.87938208 173.10775882 496.90351426 169.875 502.25 C163.37291139 508.58098102 156.86686447 510.30468639 147.99487305 510.19360352 C146.48098244 510.20433647 146.48098244 510.20433647 144.93650818 510.21528625 C141.62777327 510.23208378 138.32040982 510.21282922 135.01171875 510.19140625 C132.70245756 510.19223544 130.39319644 510.19469672 128.0839386 510.19871521 C123.2581697 510.20156666 118.43286665 510.18692933 113.60717773 510.15942383 C107.41851097 510.12524695 101.23067161 510.13139751 95.04196453 510.1500864 C90.27990296 510.16064396 85.51803457 510.15173139 80.75599098 510.13670158 C78.47340277 510.13151664 76.19079442 510.13200534 73.90820885 510.13824654 C70.72441373 510.14368729 67.54181331 510.12336263 64.3581543 510.09594727 C63.414198 510.10247314 62.4702417 510.10899902 61.49768066 510.11572266 C55.15556011 510.02270356 55.15556011 510.02270356 51.91511536 507.74790955 C49.82622309 504.52196398 49.96357901 502.31744695 50.5 498.5625 C52.71863029 495.65532927 54.01944929 494.72268357 57.5 493.5625 C58.87048743 493.46327661 60.24516585 493.41647191 61.6191864 493.40428162 C62.87487427 493.38959839 62.87487427 493.38959839 64.15592957 493.37461853 C65.07086685 493.36886307 65.98580414 493.3631076 66.9284668 493.35717773 C67.89450836 493.34727814 68.86054993 493.33737854 69.85586548 493.32717896 C73.05362485 493.2955547 76.25139908 493.27080278 79.44921875 493.24609375 C81.66453948 493.22552503 83.87985628 493.20452858 86.09516907 493.18312073 C91.92962461 493.12789163 97.76411563 493.078486 103.59863281 493.03027344 C109.55081341 492.98006457 115.50294242 492.92437529 121.45507812 492.86914062 C133.13667469 492.76154878 144.81831603 492.66010604 156.5 492.5625 C157.67855859 489.02682422 157.64185867 485.83947683 157.63422108 482.16109562 C157.63657331 481.39737594 157.63892554 480.63365626 157.64134905 479.84679356 C157.64804912 477.26683124 157.64758052 474.68691916 157.64717102 472.10694885 C157.650469 470.24692471 157.65419442 468.38690128 157.6583125 466.52687877 C157.66834776 461.39926841 157.67205173 456.27166975 157.67470181 451.14405096 C157.67860022 445.62045312 157.68817871 440.0968646 157.69691467 434.57327271 C157.71668979 421.22771009 157.72674556 407.88214669 157.73564246 394.53657308 C157.7400227 388.25756064 157.7453901 381.97854905 157.75063133 375.69953728 C157.76764287 354.83771354 157.78216393 333.97588996 157.78938007 313.1140604 C157.78985483 311.7647866 157.79033072 310.4155128 157.79080774 309.066239 C157.79104411 308.39711135 157.79128049 307.72798371 157.79152403 307.03857947 C157.79272524 303.64835961 157.79394069 300.25813977 157.79516602 296.86791992 C157.79540617 296.19511756 157.79564632 295.5223152 157.79589374 294.82912489 C157.80379114 273.00279111 157.82723285 251.1765116 157.85972196 229.35020152 C157.89399458 206.2837041 157.91372757 183.21723209 157.91702431 160.15070575 C157.91919344 147.5727979 157.92800107 134.99496983 157.95348549 122.41708565 C157.97512933 111.7098272 157.98327408 101.00266792 157.97351871 90.29539008 C157.96895593 84.82860183 157.97097455 79.36201846 157.99028015 73.89525795 C158.00778368 68.89582476 158.00701925 63.89674786 157.99138286 58.89731156 C157.9889872 57.08374424 157.99343055 55.27015307 158.00521151 53.45662243 C158.02018478 51.00055673 158.01076058 48.54577749 157.99498463 46.08974552 C158.01031794 45.02145423 158.01031794 45.02145423 158.02596101 43.93158129 C157.97837059 40.5615745 157.70721661 38.83310883 155.63257307 36.1237852 C152.88400803 34.11152406 151.24654717 34.05602969 147.855896 34.04351807 C146.70607239 34.02960526 145.55624878 34.01569244 144.37158203 34.00135803 C142.48560303 34.00890358 142.48560303 34.00890358 140.56152344 34.01660156 C139.22103679 34.00786533 137.88056057 33.99737936 136.5401001 33.98527527 C132.90400641 33.95740005 129.26825271 33.9540109 125.63206768 33.95499516 C121.83098918 33.95186732 118.03006412 33.92625187 114.22906494 33.90301514 C107.03267564 33.86244153 99.83637698 33.84211128 92.63989091 33.82904124 C84.44640233 33.81317576 76.2530681 33.7747621 68.05966902 33.73444796 C51.20649205 33.65203044 34.35333984 33.59794997 17.5 33.5625 C17.5 36.8625 17.5 40.1625 17.5 43.5625 C18.75490234 43.5310791 18.75490234 43.5310791 20.03515625 43.49902344 C23.17362309 43.43038034 26.31170416 43.38047437 29.45068359 43.34277344 C31.46347627 43.31303955 33.47592134 43.26218271 35.48828125 43.2109375 C43.59565546 43.12945635 49.9224131 43.21081815 56.078125 49.06274414 C59.61398748 53.5693903 59.76282206 57.79454759 59.625 63.35546875 C59.61597656 64.04974976 59.60695313 64.74403076 59.59765625 65.45935059 C59.57424188 67.1605507 59.53837582 68.86157161 59.5 70.5625 C60.24422714 70.55583817 60.98845428 70.54917633 61.75523376 70.54231262 C68.80143317 70.4819647 75.84754163 70.43640604 82.89392757 70.40706348 C86.51574248 70.39147052 90.13734214 70.37035047 93.7590332 70.33618164 C97.2603775 70.30335851 100.761516 70.2855992 104.2630024 70.27786827 C106.23537617 70.26970495 108.20766826 70.24632289 110.17991638 70.22261047 C118.42452338 70.22107992 125.28494619 70.84613199 132.3125 75.375 C139.93169247 82.99419247 140.72398988 90.43510622 140.77214891 100.71556604 C140.7685163 102.08400864 140.76469196 103.45245074 140.76069641 104.82089233 C140.76371871 106.2848256 140.76760858 107.74875728 140.77228898 109.21268618 C140.78256766 113.22708121 140.78038749 117.24138692 140.77610838 121.25578928 C140.77364093 125.58854033 140.78265558 129.92126989 140.79014587 134.25401306 C140.80289437 142.73912249 140.80468637 151.22420028 140.80234561 159.70931767 C140.80056245 166.60648417 140.80231205 173.50364107 140.80657005 180.40080643 C140.80716524 181.38251273 140.80776043 182.36421904 140.80837366 183.37567402 C140.80958541 185.3700267 140.81079954 187.36437938 140.81201603 189.35873206 C140.82289216 208.0613543 140.82072874 226.76395852 140.81463119 245.46658178 C140.80946203 262.57374167 140.8207173 279.68084461 140.83972941 296.78799324 C140.85910453 314.35656649 140.86736437 331.9251128 140.86360615 349.49369681 C140.86169361 359.35592817 140.86418689 369.21811106 140.87832069 379.08033371 C140.89023131 387.47620017 140.89164296 395.87198833 140.87953053 404.26785587 C140.8736396 408.55048391 140.87254833 412.83296871 140.88453293 417.11558723 C140.89538397 421.03876723 140.89229772 424.96168424 140.87827124 428.88485189 C140.87562217 430.30134779 140.87799751 431.71786424 140.88600711 433.13433997 C140.93476735 442.40347122 140.50186674 450.01681609 135.3125 457.875 C128.49842386 464.38622831 121.32523472 465.71294604 112.16287231 465.70294189 C111.31430912 465.70591302 110.46574592 465.70888414 109.59146869 465.7119453 C106.7434236 465.72062827 103.89542056 465.7221402 101.04736328 465.72363281 C99.00727244 465.7282612 96.96718247 465.73328589 94.92709351 465.73867798 C89.38165014 465.75180042 83.83621889 465.75824644 78.29076242 465.76268864 C74.82726154 465.76561912 71.36376396 465.76972385 67.90026474 465.77419281 C57.06670526 465.78786625 46.23315335 465.79753412 35.39958584 465.8013947 C22.88794618 465.80587766 10.37641564 465.82343728 -2.13519084 465.8523953 C-11.80322808 465.87399645 -21.47123458 465.88409812 -31.1392957 465.88543582 C-36.91528271 465.88648481 -42.69116712 465.89241283 -48.46712875 465.91025543 C-53.89914958 465.92670937 -59.33099036 465.92890461 -64.76302719 465.92011642 C-66.75686118 465.91934466 -68.75070475 465.92370703 -70.74451447 465.93357468 C-73.46619336 465.94625499 -76.18723079 465.94043872 -78.90890503 465.92999268 C-79.69801675 465.93804908 -80.48712847 465.94610548 -81.30015266 465.95440602 C-87.87281504 465.8953988 -92.39426091 464.04390348 -97.01739502 459.41932678 C-97.64540009 458.79833603 -98.27340515 458.17734528 -98.92044067 457.53753662 C-99.58768158 456.86265198 -100.25492249 456.18776733 -100.94238281 455.49243164 C-101.66181061 454.77665451 -102.3812384 454.06087738 -103.12246704 453.32341003 C-105.49013791 450.963822 -107.84681107 448.59358138 -110.203125 446.22265625 C-111.84834544 444.57691702 -113.49408465 442.93169624 -115.14031982 441.28697205 C-118.58462184 437.84258041 -122.02370504 434.39308725 -125.45898438 430.93969727 C-129.86453983 426.51142856 -134.28111048 422.09434597 -138.70140457 417.68079472 C-142.09893802 414.28660056 -145.49146816 410.88744214 -148.88240814 407.48666191 C-150.50939234 405.85582678 -152.13772931 404.22634009 -153.76743317 402.59822273 C-156.04166424 400.32436204 -158.30929381 398.0441201 -160.57519531 395.76196289 C-161.25053314 395.08910248 -161.92587097 394.41624207 -162.62167358 393.72299194 C-163.54676224 392.78727608 -163.54676224 392.78727608 -164.49053955 391.83265686 C-165.29463697 391.02548013 -165.29463697 391.02548013 -166.11497879 390.2019968 C-169.01908635 386.76430573 -169.75025412 383.91734758 -169.75726891 379.45429611 C-169.7637178 378.41669702 -169.77016669 377.37909793 -169.776811 376.31005645 C-169.7737138 375.17155313 -169.7706166 374.03304981 -169.76742554 372.86004639 C-169.77195665 371.64945816 -169.77648776 370.43886994 -169.78115618 369.19159722 C-169.7916397 365.82974132 -169.79312377 362.46809907 -169.79076743 359.10624194 C-169.79035968 355.48102452 -169.8013945 351.85583913 -169.81088257 348.2306366 C-169.82750338 341.12709841 -169.83299263 334.02359342 -169.83410732 326.92003742 C-169.83505741 321.1455012 -169.83916572 315.37097593 -169.84550858 309.59644318 C-169.86312492 293.22534958 -169.87234698 276.85428221 -169.87084763 260.48317906 C-169.87076772 259.60040478 -169.8706878 258.71763049 -169.87060547 257.80810547 C-169.87052371 256.92425337 -169.87044195 256.04040127 -169.87035771 255.12976578 C-169.86954498 240.80879002 -169.8886783 226.48791948 -169.9168822 212.16697416 C-169.94561177 197.46308003 -169.95942242 182.75923721 -169.95769465 168.0553143 C-169.95703071 159.79992052 -169.96252449 151.544637 -169.98405075 143.28926849 C-170.00226366 136.25947346 -170.00660914 129.22983865 -169.9930319 122.20003024 C-169.98650236 118.61417733 -169.98638405 115.02863181 -170.0037384 111.44280815 C-170.0223715 107.55269257 -170.00991384 103.66302563 -169.99447632 99.77288818 C-170.00476344 98.64330775 -170.01505057 97.51372732 -170.02564943 96.34991717 C-169.95921183 88.7796094 -168.75776508 83.59705578 -163.89453125 77.57421875 C-155.2770983 70.3611082 -146.39785684 70.13619425 -135.49609375 70.26953125 C-134.17706558 70.27377609 -132.85803741 70.27802094 -131.4990387 70.28239441 C-128.02194615 70.29375322 -124.54524004 70.32314069 -121.06829834 70.35650635 C-117.508476 70.3874028 -113.94859015 70.40094121 -110.38867188 70.41601562 C-103.42562426 70.448021 -96.46283078 70.49910614 -89.5 70.5625 C-89.51885254 69.67626953 -89.53770508 68.79003906 -89.55712891 67.87695312 C-89.57179199 66.71099609 -89.58645508 65.54503906 -89.6015625 64.34375 C-89.62041504 63.18939453 -89.63926758 62.03503906 -89.65869141 60.84570312 C-89.40140546 55.52265481 -87.66823794 51.82131707 -84.00390625 48.00390625 C-79.27776878 43.84349097 -75.76038387 43.43903846 -69.64453125 43.46484375 C-68.65207649 43.46696617 -68.65207649 43.46696617 -67.63957214 43.46913147 C-65.53050172 43.47472004 -63.42153823 43.48727035 -61.3125 43.5 C-59.88086091 43.50501648 -58.44922015 43.50957913 -57.01757812 43.51367188 C-53.51168412 43.5246857 -50.0058525 43.54194245 -46.5 43.5625 C-46.5 40.2625 -46.5 36.9625 -46.5 33.5625 C-64.16322421 33.623006 -81.8262883 33.70048558 -99.48934555 33.79821491 C-107.69047512 33.84319513 -115.89156104 33.8826046 -124.09277344 33.90893555 C-131.24031938 33.93189767 -138.38772747 33.96527554 -145.53516412 34.01120156 C-149.32027504 34.03515805 -153.10524923 34.05387085 -156.89043427 34.06011391 C-160.45277363 34.06615391 -164.01476304 34.08611385 -167.57697296 34.11677551 C-169.50846794 34.12977001 -171.4400446 34.12798283 -173.37158203 34.1257782 C-174.52140564 34.13831635 -175.67122925 34.15085449 -176.855896 34.16377258 C-177.85511959 34.16838155 -178.85434319 34.17299051 -179.88384628 34.17773914 C-182.93934362 34.62711479 -184.29905733 35.42227122 -186.5 37.5625 C-187.54393945 40.69431835 -187.62447195 42.87812525 -187.62597656 46.16381836 C-187.62978333 47.31188461 -187.63359009 48.45995087 -187.63751221 49.64280701 C-187.63853943 50.88345413 -187.63956665 52.12410126 -187.640625 53.40234375 C-187.6589466 56.01758688 -187.6785163 58.63282151 -187.69921875 61.24804688 C-187.72960534 65.38051361 -187.75231681 69.51267463 -187.75048828 73.64526367 C-187.74955063 77.62712921 -187.78829679 81.60817094 -187.828125 85.58984375 C-187.8210553 86.82846664 -187.8139856 88.06708954 -187.80670166 89.34324646 C-187.82311707 90.49446487 -187.83953247 91.64568329 -187.85644531 92.83178711 C-187.86009094 93.84421982 -187.86373657 94.85665253 -187.86749268 95.89976501 C-188.5 98.5625 -188.5 98.5625 -190.81365967 100.92457581 C-193.5 102.5625 -193.5 102.5625 -197.125 102.5 C-201.54666803 101.27175888 -201.54666803 101.27175888 -203.5 98.5625 C-203.90113831 95.80137634 -203.90113831 95.80137634 -203.93579102 92.41381836 C-203.95493057 91.14497299 -203.97407013 89.87612762 -203.99378967 88.5688324 C-203.99837859 87.18000634 -204.00171893 85.79117567 -204.00390625 84.40234375 C-204.01355244 82.97326865 -204.0236453 81.5441965 -204.03416443 80.11512756 C-204.05213816 77.11484935 -204.05768494 74.11483021 -204.0559082 71.11450195 C-204.05560488 67.29337761 -204.09639278 63.47394528 -204.14822483 59.65322018 C-204.18181644 56.6975005 -204.18765868 53.74217821 -204.18607903 50.78628731 C-204.18959118 49.37941267 -204.2027023 47.97252461 -204.22607613 46.56583977 C-204.36395348 37.40319416 -203.46695225 30.76477548 -197.5 23.5625 C-189.5508443 16.7972611 -180.77689756 17.27987572 -170.85375977 17.33544922 C-169.47343453 17.33601401 -168.0931087 17.33569544 -166.71278381 17.33456421 C-162.98185916 17.33399236 -159.25106413 17.34571942 -155.5201695 17.35971212 C-151.61509188 17.3722475 -147.71001102 17.37339219 -143.80491638 17.37576294 C-136.41735019 17.38196948 -129.02984346 17.39836907 -121.64230341 17.41846192 C-113.2287666 17.44084668 -104.8152269 17.45182082 -96.40166771 17.46185279 C-79.10107746 17.48273606 -61.80054503 17.51789591 -44.5 17.5625 C-44.19529785 16.78003906 -43.8905957 15.99757813 -43.57666016 15.19140625 C-40.6059482 7.93774947 -35.53858432 2.90065212 -28.5 -0.4375 C-19.44556923 -4.03376687 -8.8721435 -4.07486489 0 0 Z M-26.5 17.5625 C-30.61417844 23.2840098 -31.02152496 27.57911704 -30.75 34.5 C-30.6675 37.490625 -30.585 40.48125 -30.5 43.5625 C-19.94 43.5625 -9.38 43.5625 1.5 43.5625 C2.44375502 30.32304188 2.44375502 30.32304188 -2.5 18.5625 C-7.3255508 14.0816314 -10.45306151 13.196112 -16.89453125 13.2890625 C-21.12056037 13.7325738 -23.12487186 14.92990005 -26.5 17.5625 Z M-73.5 60.5625 C-73.86339695 65.02914661 -73.94240487 69.50106829 -74.01489258 73.98022461 C-74.04645212 75.48488636 -74.09412576 76.98930237 -74.15844727 78.49291992 C-74.80362166 87.15933999 -74.80362166 87.15933999 -71.76489258 94.93139648 C-69.70401158 96.53404362 -67.95372627 97.67925594 -65.5 98.5625 C-62.89734425 98.4102341 -62.89734425 98.4102341 -60.5 96.5625 C-50.53602873 90.41773593 -50.53602873 90.41773593 -44.5 91.5625 C-41.55881719 92.96266872 -38.75753459 94.4955487 -35.953125 96.15234375 C-33.49046023 97.6760322 -33.49046023 97.6760322 -30.5 98.5625 C-28.23691796 97.37746712 -28.23691796 97.37746712 -25.875 95.6875 C-21.11662018 92.72734511 -17.17276063 90.9287862 -11.5 91.5625 C-7.59295036 92.88104251 -4.4353338 94.76078531 -1.3125 97.4375 C-0.714375 97.80875 -0.11625 98.18 0.5 98.5625 C4.00764161 97.40905967 7.05441822 95.69731706 10.25 93.875 C14.51198845 91.75661521 17.50129253 90.94082742 22.203125 91.7578125 C25.90092623 93.05330068 28.98086152 95.19325433 32.140625 97.48046875 C34.4780204 98.84981835 34.4780204 98.84981835 37.046875 97.92578125 C37.85640625 97.47589844 38.6659375 97.02601562 39.5 96.5625 C40.20253906 96.19882324 40.90507812 95.83514648 41.62890625 95.46044922 C43.99083879 93.06461629 43.9546432 91.32076284 43.95318604 88.03877258 C43.93254089 87.31054794 43.91189575 86.5823233 43.890625 85.83203125 C43.88213531 84.70640022 43.88213531 84.70640022 43.87347412 83.55802917 C43.85109668 81.16303496 43.80090171 78.76954131 43.75 76.375 C43.72993659 74.75067266 43.71168553 73.12632185 43.6953125 71.50195312 C43.65122794 67.52155793 43.58219427 63.54228329 43.5 59.5625 C28.39275309 59.53917031 13.28550757 59.52152048 -1.8217535 59.51068783 C-8.83584634 59.50552502 -15.849928 59.49848261 -22.86401367 59.48706055 C-29.62668068 59.47605312 -36.38933364 59.47022381 -43.15200996 59.46762276 C-45.7385228 59.46576797 -48.32503497 59.46214633 -50.91154289 59.45676994 C-54.52038855 59.44956349 -58.12918547 59.44850889 -61.73803711 59.44897461 C-62.8191275 59.44537933 -63.9002179 59.44178406 -65.0140686 59.43807983 C-65.99148514 59.4394545 -66.96890167 59.44082916 -67.97593689 59.44224548 C-68.83043899 59.44132369 -69.68494108 59.4404019 -70.56533718 59.43945217 C-72.50676408 59.34899794 -72.50676408 59.34899794 -73.5 60.5625 Z M-152.5 89.5625 C-153.71311244 91.98872488 -153.62424658 93.5167359 -153.62304783 96.22831154 C-153.62503888 97.21809458 -153.62702993 98.20787763 -153.62908131 99.2276541 C-153.62616847 100.32296678 -153.62325563 101.41827947 -153.62025452 102.54678345 C-153.62110894 103.70413761 -153.62196337 104.86149178 -153.62284368 106.05391729 C-153.62421029 109.27605882 -153.62106874 112.49816052 -153.61606562 115.72029734 C-153.61175986 119.19132393 -153.61320764 122.66234856 -153.6139679 126.13337708 C-153.61449305 132.15039132 -153.61134713 138.16739475 -153.60573006 144.18440628 C-153.59761391 152.88406734 -153.59499972 161.58372315 -153.59374207 170.28338759 C-153.59155173 184.39693584 -153.58489213 198.51047832 -153.57543945 212.62402344 C-153.56626487 226.33658825 -153.55918426 240.04915149 -153.55493164 253.76171875 C-153.55466892 254.60651305 -153.55440619 255.45130735 -153.55413551 256.32170148 C-153.5528305 260.55965237 -153.55156679 264.79760327 -153.55032361 269.03555417 C-153.53995156 304.21120689 -153.52233373 339.38685292 -153.5 374.5625 C-152.76385971 374.56836624 -152.02771942 374.57423248 -151.26927185 374.58027649 C-144.31051895 374.63833122 -137.35203729 374.71048075 -130.39359951 374.79821491 C-126.81670347 374.84282303 -123.23991882 374.88209953 -119.6628418 374.90893555 C-116.20668193 374.93506487 -112.7509529 374.9755335 -109.29506111 375.02568626 C-107.34381509 375.0503363 -105.39240204 375.06037487 -103.44102478 375.07014465 C-95.35261821 375.20348439 -89.8947979 375.61050183 -83.625 381.0625 C-80.37943315 384.88081394 -80.36248361 387.83331599 -80.29467773 392.6862793 C-80.2647599 394.57790047 -80.2647599 394.57790047 -80.23423767 396.50773621 C-80.21725467 397.88406247 -80.20037581 399.26039002 -80.18359375 400.63671875 C-80.16301803 402.04491275 -80.1420214 403.45310065 -80.12062073 404.86128235 C-80.06546378 408.56510481 -80.01602646 412.26898241 -79.96777344 415.97290039 C-79.91751179 419.75346782 -79.86185008 423.53395529 -79.80664062 427.31445312 C-79.69913708 434.73040102 -79.59767486 442.14641545 -79.5 449.5625 C-53.75309778 449.60918458 -28.00620189 449.64447145 -2.2592659 449.66612434 C9.69500899 449.67644459 21.6492576 449.69051922 33.60351562 449.71337891 C44.02071756 449.73328987 54.43790047 449.74621099 64.8551209 449.75067699 C70.3728669 449.75328826 75.89055846 449.75944142 81.40828705 449.77396011 C86.59890619 449.78750778 91.78944833 449.79172835 96.98008347 449.78871536 C98.8876754 449.78926679 100.79526985 449.79326095 102.70284653 449.80091095 C105.30270514 449.81082813 107.90227117 449.8084807 110.50213623 449.80300903 C111.26089263 449.80883472 112.01964902 449.8146604 112.80139804 449.82066262 C117.9911355 449.82062287 117.9911355 449.82062287 122.5 447.5625 C124.62761086 444.22264881 124.75048609 441.51421845 124.75168228 437.59978485 C124.75689778 436.37161561 124.76211327 435.14344636 124.76748681 433.87805986 C124.76316259 432.51306634 124.75864927 431.1480734 124.75396729 429.78308105 C124.75627103 428.33467308 124.75944698 426.88626627 124.76342177 425.43786192 C124.77179023 421.45263769 124.76763522 417.46750894 124.76144934 413.48228431 C124.75693422 409.18638946 124.76390392 404.89051131 124.76940918 400.59461975 C124.7783149 392.176948 124.77637593 383.75931185 124.7705839 375.34163868 C124.76607204 368.50204305 124.76545244 361.66245741 124.76763153 354.82286072 C124.76809123 353.3641783 124.76809123 353.3641783 124.76856022 351.87602755 C124.76919965 349.90066961 124.76984808 347.92531167 124.7705054 345.94995373 C124.77621214 327.41536059 124.7696454 308.88078721 124.75890467 290.34619731 C124.74996884 274.43342502 124.75152079 258.52068191 124.76074219 242.60791016 C124.77143874 224.14084851 124.77566279 205.67380421 124.76951766 187.2067399 C124.76888054 185.2385397 124.7682518 183.27033949 124.76763153 181.30213928 C124.76732298 180.33367938 124.76701443 179.36521947 124.76669653 178.3674123 C124.76496774 171.53391334 124.76788864 164.70042536 124.77259064 157.8669281 C124.77819264 149.54222338 124.77669739 141.21755639 124.76602915 132.892856 C124.76076325 128.64330237 124.75873128 124.3938117 124.76532745 120.1442585 C124.77127007 116.25704287 124.76803984 112.36994881 124.75737235 108.48274428 C124.75513113 107.07365113 124.7562907 105.6645478 124.76112393 104.25546116 C124.76717494 102.34538615 124.7597935 100.43528252 124.75168228 98.52521515 C124.75135758 97.46264763 124.75103287 96.40008012 124.75069833 95.30531359 C124.49637653 92.52285673 123.99930769 90.89825591 122.5 88.5625 C119.30187222 86.3144843 116.4662687 86.31905441 112.62988281 86.33544922 C111.44896057 86.33560028 110.26803833 86.33575134 109.05133057 86.33590698 C107.78142273 86.34622955 106.51151489 86.35655212 105.203125 86.3671875 C103.89921814 86.3700174 102.59531128 86.37284729 101.25189209 86.37576294 C97.7929105 86.38338279 94.33409807 86.40301692 90.87518311 86.4251709 C87.34259326 86.44566497 83.80997597 86.45477226 80.27734375 86.46484375 C73.35149321 86.48626452 66.42575474 86.52038044 59.5 86.5625 C59.46261719 87.44292969 59.42523438 88.32335937 59.38671875 89.23046875 C59.28810547 90.97263672 59.28810547 90.97263672 59.1875 92.75 C59.12949219 93.89855469 59.07148438 95.04710938 59.01171875 96.23046875 C58.22645959 101.34364484 56.47152742 103.78827506 52.4609375 106.984375 C39.21103017 115.86336998 39.21103017 115.86336998 32.5 114.5625 C29.81533718 113.51531977 27.36204902 112.31389723 24.859375 110.88671875 C21.31990277 108.88966316 21.31990277 108.88966316 17.5 107.5625 C15.01000386 108.5937231 15.01000386 108.5937231 12.6875 110.375 C7.99432131 113.41094348 5.11116227 114.65448627 -0.5 114.5625 C-4.45431346 113.26712145 -7.24303838 111.75653224 -10.5625 109.25 C-13.3825974 107.21717965 -13.3825974 107.21717965 -16.5 108.0625 C-19.57323518 109.50037353 -19.57323518 109.50037353 -22.375 111.625 C-26.14874141 113.96471967 -29.07376835 114.78596024 -33.5 114.5625 C-37.43157921 113.27456888 -40.31003581 111.69659237 -43.6875 109.3125 C-46.2291514 107.32393743 -46.2291514 107.32393743 -48.4453125 107.796875 C-50.66318915 108.62330813 -52.27101305 109.68037943 -54.1875 111.0625 C-58.55139021 113.82118845 -62.30478395 115.13207518 -67.5 114.5625 C-74.49568129 112.2453185 -83.58014279 107.23360793 -87.57421875 100.84399414 C-88.74175233 97.96672587 -88.92325938 95.40585615 -89.125 92.3125 C-89.23714844 90.69601563 -89.23714844 90.69601563 -89.3515625 89.046875 C-89.40054688 88.22703125 -89.44953125 87.4071875 -89.5 86.5625 C-96.97584448 86.49289682 -104.45161873 86.43963658 -111.92772198 86.40706348 C-115.3994411 86.39142757 -118.87093803 86.37022788 -122.3425293 86.33618164 C-126.33644712 86.29725937 -130.33013263 86.28277371 -134.32421875 86.26953125 C-135.56709152 86.25404739 -136.80996429 86.23856354 -138.09049988 86.22261047 C-139.25132584 86.22238388 -140.41215179 86.22215729 -141.6081543 86.22192383 C-142.62741501 86.21526199 -143.64667572 86.20860016 -144.69682312 86.20173645 C-147.97230388 86.62328461 -149.84857323 87.62465722 -152.5 89.5625 Z M-141.5 390.5625 C-136.50466611 396.40345921 -136.50466611 396.40345921 -131.25463867 401.93725586 C-130.47751022 402.71753647 -129.70038177 403.49781708 -128.89970398 404.30174255 C-128.08073135 405.11869095 -127.26175873 405.93563934 -126.41796875 406.77734375 C-125.56318436 407.63308487 -124.70839996 408.48882599 -123.82771301 409.37049866 C-122.03293621 411.16595254 -120.23690964 412.96015791 -118.43969727 414.75317383 C-115.67543024 417.5120462 -112.91658841 420.27626389 -110.15820312 423.04101562 C-108.41177924 424.78677942 -106.66504556 426.53223337 -104.91796875 428.27734375 C-104.08887497 429.10846176 -103.25978119 429.93957977 -102.40556335 430.79588318 C-101.64419571 431.55409866 -100.88282806 432.31231415 -100.09838867 433.09350586 C-99.4258757 433.76522324 -98.75336273 434.43694061 -98.06047058 435.12901306 C-96.73041926 436.67525131 -96.73041926 436.67525131 -95.5 436.5625 C-95.5 421.3825 -95.5 406.2025 -95.5 390.5625 C-110.68 390.5625 -125.86 390.5625 -141.5 390.5625 Z " fill="#000000" transform="translate(203.5,2.4375)"/>
<path d="M0 0 C1.99301736 1.58066894 2.86543351 2.73086702 4 5 C4.01863926 6.7686586 4.03518121 8.53739555 4.03540039 10.30615234 C3.86798165 16.43734614 3.86798165 16.43734614 6.5625 21.5625 C8.55709537 22.40855904 8.55709537 22.40855904 10.66381836 23.01049805 C17.73183335 26.00419276 21.56766342 33.46172393 24.3359375 40.23828125 C25.1199858 42.23942231 25.87933157 44.24702859 26.62060547 46.2644043 C27.37327225 48.30780935 28.15843825 50.33631615 28.94921875 52.36523438 C34.55624057 67.1281567 35.30258804 80.90100599 35.31884766 96.54785156 C35.32815948 98.60871264 35.33832999 100.66956999 35.34928894 102.73042297 C35.37646164 108.29357665 35.39170042 113.85670518 35.40471697 119.41990757 C35.42040349 125.24552335 35.44717598 131.07108821 35.4727478 136.89666748 C35.51943814 147.91415603 35.5562293 158.93165427 35.58942068 169.94919086 C35.62771109 182.49823416 35.67710305 195.0472262 35.72740483 207.59622622 C35.83057968 233.39744609 35.91988687 259.19869893 36 285 C41.12384155 283.75665727 41.12384155 283.75665727 45.40635681 280.85005188 C47.38968511 277.30309193 47.55348183 274.3575063 47.49829102 270.39916992 C47.50380981 269.65051163 47.50932861 268.90185333 47.51501465 268.13050842 C47.52431467 266.51056219 47.5244563 264.89054283 47.51642036 263.27058983 C47.50376129 260.70104533 47.51510736 258.13257061 47.53245544 255.56306458 C47.55914838 251.03036177 47.5647518 246.49792183 47.56335449 241.96514893 C47.5611261 234.72145539 47.57540446 227.47808859 47.61894035 220.23452187 C47.62873143 217.71298975 47.62008443 215.1919769 47.61024475 212.67045593 C47.6163941 211.10997181 47.62330754 209.54949044 47.63110352 207.98901367 C47.62338425 207.2962735 47.61566498 206.60353333 47.60771179 205.88980103 C47.66385198 200.40600898 48.61559846 194.57848556 52.45192814 190.42988873 C57.01860047 186.55274644 59.96210703 185.62704618 65.80078125 185.73046875 C68 186 68 186 70.5625 187.5 C72.585607 191.01844696 72.95731374 194.04093978 72 198 C69.6875 200.5 69.6875 200.5 67 202 C66.01 202 65.02 202 64 202 C64.01110306 202.9675119 64.02220612 203.9350238 64.03364563 204.93185425 C64.13532342 214.08207568 64.21010943 223.2321814 64.25906086 232.38284111 C64.28507418 237.08652297 64.32031968 241.78974613 64.37719727 246.49316406 C64.43181393 251.03843777 64.4614826 255.58327231 64.47438622 260.12884903 C64.4835732 261.85671012 64.50151272 263.58454914 64.52865028 265.31222153 C64.68749528 275.85092853 64.60585795 284.98163283 57.02363586 293.12179565 C51.76032095 298.15521146 46.45780663 301.14127933 39.0625 301.1875 C37.70772411 301.14000368 36.35307462 301.0828413 35 301 C34.95875 302.299375 34.9175 303.59875 34.875 304.9375 C34.15815374 311.2497296 31.20042438 316.39517029 26.2578125 320.41796875 C20.05988215 324.23313921 13.40791324 324.15788321 6.3828125 324.16796875 C5.56682587 324.17129715 4.75083923 324.17462555 3.91012573 324.17805481 C2.1905778 324.18309774 0.47102016 324.18546395 -1.24853516 324.18530273 C-3.85986681 324.18748734 -6.47077427 324.20566583 -9.08203125 324.22460938 C-10.76041524 324.22754435 -12.43880121 324.22952845 -14.1171875 324.23046875 C-14.8882785 324.23765427 -15.65936951 324.24483978 -16.4538269 324.25224304 C-24.20762307 324.2200414 -30.76893284 322.95653069 -37 318 C-43.59632065 311.22044822 -43.29807844 303.3699798 -43.29052734 294.45263672 C-43.29724457 293.30872467 -43.30396179 292.16481262 -43.31088257 290.98623657 C-43.32983094 287.21734235 -43.33378455 283.44862634 -43.3359375 279.6796875 C-43.34236525 277.05608039 -43.3490936 274.43247401 -43.35610962 271.80886841 C-43.36887276 266.31641481 -43.371877 260.8240094 -43.37060547 255.33154297 C-43.369402 248.98808298 -43.39055342 242.64496207 -43.4220928 236.30158794 C-43.45140536 230.18745768 -43.45858153 224.07349023 -43.45738602 217.95929337 C-43.45974831 215.36211889 -43.46860695 212.76494198 -43.48405075 210.16781235 C-43.50360604 206.54111082 -43.49791406 202.91528936 -43.48583984 199.28857422 C-43.49707886 198.21416077 -43.50831787 197.13974731 -43.51989746 196.03277588 C-43.45825964 188.7615103 -43.45825964 188.7615103 -41.09463501 184.83377075 C-38.83321383 182.85398526 -37.96188049 182.33915631 -35 182.4375 C-34.34 182.43621094 -33.68 182.43492187 -33 182.43359375 C-30.05813982 183.26673775 -28.90068741 184.62025525 -27 187 C-26.51898193 190.06256104 -26.51898193 190.06256104 -26.54589844 193.69628906 C-26.54531433 194.36011597 -26.54473022 195.02394287 -26.54412842 195.70788574 C-26.54690735 197.89433738 -26.57798672 200.07941262 -26.609375 202.265625 C-26.61683816 203.78447729 -26.62253074 205.30333922 -26.62652588 206.82220459 C-26.64177659 210.81403325 -26.68105277 214.80527697 -26.7253418 218.796875 C-26.76630711 222.87231534 -26.78453954 226.94785048 -26.8046875 231.0234375 C-26.84754841 239.01592296 -26.9178929 247.00782126 -27 255 C-22.05 255 -17.1 255 -12 255 C-12 219.36 -12 183.72 -12 147 C-16.95 147 -21.9 147 -27 147 C-26.938125 148.5675 -26.87625 150.135 -26.8125 151.75 C-26.68912313 154.8755473 -26.73163964 156.53258556 -28.30078125 159.265625 C-30 161 -30 161 -33.375 162 C-37 162 -37 162 -39.875 160.1875 C-43.53115499 156.42381104 -43.15378974 153.23541598 -43.16113281 148.23657227 C-43.16609772 147.43464951 -43.17106262 146.63272675 -43.17617798 145.8065033 C-43.1908257 143.14312895 -43.1976091 140.47981433 -43.203125 137.81640625 C-43.20887827 135.96231586 -43.21463598 134.10822549 -43.22039795 132.25413513 C-43.23091805 128.35765302 -43.2367528 124.46119159 -43.24023438 120.56469727 C-43.24569393 115.59519045 -43.26966289 110.62596114 -43.29820633 105.65654087 C-43.31693163 101.82070653 -43.32204374 97.98493737 -43.32357025 94.1490612 C-43.32657959 92.31881139 -43.33454938 90.48856226 -43.34775543 88.65835762 C-43.41238859 79.00463646 -43.38257316 70.18370737 -40 61 C-39.60562744 59.83170654 -39.21125488 58.66341309 -38.80493164 57.4597168 C-37.56510318 54.19925086 -36.32147454 50.94063034 -35.0625 47.6875 C-34.63259766 46.54732422 -34.20269531 45.40714844 -33.75976562 44.23242188 C-30.87377137 36.73058855 -28.25228248 30.59404982 -22.0625 25.25 C-21.41410156 24.67765625 -20.76570313 24.1053125 -20.09765625 23.515625 C-17.82569506 21.874059 -15.63332635 20.93425839 -13 20 C-12.97421875 18.89140625 -12.9484375 17.7828125 -12.921875 16.640625 C-12.86558344 15.17704453 -12.80823633 13.71350438 -12.75 12.25 C-12.72873047 11.15558594 -12.72873047 11.15558594 -12.70703125 10.0390625 C-12.54515848 6.47786163 -12.30482277 4.38908272 -10.078125 1.546875 C-6.33049717 -1.24271263 -4.54494586 -1.11304797 0 0 Z M-13 39 C-15.71279965 42.10839669 -17.03611578 45.30456005 -18.4453125 49.15625 C-18.88230469 50.34347656 -19.31929688 51.53070313 -19.76953125 52.75390625 C-20.21683594 53.99011719 -20.66414063 55.22632813 -21.125 56.5 C-21.58003906 57.73621094 -22.03507812 58.97242188 -22.50390625 60.24609375 C-25.98584801 69.38681208 -25.98584801 69.38681208 -27.09765625 78.984375 C-27.09443359 79.91894531 -27.09121094 80.85351562 -27.08789062 81.81640625 C-27.07951172 82.78449219 -27.07113281 83.75257813 -27.0625 84.75 C-27.05798828 85.73355469 -27.05347656 86.71710938 -27.04882812 87.73046875 C-27.037065 90.15367194 -27.01913018 92.57684377 -27 95 C-22.05 95 -17.1 95 -12 95 C-12 76.52 -12 58.04 -12 39 C-12.33 39 -12.66 39 -13 39 Z M4 39 C4 57.48 4 75.96 4 95 C8.95 95 13.9 95 19 95 C19.05455703 92.02058002 19.09393851 89.04218469 19.125 86.0625 C19.14175781 85.23169922 19.15851563 84.40089844 19.17578125 83.54492188 C19.26309375 72.32526513 15.75655809 63.30593005 11.5 53 C10.99560121 51.74889638 10.49169138 50.49759551 9.98828125 49.24609375 C8.08755088 43.21241119 8.08755088 43.21241119 4 39 Z M-27 111 C-27 117.6 -27 124.2 -27 131 C-11.82 131 3.36 131 19 131 C19 124.4 19 117.8 19 111 C3.82 111 -11.36 111 -27 111 Z M4 147 C4 182.64 4 218.28 4 255 C8.95 255 13.9 255 19 255 C19 219.36 19 183.72 19 147 C14.05 147 9.1 147 4 147 Z M-27 271 C-27.0825 276.3625 -27.165 281.725 -27.25 287.25 C-27.28641602 288.93641602 -27.32283203 290.62283203 -27.36035156 292.36035156 C-27.3720389 293.7037631 -27.38223062 295.04718885 -27.390625 296.390625 C-27.41108887 297.08269043 -27.43155273 297.77475586 -27.45263672 298.48779297 C-27.45493528 301.67130143 -27.17510966 303.71492056 -25.49707031 306.44677734 C-21.96092563 308.64632295 -18.69156673 308.53565589 -14.65625 308.4609375 C-13.85014282 308.46002106 -13.04403564 308.45910461 -12.21350098 308.4581604 C-10.51222837 308.45212883 -8.81096617 308.436396 -7.10986328 308.41162109 C-4.50904106 308.37512686 -1.90964525 308.37060178 0.69140625 308.37109375 C2.34636645 308.36126139 4.00131702 308.34960387 5.65625 308.3359375 C6.82045471 308.33259903 6.82045471 308.33259903 8.00817871 308.32919312 C13.34293183 308.28980214 13.34293183 308.28980214 18 306 C19.16864255 302.49407236 19.12526009 299.35225979 19.09765625 295.70703125 C19.09515869 294.41514893 19.09266113 293.1232666 19.09008789 291.79223633 C19.08098389 290.14892334 19.07187988 288.50561035 19.0625 286.8125 C19.041875 281.594375 19.02125 276.37625 19 271 C3.82 271 -11.36 271 -27 271 Z " fill="#000000" transform="translate(440,54)"/>
<path d="M0 0 C1.66380161 1.17133343 1.66380161 1.17133343 3 3 C3.37670618 5.68799675 3.37670618 5.68799675 3.37917423 9.00866508 C3.38739738 10.27254393 3.39562052 11.53642278 3.40409285 12.83860099 C3.39808063 14.24908109 3.39179624 15.65956004 3.38526917 17.07003784 C3.38927367 18.56224527 3.3945985 20.05444965 3.40113491 21.54664814 C3.41533528 25.65764898 3.41083902 29.768453 3.40342176 33.87946391 C3.39869587 38.30901637 3.41123257 42.73852262 3.42178345 47.1680603 C3.43778363 54.84714859 3.44303196 62.52618408 3.44125557 70.20528793 C3.43887563 81.31350375 3.45484032 92.42163495 3.47570812 103.52982868 C3.50926103 121.55812832 3.5309051 139.5864204 3.54370117 157.61474609 C3.54447066 158.69434058 3.54524015 159.77393508 3.54603296 160.88624455 C3.54913529 165.26069122 3.55221811 169.6351379 3.555273 174.0095846 C3.56380104 186.0478955 3.57470199 198.08620378 3.58666992 210.12451172 C3.58827195 211.74102754 3.58827195 211.74102754 3.58990634 213.39020024 C3.60798746 231.34735827 3.63397408 249.30449829 3.66480106 267.26163876 C3.68337564 278.34410996 3.69427208 289.42654074 3.69532298 300.50902773 C3.69642498 308.100864 3.70435945 315.69267256 3.71770663 323.28449713 C3.7251386 327.66783262 3.72920858 332.05110751 3.72458839 336.43444824 C3.7204014 340.44511882 3.7253038 344.45567048 3.73749625 348.46632375 C3.74026978 349.91920464 3.73964159 351.37209671 3.73531515 352.82497381 C3.72991718 354.79652966 3.73794336 356.76810869 3.74666691 358.73965263 C3.74731901 359.83579789 3.74797112 360.93194315 3.74864298 362.06130493 C4.02894305 365.33838244 4.58980036 368.58980036 7 371 C9.65665417 371.10579197 12.2877064 371.14604422 14.94512939 371.14476013 C15.78775133 371.14828698 16.63037326 371.15181382 17.4985292 371.15544754 C20.34440248 371.16618947 23.19024236 371.16982502 26.03613281 371.17358398 C28.06755212 371.17988509 30.09897003 371.18665039 32.13038635 371.19384766 C36.5164079 371.20854918 40.90242399 371.22026111 45.28845978 371.22979546 C52.2209577 371.24520726 59.1534094 371.26915651 66.08587646 371.29469299 C85.8031523 371.36600279 105.52045483 371.42568385 125.23779297 371.47680664 C136.11869525 371.50509419 146.9995518 371.54046863 157.88040614 371.58346039 C164.77422185 371.61026709 171.66798577 371.62815148 178.5618434 371.63949764 C182.8504809 371.64861438 187.13905548 371.66597219 191.42765617 371.68567657 C193.4186676 371.69315938 195.40969516 371.69723357 197.4007206 371.69767189 C200.11625099 371.69875254 202.8314604 371.71198364 205.54693604 371.72825623 C206.73220599 371.72433094 206.73220599 371.72433094 207.94142079 371.72032636 C213.07024238 371.76841806 216.98980187 372.19082168 220.875 375.6875 C222.53583755 379.10144385 221.91952707 381.38757223 221 385 C219.97226238 386.69061375 219.97226238 386.69061375 218 388 C215.11821163 388.29710431 212.45196672 388.40885127 209.56880188 388.38768005 C208.26260345 388.39575836 208.26260345 388.39575836 206.93001717 388.40399987 C204.00048457 388.41835258 201.0713992 388.41115764 198.1418457 388.40405273 C196.04603205 388.40975265 193.95022151 388.41671543 191.85441589 388.42485046 C186.15171442 388.4428433 180.44916631 388.44160145 174.74644494 388.43590808 C169.98763356 388.43282365 165.22885195 388.43890068 160.47004479 388.44494683 C149.24082839 388.45901188 138.01168802 388.4574156 126.7824707 388.44604492 C115.19849657 388.43457417 103.61475423 388.44861744 92.03081065 388.4754414 C82.08844029 388.49760206 72.14614266 388.50423456 62.20374936 388.49836498 C56.26446723 388.4949936 50.32533353 388.49742212 44.38607216 388.51461601 C38.79722608 388.53008769 33.20872276 388.52612678 27.61989021 388.50731087 C25.57046321 388.50362499 23.52101082 388.5067334 21.47160721 388.51719666 C18.66938276 388.53040882 15.86829243 388.51885668 13.06611633 388.50120544 C12.25880249 388.51081045 11.45148864 388.52041546 10.61971074 388.53031152 C4.11379589 388.44624459 -1.10469336 386.54876415 -6.0234375 382.21875 C-6.46945313 381.6515625 -6.91546875 381.084375 -7.375 380.5 C-7.83648438 379.9328125 -8.29796875 379.365625 -8.7734375 378.78125 C-11.60862952 374.66390108 -12.25057531 371.78120498 -12.25447559 366.7377615 C-12.26030779 365.44279104 -12.26613998 364.14782058 -12.27214891 362.81360859 C-12.26851558 361.3732514 -12.2646912 359.93289468 -12.26069641 358.49253845 C-12.26371588 356.96504627 -12.26760433 355.4375556 -12.27228898 353.91006762 C-12.28260387 349.70628861 -12.28037832 345.50259455 -12.27610838 341.29880846 C-12.27364753 336.76775393 -12.28264725 332.2367202 -12.29014587 327.70567322 C-12.30291202 318.82712444 -12.30468425 309.94860587 -12.30234561 301.07004946 C-12.3005647 293.85668423 -12.30230719 286.64332819 -12.30657005 279.42996407 C-12.30716524 278.40448854 -12.30776043 277.379013 -12.30837366 276.32246246 C-12.30958536 274.23943579 -12.3107995 272.15640911 -12.31201603 270.07338244 C-12.32289861 250.52828557 -12.32072547 230.98320594 -12.31463119 211.43810809 C-12.30945936 193.54102215 -12.3207232 175.64399058 -12.33972941 157.74691539 C-12.35908014 139.38519762 -12.3673688 121.0235056 -12.36360615 102.66177756 C-12.36169016 92.34697369 -12.36422045 82.03221615 -12.37832069 71.71742058 C-12.39020017 62.93813196 -12.39167802 54.15891818 -12.37953053 45.37962859 C-12.37361806 40.89726567 -12.37260736 36.41503986 -12.38453293 31.93268585 C-12.39531163 27.83391337 -12.39238502 23.73539382 -12.37827124 19.63663358 C-12.37560207 18.14949576 -12.37805967 16.66233863 -12.38600711 15.17521965 C-12.39602254 13.16230029 -12.38595462 11.14931034 -12.37473011 9.13639736 C-12.37478513 8.01573264 -12.37484014 6.89506791 -12.37489682 5.74044365 C-12 3 -12 3 -10.66407937 1.17897516 C-6.98115224 -1.43032322 -4.203218 -1.0508045 0 0 Z " fill="#000000" transform="translate(12,124)"/>
<path d="M0 0 C1.1944574 -0.00990463 2.38891479 -0.01980927 3.61956787 -0.03001404 C4.92154114 -0.02551239 6.2235144 -0.02101074 7.56494141 -0.01637268 C8.95656889 -0.02207789 10.34819169 -0.02904274 11.73980713 -0.03717041 C15.51252132 -0.05509906 19.2850029 -0.05393423 23.05774689 -0.04822803 C26.20893972 -0.04513619 29.36008787 -0.05122846 32.51127434 -0.05726677 C39.94521685 -0.07130898 47.37904444 -0.06975285 54.81298828 -0.05836487 C62.47992354 -0.04687945 70.14650917 -0.06096691 77.81339836 -0.08776134 C84.39953512 -0.10991614 90.9855621 -0.11655637 97.57173347 -0.11068493 C101.50386047 -0.10731413 105.43576326 -0.10973859 109.36785889 -0.12693596 C113.06489467 -0.14240006 116.76141216 -0.13845613 120.45842743 -0.11963081 C122.46010645 -0.11418657 124.46180871 -0.12846244 126.46343994 -0.14332581 C127.65789734 -0.13349167 128.85235474 -0.12365753 130.08300781 -0.11352539 C131.63708847 -0.11321146 131.63708847 -0.11321146 133.2225647 -0.1128912 C136.78522319 0.51974551 138.46437328 1.89642872 141.04150391 4.38768005 C142.50446868 7.86222139 142.15425509 9.10848664 140.72900391 12.63768005 C139.04150391 15.38768005 139.04150391 15.38768005 137.04150391 16.38768005 C135.15246655 16.49200175 133.2597329 16.53157403 131.36784363 16.5415802 C129.55710106 16.5544809 129.55710106 16.5544809 127.70977783 16.56764221 C126.36486859 16.57207755 125.0199589 16.5763759 123.67504883 16.58055115 C122.26416318 16.58845138 120.85327956 16.59672028 119.44239807 16.60533142 C114.80227592 16.63155971 110.16214471 16.6468594 105.52197266 16.66111755 C103.92539273 16.66647682 102.32881286 16.67185433 100.73223305 16.67724991 C94.0916621 16.69887942 87.4510936 16.71761673 80.81049633 16.7288723 C71.28946822 16.74511556 61.76884796 16.77830125 52.24797362 16.83527315 C45.55576607 16.87395519 38.86366768 16.89350288 32.17135125 16.89879286 C28.17312775 16.90244863 24.17533917 16.91449307 20.17723656 16.9468956 C16.41537739 16.97694638 12.65421696 16.98329931 8.89226341 16.97151184 C7.51237383 16.97129085 6.13245211 16.97961719 4.7526741 16.99716568 C-6.97989512 17.1382497 -6.97989512 17.1382497 -10.29032898 13.98451233 C-11.99266186 11.33449428 -12.57582586 10.32473102 -12.08349609 7.26268005 C-12.00357422 6.60010193 -11.92365234 5.9375238 -11.84130859 5.25486755 C-9.5977039 0.50954435 -4.74027388 0.01111754 0 0 Z " fill="#000000" transform="translate(137.95849609375,292.61231994628906)"/>
<path d="M0 0 C1.1944574 -0.00990463 2.38891479 -0.01980927 3.61956787 -0.03001404 C4.92154114 -0.02551239 6.2235144 -0.02101074 7.56494141 -0.01637268 C8.95656889 -0.02207789 10.34819169 -0.02904274 11.73980713 -0.03717041 C15.51252132 -0.05509906 19.2850029 -0.05393423 23.05774689 -0.04822803 C26.20893972 -0.04513619 29.36008787 -0.05122846 32.51127434 -0.05726677 C39.94521685 -0.07130898 47.37904444 -0.06975285 54.81298828 -0.05836487 C62.47992354 -0.04687945 70.14650917 -0.06096691 77.81339836 -0.08776134 C84.39953512 -0.10991614 90.9855621 -0.11655637 97.57173347 -0.11068493 C101.50386047 -0.10731413 105.43576326 -0.10973859 109.36785889 -0.12693596 C113.06489467 -0.14240006 116.76141216 -0.13845613 120.45842743 -0.11963081 C122.46010645 -0.11418657 124.46180871 -0.12846244 126.46343994 -0.14332581 C127.65789734 -0.13349167 128.85235474 -0.12365753 130.08300781 -0.11352539 C131.63708847 -0.11321146 131.63708847 -0.11321146 133.2225647 -0.1128912 C136.78522319 0.51974551 138.46437328 1.89642872 141.04150391 4.38768005 C142.50446868 7.86222139 142.15425509 9.10848664 140.72900391 12.63768005 C139.04150391 15.38768005 139.04150391 15.38768005 137.04150391 16.38768005 C135.15246655 16.49200175 133.2597329 16.53157403 131.36784363 16.5415802 C129.55710106 16.5544809 129.55710106 16.5544809 127.70977783 16.56764221 C126.36486859 16.57207755 125.0199589 16.5763759 123.67504883 16.58055115 C122.26416318 16.58845138 120.85327956 16.59672028 119.44239807 16.60533142 C114.80227592 16.63155971 110.16214471 16.6468594 105.52197266 16.66111755 C103.92539273 16.66647682 102.32881286 16.67185433 100.73223305 16.67724991 C94.0916621 16.69887942 87.4510936 16.71761673 80.81049633 16.7288723 C71.28946822 16.74511556 61.76884796 16.77830125 52.24797362 16.83527315 C45.55576607 16.87395519 38.86366768 16.89350288 32.17135125 16.89879286 C28.17312775 16.90244863 24.17533917 16.91449307 20.17723656 16.9468956 C16.41537739 16.97694638 12.65421696 16.98329931 8.89226341 16.97151184 C7.51237383 16.97129085 6.13245211 16.97961719 4.7526741 16.99716568 C-6.97989512 17.1382497 -6.97989512 17.1382497 -10.29032898 13.98451233 C-11.99266186 11.33449428 -12.57582586 10.32473102 -12.08349609 7.26268005 C-12.00357422 6.60010193 -11.92365234 5.9375238 -11.84130859 5.25486755 C-9.5977039 0.50954435 -4.74027388 0.01111754 0 0 Z " fill="#000000" transform="translate(137.95849609375,223.61231994628906)"/>
<path d="M0 0 C1.1944574 -0.00990463 2.38891479 -0.01980927 3.61956787 -0.03001404 C4.92154114 -0.02551239 6.2235144 -0.02101074 7.56494141 -0.01637268 C8.95656889 -0.02207789 10.34819169 -0.02904274 11.73980713 -0.03717041 C15.51252132 -0.05509906 19.2850029 -0.05393423 23.05774689 -0.04822803 C26.20893972 -0.04513619 29.36008787 -0.05122846 32.51127434 -0.05726677 C39.94521685 -0.07130898 47.37904444 -0.06975285 54.81298828 -0.05836487 C62.47992354 -0.04687945 70.14650917 -0.06096691 77.81339836 -0.08776134 C84.39953512 -0.10991614 90.9855621 -0.11655637 97.57173347 -0.11068493 C101.50386047 -0.10731413 105.43576326 -0.10973859 109.36785889 -0.12693596 C113.06489467 -0.14240006 116.76141216 -0.13845613 120.45842743 -0.11963081 C122.46010645 -0.11418657 124.46180871 -0.12846244 126.46343994 -0.14332581 C127.65789734 -0.13349167 128.85235474 -0.12365753 130.08300781 -0.11352539 C131.63708847 -0.11321146 131.63708847 -0.11321146 133.2225647 -0.1128912 C136.78522319 0.51974551 138.46437328 1.89642872 141.04150391 4.38768005 C142.50446868 7.86222139 142.15425509 9.10848664 140.72900391 12.63768005 C139.04150391 15.38768005 139.04150391 15.38768005 137.04150391 16.38768005 C135.15246655 16.49200175 133.2597329 16.53157403 131.36784363 16.5415802 C129.55710106 16.5544809 129.55710106 16.5544809 127.70977783 16.56764221 C126.36486859 16.57207755 125.0199589 16.5763759 123.67504883 16.58055115 C122.26416318 16.58845138 120.85327956 16.59672028 119.44239807 16.60533142 C114.80227592 16.63155971 110.16214471 16.6468594 105.52197266 16.66111755 C103.92539273 16.66647682 102.32881286 16.67185433 100.73223305 16.67724991 C94.0916621 16.69887942 87.4510936 16.71761673 80.81049633 16.7288723 C71.28946822 16.74511556 61.76884796 16.77830125 52.24797362 16.83527315 C45.55576607 16.87395519 38.86366768 16.89350288 32.17135125 16.89879286 C28.17312775 16.90244863 24.17533917 16.91449307 20.17723656 16.9468956 C16.41537739 16.97694638 12.65421696 16.98329931 8.89226341 16.97151184 C7.51237383 16.97129085 6.13245211 16.97961719 4.7526741 16.99716568 C-6.97989512 17.1382497 -6.97989512 17.1382497 -10.29032898 13.98451233 C-11.99266186 11.33449428 -12.57582586 10.32473102 -12.08349609 7.26268005 C-12.00357422 6.60010193 -11.92365234 5.9375238 -11.84130859 5.25486755 C-9.5977039 0.50954435 -4.74027388 0.01111754 0 0 Z " fill="#000000" transform="translate(137.95849609375,154.61231994628906)"/>
<path d="M0 0 C1.21839569 -0.00845947 2.43679138 -0.01691895 3.69210815 -0.02563477 C5.04441967 -0.01980167 6.39672986 -0.01365715 7.7490387 -0.00723267 C9.1715485 -0.01129726 10.59405514 -0.01663851 12.01655579 -0.02316284 C15.88230442 -0.03685701 19.74781326 -0.03152891 23.61356616 -0.02202559 C27.65694504 -0.01443834 31.70030319 -0.02147213 35.74368286 -0.02618408 C42.53538199 -0.031645 49.32698332 -0.02444191 56.1186676 -0.01016235 C63.97184514 0.00615828 71.82478896 0.00088135 79.67796081 -0.01564157 C86.41775114 -0.02925474 93.1574711 -0.03117674 99.89727074 -0.02332556 C103.92380578 -0.01864726 107.95023097 -0.01802834 111.97675896 -0.02793503 C115.76316135 -0.03659977 119.54926248 -0.03059203 123.33563232 -0.01325226 C124.72558657 -0.00928447 126.11556616 -0.0104265 127.50551033 -0.01704025 C129.40226462 -0.02523354 131.2990743 -0.0131388 133.19580078 0 C134.25749701 0.00113108 135.31919325 0.00226215 136.4130621 0.00342751 C139.54441132 0.43356422 140.90548887 1.20178515 143.16139221 3.38095093 C144.2432069 6.31730508 144.261219 7.9616784 143.53639221 11.00595093 C141.79814151 14.00838395 140.25883224 14.84947851 137.16139221 16.38095093 C134.37368774 16.75847435 134.37368774 16.75847435 131.27882385 16.76190186 C129.51238022 16.77459106 129.51238022 16.77459106 127.71025085 16.78753662 C126.42697906 16.78146393 125.14370728 16.77539124 123.82154846 16.76913452 C122.44962649 16.77320184 121.0777078 16.77854463 119.70579529 16.7850647 C115.98678408 16.79872517 112.26802292 16.79344501 108.54900742 16.78392744 C104.65425195 16.77632423 100.75951767 16.78337829 96.86476135 16.78808594 C90.32460187 16.79354157 83.78454407 16.78635696 77.24440002 16.77206421 C69.68657692 16.75573801 62.12899661 16.76102666 54.57117939 16.77754343 C48.07846405 16.79116381 41.58582174 16.79307527 35.09309673 16.78522742 C31.21690581 16.78055392 27.34082895 16.7799171 23.46464539 16.78983688 C19.82020342 16.79851237 16.17607405 16.79247431 12.5316658 16.77515411 C10.55862608 16.76930467 8.58555987 16.77819988 6.61253357 16.78753662 C5.43490448 16.77907715 4.25727539 16.77061768 3.04396057 16.76190186 C2.02265549 16.76077078 1.0013504 16.7596397 -0.05090332 16.75847435 C-3.3328956 16.31401226 -5.18421439 15.33727575 -7.83860779 13.38095093 C-9.83860779 10.38095093 -9.83860779 10.38095093 -9.65110779 6.88095093 C-8.2432609 0.8163797 -6.02635123 0.00642245 0 0 Z " fill="#000000" transform="translate(135.83860778808594,327.6190490722656)"/>
<path d="M0 0 C1.10621201 -0.00365067 2.21242401 -0.00730133 3.35215759 -0.01106262 C7.00698214 -0.01916553 10.66136303 -0.00556049 14.31616211 0.0090332 C16.85534159 0.0095518 19.39452148 0.00903411 21.93370056 0.00752258 C27.25404347 0.00761229 32.5742308 0.01770122 37.89453125 0.03613281 C44.04247552 0.05730994 50.19023299 0.06080746 56.33820635 0.05457085 C62.25797173 0.04887361 68.1776809 0.05463131 74.09744072 0.0657444 C76.61448337 0.06959783 79.13153164 0.07074403 81.64857674 0.06915855 C85.16296274 0.06878842 88.67706308 0.08139349 92.19140625 0.09765625 C93.23515411 0.09517883 94.27890198 0.09270142 95.35427856 0.09014893 C96.31176498 0.09723373 97.2692514 0.10431854 98.25575256 0.11161804 C99.50149347 0.11469735 99.50149347 0.11469735 100.77240086 0.11783886 C103.28182506 0.40057409 104.8842223 1.06134091 107.03100586 2.37231445 C109.11259606 5.04864471 109.02688177 6.48985113 108.90600586 9.93481445 C108.03100586 13.37231445 108.03100586 13.37231445 106.27951717 15.06250763 C103.67399721 16.58027977 102.17725764 16.75350072 99.17982483 16.76672363 C97.71835274 16.78374832 97.71835274 16.78374832 96.22735596 16.80111694 C95.16490662 16.79818634 94.10245728 16.79525574 93.0078125 16.79223633 C91.88384567 16.80070587 90.75987885 16.80917542 89.60185242 16.81790161 C85.88150764 16.84132632 82.1615751 16.84229244 78.44116211 16.84106445 C75.85810682 16.84816256 73.27505313 16.85586103 70.69200134 16.86413574 C65.2757363 16.87759309 59.85963283 16.87932444 54.44335938 16.87329102 C48.18677698 16.86664968 41.93078407 16.88951863 35.67432123 16.92660475 C29.65039768 16.961014 23.62678705 16.96763769 17.60275078 16.96351624 C15.0418567 16.96521163 12.48095516 16.97489415 9.92012215 16.99266052 C6.34080176 17.01475995 2.76290866 17.00519236 -0.81640625 16.98754883 C-2.40704391 17.0074437 -2.40704391 17.0074437 -4.02981567 17.02774048 C-11.21394576 16.94533065 -11.21394576 16.94533065 -15.13819885 13.96716309 C-17.01489158 11.30726244 -17.60090423 10.40004794 -17.09399414 7.24731445 C-17.01407227 6.58473633 -16.93415039 5.9221582 -16.85180664 5.23950195 C-13.81296893 -1.18777428 -5.97631266 -0.04385171 0 0 Z " fill="#000000" transform="translate(142.968994140625,361.627685546875)"/>
<path d="M0 0 C0.99265869 -0.00845947 1.98531738 -0.01691895 3.00805664 -0.02563477 C4.09594482 -0.01956207 5.18383301 -0.01348938 6.3046875 -0.00723267 C8.02449829 -0.0151181 8.02449829 -0.0151181 9.77905273 -0.02316284 C13.57940178 -0.0363964 17.37933399 -0.02761254 21.1796875 -0.01748657 C23.8138029 -0.01950633 26.44791776 -0.02241695 29.08203125 -0.02618408 C34.60681701 -0.03164314 40.1314825 -0.02444618 45.65625 -0.01016235 C52.04506571 0.00616457 58.43359421 0.00087616 64.82240295 -0.01564157 C70.96643894 -0.03089112 77.1103475 -0.02928318 83.25439453 -0.02049637 C85.86995483 -0.01849084 88.48552243 -0.02096594 91.10107422 -0.02793503 C94.75247801 -0.03552828 98.40332531 -0.02397438 102.0546875 -0.00723267 C103.14257568 -0.01330536 104.23046387 -0.01937805 105.35131836 -0.02563477 C106.34397705 -0.01717529 107.33663574 -0.00871582 108.359375 0 C109.65464111 0.00169662 109.65464111 0.00169662 110.97607422 0.00342751 C113.69356998 0.46898937 114.54662762 1.18964568 116.1796875 3.38095093 C117.1171875 6.75595093 117.1171875 6.75595093 117.1796875 10.38095093 C115.09343411 13.80836722 114.0052564 15.1057613 110.1796875 16.38095093 C108.6555249 16.47412098 107.12762087 16.5115302 105.60061646 16.5146637 C104.19169128 16.52106117 104.19169128 16.52106117 102.75430298 16.52758789 C101.21134048 16.52690811 101.21134048 16.52690811 99.63720703 16.5262146 C98.00999725 16.53125252 98.00999725 16.53125252 96.34991455 16.53639221 C92.75409814 16.54591226 89.15832824 16.54784587 85.5625 16.54891968 C83.06769796 16.55213155 80.57289612 16.55549557 78.07809448 16.55900574 C72.84421486 16.56499966 67.61034708 16.56688813 62.37646484 16.56625366 C56.9988306 16.56571944 51.62126814 16.57276286 46.24365234 16.58676147 C39.75630128 16.60340956 33.2690148 16.61031002 26.78164291 16.60964394 C24.30728669 16.61082534 21.83292982 16.61525607 19.35858536 16.6229763 C15.89930028 16.63275874 12.44024571 16.6299049 8.98095703 16.62387085 C7.44406723 16.63230011 7.44406723 16.63230011 5.87612915 16.64089966 C4.93120605 16.63670517 3.98628296 16.63251068 3.01272583 16.62818909 C2.19530474 16.62873385 1.37788364 16.62927862 0.53569221 16.6298399 C-2.96359086 16.26017469 -5.93080993 15.47261317 -8.1953125 12.69345093 C-9.10879419 9.31356868 -8.61913513 6.76058515 -7.8203125 3.38095093 C-5.52226452 0.27087366 -3.77547728 0.00494534 0 0 Z " fill="#000000" transform="translate(134.8203125,189.61904907226563)"/>
<path d="M0 0 C3.62535141 1.647887 6.20557709 3.41115419 8 7 C8.70522322 11.58395095 8.64997503 14.90897048 6.25 18.9375 C3.56581879 21.39799944 1.50577225 22.89494612 -2.18359375 23.15234375 C-6.24176573 22.76551626 -8.57644741 22.29119241 -12 19.9375 C-14.50598534 16.25683403 -15.2955892 13.43383794 -15 9 C-13.7747927 5.39244516 -12.66935191 3.55779326 -9.75 1.125 C-6.23834029 -0.31158806 -3.76692609 -0.40359922 0 0 Z " fill="#000000" transform="translate(95,290)"/>
<path d="M0 0 C3.0717718 1.71077974 5.40485654 3.80971307 7 7 C7.3808347 11.57001644 7.36716728 14.13795508 5.5625 18.375 C2.09368084 21.92842451 -1.06638977 22.89721645 -6 23 C-9.77366792 21.67222795 -12.43287449 20.04891096 -15 17 C-16.48151613 12.34253912 -16.47064683 8.92448485 -14.25 4.5625 C-9.96757394 -0.31470745 -6.21408013 -1.06920289 0 0 Z " fill="#000000" transform="translate(96,221)"/>
<path d="M0 0 C3.0717718 1.71077974 5.40485654 3.80971307 7 7 C7.3808347 11.57001644 7.36716728 14.13795508 5.5625 18.375 C2.09368084 21.92842451 -1.06638977 22.89721645 -6 23 C-9.77366792 21.67222795 -12.43287449 20.04891096 -15 17 C-16.48151613 12.34253912 -16.47064683 8.92448485 -14.25 4.5625 C-9.96757394 -0.31470745 -6.21408013 -1.06920289 0 0 Z " fill="#000000" transform="translate(96,152)"/>
</svg>
