<?xml version="1.0" encoding="UTF-8"?>
<svg version="1.1" xmlns="http://www.w3.org/2000/svg" width="512" height="512">
<path d="M0 0 C5.50120357 3.16713221 10.08146563 7.17713764 13.5 12.5625 C13.87012371 14.22138436 14.20841774 15.88802436 14.5 17.5625 C15.21745832 17.55881283 15.93491665 17.55512566 16.67411613 17.55132675 C34.16078145 17.46284942 51.64738964 17.3967291 69.13422966 17.35525131 C77.59087049 17.33465793 86.04736156 17.30659932 94.50390625 17.26074219 C101.87776135 17.22077532 109.25150796 17.19504376 116.62546837 17.18614602 C120.52714039 17.18094786 124.4285021 17.16879837 128.33007431 17.13957977 C132.00893733 17.1122545 135.68736479 17.10408912 139.36631966 17.11006927 C141.34685472 17.10845903 143.3273433 17.08702633 145.30775452 17.06481934 C153.32596497 17.10155614 161.15532845 17.71041193 167.40789604 23.25408554 C172.97839735 29.15712081 174.95649985 35.52916017 174.87752342 43.5230093 C174.88188374 44.29858784 174.88624407 45.07416638 174.89073652 45.8732473 C174.90167666 48.46966781 174.89127665 51.06555549 174.88095093 53.66197205 C174.88440798 55.54322362 174.88917287 57.42447317 174.89513266 59.30571848 C174.9076658 64.47363088 174.90146169 69.64137726 174.89217401 74.80929029 C174.88539331 80.3833443 174.89585992 85.95736953 174.90411377 91.53141785 C174.917464 102.45062445 174.91456753 113.36976923 174.90587585 124.28897827 C174.89910445 133.16269989 174.89818023 142.03640418 174.9014473 150.91012764 C174.901907 152.17243415 174.90236669 153.43474067 174.90284032 154.73529889 C174.90379949 157.29955431 174.90477213 159.86380972 174.9057581 162.42806513 C174.91407184 185.79598323 174.90544552 209.16386166 174.88973031 232.53177207 C174.87549522 253.86096182 174.87676592 275.19009783 174.89111328 296.51928711 C174.90718005 320.48468575 174.91349014 344.4500508 174.90427649 368.41545683 C174.90332083 370.97065675 174.90237772 373.52585667 174.9014473 376.08105659 C174.90098447 377.33830027 174.90052164 378.59554394 174.90004479 379.8908859 C174.89745358 388.75435645 174.90182877 397.61780796 174.90888596 406.48127556 C174.91729674 417.28237673 174.91502971 428.08341249 174.89904372 438.88450616 C174.89115514 444.39633277 174.88807949 449.90805028 174.89799118 455.4198761 C174.90692638 460.46496152 174.90202445 465.50983665 174.88605852 470.55490298 C174.88270574 472.38052848 174.88441594 474.20617173 174.89168589 476.03178584 C174.90081086 478.51349287 174.89144933 480.99448001 174.87752342 483.47614956 C174.88454692 484.18471404 174.89157042 484.89327852 174.89880675 485.62331465 C174.82865906 491.87938208 173.10775882 496.90351426 169.875 502.25 C163.37291139 508.58098102 156.86686447 510.30468639 147.99487305 510.19360352 C146.48098244 510.20433647 146.48098244 510.20433647 144.93650818 510.21528625 C141.62777327 510.23208378 138.32040982 510.21282922 135.01171875 510.19140625 C132.70245756 510.19223544 130.39319644 510.19469672 128.0839386 510.19871521 C123.2581697 510.20156666 118.43286665 510.18692933 113.60717773 510.15942383 C107.41851097 510.12524695 101.23067161 510.13139751 95.04196453 510.1500864 C90.27990296 510.16064396 85.51803457 510.15173139 80.75599098 510.13670158 C78.47340277 510.13151664 76.19079442 510.13200534 73.90820885 510.13824654 C70.72441373 510.14368729 67.54181331 510.12336263 64.3581543 510.09594727 C63.414198 510.10247314 62.4702417 510.10899902 61.49768066 510.11572266 C55.15218252 510.02265402 55.15218252 510.02265402 51.88386536 507.71665955 C50.5 505.5625 50.5 505.5625 50.5 502.5625 C43.9 502.5625 37.3 502.5625 30.5 502.5625 C29.84 504.2125 29.18 505.8625 28.5 507.5625 C25.92264474 510.13985526 24.19116212 509.8088804 20.67808759 509.839311 C19.8567073 509.8362138 19.035327 509.8331166 18.1890564 509.82992554 C17.31911187 509.83445665 16.44916734 509.83898776 15.55286086 509.84365618 C12.62031118 509.85637686 9.68794541 509.85467487 6.75537109 509.85302734 C4.65970621 509.859008 2.56404354 509.86581247 0.46838379 509.87338257 C-5.23847621 509.89110147 -10.94527628 509.89574055 -16.65216112 509.89701414 C-21.4134028 509.89891011 -26.17463043 509.90626455 -30.93586671 509.91335833 C-42.17128162 509.92966388 -53.40666447 509.93452548 -64.64208984 509.93310547 C-76.23341803 509.93190492 -87.82455974 509.9529846 -99.41584074 509.9845928 C-109.36242952 510.01075001 -119.3089574 510.02147292 -129.25558031 510.02019465 C-135.19824095 510.01968466 -141.14073616 510.02538794 -147.08336258 510.04655075 C-152.67628449 510.06592248 -158.26888305 510.06606465 -163.86181641 510.05151749 C-165.91286059 510.04942666 -167.96392494 510.05414652 -170.01493454 510.0662384 C-172.81938696 510.08169872 -175.62272571 510.07237726 -178.42715454 510.05697632 C-179.23515051 510.06726344 -180.04314647 510.07755057 -180.87562716 510.08814943 C-187.38526603 510.00938385 -192.6020039 508.1136317 -197.5234375 503.78125 C-197.96945313 503.2140625 -198.41546875 502.646875 -198.875 502.0625 C-199.33648437 501.4953125 -199.79796875 500.928125 -200.2734375 500.34375 C-203.10862952 496.22640108 -203.75057531 493.34370498 -203.75447559 488.3002615 C-203.76030779 487.00529104 -203.76613998 485.71032058 -203.77214891 484.37610859 C-203.76851558 482.9357514 -203.7646912 481.49539468 -203.76069641 480.05503845 C-203.76371588 478.52754627 -203.76760433 477.0000556 -203.77228898 475.47256762 C-203.78260387 471.26878861 -203.78037832 467.06509455 -203.77610838 462.86130846 C-203.77364753 458.33025393 -203.78264725 453.7992202 -203.79014587 449.26817322 C-203.80291202 440.38962444 -203.80468425 431.51110587 -203.80234561 422.63254946 C-203.8005647 415.41918423 -203.80230719 408.20582819 -203.80657005 400.99246407 C-203.80716524 399.96698854 -203.80776043 398.941513 -203.80837366 397.88496246 C-203.80958536 395.80193579 -203.8107995 393.71890911 -203.81201603 391.63588244 C-203.82289861 372.09078557 -203.82072547 352.54570594 -203.81463119 333.00060809 C-203.80945936 315.10352215 -203.8207232 297.20649058 -203.83972941 279.30941539 C-203.85908014 260.94769762 -203.8673688 242.5860056 -203.86360615 224.22427756 C-203.86169016 213.90947369 -203.86422045 203.59471615 -203.87832069 193.27992058 C-203.89020017 184.50063196 -203.89167802 175.72141818 -203.87953053 166.94212859 C-203.87361806 162.45976567 -203.87260736 157.97753986 -203.88453293 153.49518585 C-203.89531163 149.39641337 -203.89238502 145.29789382 -203.87827124 141.19913358 C-203.87560207 139.71199576 -203.87805967 138.22483863 -203.88600711 136.73771965 C-203.89602254 134.72480029 -203.88595462 132.71181034 -203.87473011 130.69889736 C-203.87478513 129.57823264 -203.87484014 128.45756791 -203.87489682 127.30294365 C-203.5 124.5625 -203.5 124.5625 -202.16407937 122.74147516 C-200.5 121.5625 -200.5 121.5625 -197.5 120.5625 C-197.005 111.6525 -197.005 111.6525 -196.5 102.5625 C-198.15 101.9025 -199.8 101.2425 -201.5 100.5625 C-204.22168629 97.84081371 -203.77580337 96.33834491 -203.82226562 92.52734375 C-203.84148071 91.25842285 -203.8606958 89.98950195 -203.88049316 88.68212891 C-203.89019487 87.28809326 -203.89875112 85.89404924 -203.90625 84.5 C-203.91775985 83.06949865 -203.92927523 81.63899735 -203.9407959 80.20849609 C-203.96183029 77.2022966 -203.97350298 74.19620416 -203.98046875 71.18994141 C-203.99137883 67.36100701 -204.03929239 63.53351679 -204.09641266 59.70503235 C-204.13392366 56.74505704 -204.14409047 53.7854186 -204.1471405 50.82522583 C-204.1531476 49.41553949 -204.16904805 48.00585577 -204.19551086 46.59640503 C-204.3553902 37.41778126 -203.48463409 30.77576144 -197.5 23.5625 C-189.5508443 16.7972611 -180.77689756 17.27987572 -170.85375977 17.33544922 C-169.47343453 17.33601401 -168.0931087 17.33569544 -166.71278381 17.33456421 C-162.98185916 17.33399236 -159.25106413 17.34571942 -155.5201695 17.35971212 C-151.61509188 17.3722475 -147.71001102 17.37339219 -143.80491638 17.37576294 C-136.41735019 17.38196948 -129.02984346 17.39836907 -121.64230341 17.41846192 C-113.2287666 17.44084668 -104.8152269 17.45182082 -96.40166771 17.46185279 C-79.10107746 17.48273606 -61.80054503 17.51789591 -44.5 17.5625 C-44.19529785 16.78003906 -43.8905957 15.99757813 -43.57666016 15.19140625 C-40.6059482 7.93774947 -35.53858432 2.90065212 -28.5 -0.4375 C-19.44556923 -4.03376687 -8.8721435 -4.07486489 0 0 Z " fill="#020304" transform="translate(203.5,2.4375)"/>
<path d="M0 0 C1.22088821 0.00037766 2.44177643 0.00075531 3.69966125 0.00114441 C5.00815536 0.02695084 6.31664948 0.05275726 7.66479492 0.0793457 C9.02527057 0.08867883 10.38576309 0.09579259 11.7462616 0.1007843 C15.31577484 0.11981565 18.88426021 0.16888015 22.45336914 0.2243042 C26.09987484 0.27558192 29.74654772 0.29831633 33.39331055 0.32348633 C40.54021377 0.37700482 47.68642138 0.46226878 54.83276367 0.56762695 C54.88464844 1.46763428 54.9365332 2.3676416 54.98999023 3.29492188 C55.06701172 4.47159424 55.1440332 5.6482666 55.22338867 6.8605957 C55.29589844 8.02872803 55.3684082 9.19686035 55.44311523 10.40039062 C55.84480402 13.6654963 56.48613229 15.83465039 58.92260742 18.1574707 C67.683432 25.05176204 67.683432 25.05176204 78.02026367 28.38012695 C83.80163304 27.14803184 88.9579471 24.57145949 93.80541992 21.19262695 C94.47444336 20.98637695 95.1434668 20.78012695 95.83276367 20.56762695 C98.31323242 21.90356445 98.31323242 21.90356445 101.02026367 23.94262695 C105.269595 26.7755145 108.27306626 28.65864118 113.43823242 28.28637695 C117.75164921 26.99164826 121.3547851 24.44527883 125.03588867 21.90356445 C127.83276367 20.56762695 127.83276367 20.56762695 130.45385742 21.19262695 C132.60784239 22.43762319 134.62745116 23.73980194 136.64526367 25.19262695 C139.92861442 27.24472117 142.62325589 28.37124225 146.61791992 28.1418457 C150.55045715 27.12229901 153.88194227 25.00013388 157.31713867 22.88012695 C159.83276367 21.56762695 159.83276367 21.56762695 163.83276367 21.56762695 C166.12963867 22.88012695 166.12963867 22.88012695 168.58276367 24.56762695 C173.50992412 27.61639779 176.09232366 28.49350437 181.83276367 27.56762695 C184.70848928 26.53443212 187.22637949 25.15390946 189.83276367 23.56762695 C190.62424805 23.09711914 191.41573242 22.62661133 192.23120117 22.1418457 C196.67333663 19.3601201 199.41332394 17.32534509 201.83276367 12.56762695 C202.40224419 9.45245949 202.40224419 9.45245949 202.52026367 6.25512695 C202.61887695 4.65217773 202.61887695 4.65217773 202.71948242 3.0168457 C202.75686523 2.20860352 202.79424805 1.40036133 202.83276367 0.56762695 C210.71703233 0.47491043 218.6010729 0.40385436 226.48575211 0.36037827 C230.14702878 0.33951086 233.80793226 0.3112099 237.46899414 0.26586914 C241.00275078 0.22237933 244.53614866 0.19848347 248.07015228 0.18811798 C250.07327619 0.17713959 252.07625593 0.14591819 254.0791626 0.11444092 C255.30012634 0.11413879 256.52109009 0.11383667 257.77905273 0.11352539 C258.85382874 0.10464294 259.92860474 0.0957605 261.03594971 0.08660889 C264.61679183 0.70247028 265.59579183 1.74046454 267.83276367 4.56762695 C268.33416033 7.33608866 268.33416033 7.33608866 268.33612823 10.59281158 C268.34655922 11.83491441 268.35699021 13.07701724 268.36773729 14.35675955 C268.35908881 15.73747582 268.35006217 17.11818976 268.34069824 18.49890137 C268.34530569 19.96381326 268.35165756 21.42872054 268.35960722 22.89361811 C268.37634538 26.92454226 268.36803402 30.95508888 268.35566235 34.9860146 C268.34663242 39.33100937 268.36057132 43.67593805 268.37158203 48.0209198 C268.38939391 56.53487911 268.38551542 65.04869759 268.37393147 73.56266248 C268.36490789 80.48045153 268.36366848 87.39820103 268.36802673 94.31599426 C268.36863967 95.29955065 268.3692526 96.28310704 268.3698841 97.29646817 C268.37116297 99.29437412 268.37245982 101.29228006 268.37377447 103.29018599 C268.38518808 122.03654229 268.37205432 140.78282042 268.350573 159.5291639 C268.33270132 175.62389256 268.3358052 191.71850584 268.35424805 207.81323242 C268.37564097 226.49125936 268.38408937 245.16921775 268.37179899 263.84725523 C268.37052476 265.83792336 268.36926728 267.8285915 268.36802673 269.81925964 C268.36710108 271.28853416 268.36710108 271.28853416 268.36615673 272.78749099 C268.36269909 279.69914908 268.36854107 286.61076379 268.37794495 293.52241516 C268.38914879 301.9423156 268.38615897 310.36206683 268.36482197 318.78195012 C268.35428973 323.08017258 268.35022653 327.37814603 268.36341858 331.67636681 C268.37530362 335.60812323 268.36884487 339.53939891 268.34750837 343.47111148 C268.3430257 344.89635163 268.34534578 346.32163207 268.35501152 347.7468465 C268.36711211 349.67868413 268.35235126 351.61063491 268.33612823 353.54244232 C268.33547883 354.61716089 268.33482942 355.69187945 268.33416033 356.79916525 C267.70427137 360.27709722 266.62873334 361.46007644 263.83276367 363.56762695 C261.00949061 363.95195191 258.57966418 364.09151948 255.75897217 364.04864502 C254.52877991 364.05377157 254.52877991 364.05377157 253.27373528 364.05900168 C250.52189851 364.06559745 247.77103422 364.04357686 245.01928711 364.02172852 C243.04827904 364.0206004 241.07726929 364.02123319 239.10626221 364.02349854 C233.75115122 364.02464802 228.39639731 364.00110059 223.04136944 363.97320271 C217.44664499 363.94822821 211.85191271 363.94585017 206.25714111 363.94110107 C195.6607378 363.92865969 185.06449921 363.89582226 174.4681685 363.85570312 C162.4054506 363.81102165 150.34272492 363.78900748 138.2799449 363.76892138 C113.46412644 363.72709071 88.64845428 363.65671599 63.83276367 363.56762695 C63.83133865 362.80865112 63.82991364 362.04967529 63.82844543 361.2677002 C63.81055952 354.0883696 63.76878234 346.90975152 63.7006731 339.73073578 C63.66649234 336.04054255 63.6413072 332.35075936 63.63720703 328.66040039 C63.63290462 325.0938392 63.60428444 321.52820157 63.55933189 317.96192932 C63.54016611 315.95033587 63.54569537 313.93855563 63.55171204 311.92687988 C63.43882989 304.79710369 63.12877388 298.80079145 57.83276367 293.56762695 C53.91521593 290.76664485 51.17644305 290.18245614 46.39013672 290.13525391 C44.46871101 290.10556267 44.46871101 290.10556267 42.50846863 290.07527161 C41.12047472 290.06850285 39.73247922 290.06205587 38.34448242 290.0559082 C36.91671714 290.03905312 35.48896662 290.02090176 34.06123352 290.00151062 C30.31469334 289.95409398 26.56821303 289.92423108 22.82147217 289.89807129 C18.99373554 289.86822341 15.16620502 289.82170769 11.33862305 289.77661133 C3.83677238 289.69067323 -3.66509342 289.62328615 -11.16723633 289.56762695 C-11.28163598 253.47285164 -11.36976192 217.37810807 -11.42256298 181.28318884 C-11.42881664 177.02359044 -11.43528824 172.7639924 -11.44189453 168.50439453 C-11.44320608 167.65637149 -11.44451764 166.80834845 -11.44586893 165.93462773 C-11.46763612 152.19658137 -11.50706485 138.45863944 -11.55300031 124.72065506 C-11.59972846 110.62825279 -11.627524 96.53590527 -11.6376788 82.4434287 C-11.64454555 73.7448585 -11.66624711 65.04658344 -11.70681866 56.34810408 C-11.73321213 50.38634084 -11.74124507 44.42473058 -11.73474322 38.46291313 C-11.73153495 35.02116329 -11.73651401 31.57992978 -11.7632637 28.13827133 C-11.78803595 24.40864395 -11.78219752 20.68029297 -11.76850891 16.95063782 C-11.78307312 15.86017271 -11.79763733 14.7697076 -11.81264287 13.64619809 C-11.7398451 6.33925181 -11.7398451 6.33925181 -8.81197357 2.39376831 C-5.60580775 0.17997107 -3.87413828 -0.04010495 0 0 Z " fill="#F2F9FD" transform="translate(60.167236328125,88.432373046875)"/>
<path d="M0 0 C1.99301736 1.58066894 2.86543351 2.73086702 4 5 C4.01863926 6.7686586 4.03518121 8.53739555 4.03540039 10.30615234 C3.86798165 16.43734614 3.86798165 16.43734614 6.5625 21.5625 C8.55709537 22.40855904 8.55709537 22.40855904 10.66381836 23.01049805 C17.73183335 26.00419276 21.56766342 33.46172393 24.3359375 40.23828125 C25.1199858 42.23942231 25.87933157 44.24702859 26.62060547 46.2644043 C27.37327225 48.30780935 28.15843825 50.33631615 28.94921875 52.36523438 C34.55624057 67.1281567 35.30258804 80.90100599 35.31884766 96.54785156 C35.32815948 98.60871264 35.33832999 100.66956999 35.34928894 102.73042297 C35.37646164 108.29357665 35.39170042 113.85670518 35.40471697 119.41990757 C35.42040349 125.24552335 35.44717598 131.07108821 35.4727478 136.89666748 C35.51943814 147.91415603 35.5562293 158.93165427 35.58942068 169.94919086 C35.62771109 182.49823416 35.67710305 195.0472262 35.72740483 207.59622622 C35.83057968 233.39744609 35.91988687 259.19869893 36 285 C41.12384155 283.75665727 41.12384155 283.75665727 45.40635681 280.85005188 C47.38968511 277.30309193 47.55348183 274.3575063 47.49829102 270.39916992 C47.50380981 269.65051163 47.50932861 268.90185333 47.51501465 268.13050842 C47.52431467 266.51056219 47.5244563 264.89054283 47.51642036 263.27058983 C47.50376129 260.70104533 47.51510736 258.13257061 47.53245544 255.56306458 C47.55914838 251.03036177 47.5647518 246.49792183 47.56335449 241.96514893 C47.5611261 234.72145539 47.57540446 227.47808859 47.61894035 220.23452187 C47.62873143 217.71298975 47.62008443 215.1919769 47.61024475 212.67045593 C47.6163941 211.10997181 47.62330754 209.54949044 47.63110352 207.98901367 C47.62338425 207.2962735 47.61566498 206.60353333 47.60771179 205.88980103 C47.66385198 200.40600898 48.61559846 194.57848556 52.45192814 190.42988873 C57.01860047 186.55274644 59.96210703 185.62704618 65.80078125 185.73046875 C68 186 68 186 70.5625 187.5 C72.585607 191.01844696 72.95731374 194.04093978 72 198 C69.6875 200.5 69.6875 200.5 67 202 C66.01 202 65.02 202 64 202 C64.01110306 202.9675119 64.02220612 203.9350238 64.03364563 204.93185425 C64.13532342 214.08207568 64.21010943 223.2321814 64.25906086 232.38284111 C64.28507418 237.08652297 64.32031968 241.78974613 64.37719727 246.49316406 C64.43181393 251.03843777 64.4614826 255.58327231 64.47438622 260.12884903 C64.4835732 261.85671012 64.50151272 263.58454914 64.52865028 265.31222153 C64.68749528 275.85092853 64.60585795 284.98163283 57.02363586 293.12179565 C51.76032095 298.15521146 46.45780663 301.14127933 39.0625 301.1875 C37.70772411 301.14000368 36.35307462 301.0828413 35 301 C34.95875 302.299375 34.9175 303.59875 34.875 304.9375 C34.15815374 311.2497296 31.20042438 316.39517029 26.2578125 320.41796875 C20.05988215 324.23313921 13.40791324 324.15788321 6.3828125 324.16796875 C5.56682587 324.17129715 4.75083923 324.17462555 3.91012573 324.17805481 C2.1905778 324.18309774 0.47102016 324.18546395 -1.24853516 324.18530273 C-3.85986681 324.18748734 -6.47077427 324.20566583 -9.08203125 324.22460938 C-10.76041524 324.22754435 -12.43880121 324.22952845 -14.1171875 324.23046875 C-14.8882785 324.23765427 -15.65936951 324.24483978 -16.4538269 324.25224304 C-24.20762307 324.2200414 -30.76893284 322.95653069 -37 318 C-43.59632065 311.22044822 -43.29807844 303.3699798 -43.29052734 294.45263672 C-43.29724457 293.30872467 -43.30396179 292.16481262 -43.31088257 290.98623657 C-43.32983094 287.21734235 -43.33378455 283.44862634 -43.3359375 279.6796875 C-43.34236525 277.05608039 -43.3490936 274.43247401 -43.35610962 271.80886841 C-43.36887276 266.31641481 -43.371877 260.8240094 -43.37060547 255.33154297 C-43.369402 248.98808298 -43.39055342 242.64496207 -43.4220928 236.30158794 C-43.45140536 230.18745768 -43.45858153 224.07349023 -43.45738602 217.95929337 C-43.45974831 215.36211889 -43.46860695 212.76494198 -43.48405075 210.16781235 C-43.50360604 206.54111082 -43.49791406 202.91528936 -43.48583984 199.28857422 C-43.49707886 198.21416077 -43.50831787 197.13974731 -43.51989746 196.03277588 C-43.48201534 191.56391301 -43.41784147 188.75232092 -41.21963501 184.79446411 C-39 183 -39 183 -35 183 C-35 176.07 -35 169.14 -35 162 C-36.65 161.34 -38.3 160.68 -40 160 C-42.7242848 157.52349368 -42.98836312 156.10984556 -43.38095093 152.40403748 C-43.3987439 150.93930489 -43.39998413 149.4743146 -43.38818359 148.00952148 C-43.39344055 147.20730667 -43.39869751 146.40509186 -43.40411377 145.5785675 C-43.41731722 142.92587809 -43.40856877 140.27378934 -43.3984375 137.62109375 C-43.40045953 135.76986069 -43.40337204 133.91862841 -43.40713501 132.06739807 C-43.41155999 128.18279454 -43.40512687 124.29839784 -43.39111328 120.41381836 C-43.37410486 115.46001473 -43.38380823 110.50670175 -43.40183067 105.55291653 C-43.41273543 101.72563568 -43.40919024 97.89846866 -43.4014473 94.07118416 C-43.39945937 92.2465312 -43.40185457 90.42186759 -43.40888596 88.5972271 C-43.43781986 78.9699722 -43.35925976 70.15901122 -40 61 C-39.60562744 59.83170654 -39.21125488 58.66341309 -38.80493164 57.4597168 C-37.56510318 54.19925086 -36.32147454 50.94063034 -35.0625 47.6875 C-34.63259766 46.54732422 -34.20269531 45.40714844 -33.75976562 44.23242188 C-30.87377137 36.73058855 -28.25228248 30.59404982 -22.0625 25.25 C-21.41410156 24.67765625 -20.76570313 24.1053125 -20.09765625 23.515625 C-17.82569506 21.874059 -15.63332635 20.93425839 -13 20 C-12.97421875 18.89140625 -12.9484375 17.7828125 -12.921875 16.640625 C-12.86558344 15.17704453 -12.80823633 13.71350438 -12.75 12.25 C-12.72873047 11.15558594 -12.72873047 11.15558594 -12.70703125 10.0390625 C-12.54515848 6.47786163 -12.30482277 4.38908272 -10.078125 1.546875 C-6.33049717 -1.24271263 -4.54494586 -1.11304797 0 0 Z " fill="#010101" transform="translate(440,54)"/>
<path d="M0 0 C1.16665192 -0.00549866 2.33330383 -0.01099731 3.53530884 -0.0166626 C5.44934006 0.00490906 5.44934006 0.00490906 7.40203857 0.0269165 C8.76221686 0.02804506 10.12239759 0.02741096 11.48257446 0.02514648 C15.17251618 0.02399869 18.86193791 0.04751794 22.55175877 0.07544231 C26.4087873 0.1004454 30.26582773 0.10279709 34.1229248 0.10754395 C41.42567903 0.11997698 48.72819378 0.15280288 56.03084254 0.1929419 C64.34513262 0.23764953 72.65943413 0.25964409 80.97381449 0.27972364 C98.07600428 0.32153534 115.17796095 0.39189361 132.27996826 0.48101807 C132.27996826 3.78101807 132.27996826 7.08101807 132.27996826 10.48101807 C131.02506592 10.4871814 131.02506592 10.4871814 129.74481201 10.49346924 C126.60568766 10.52062805 123.46786387 10.56989951 120.32928467 10.63360596 C118.31696805 10.66788774 116.30427607 10.67722582 114.29168701 10.68609619 C106.96930517 10.85167769 100.63476163 11.00062044 95.27996826 16.48101807 C91.35498721 21.3016294 90.64891239 24.87637228 90.52996826 30.85601807 C90.48549561 31.9601001 90.48549561 31.9601001 90.44012451 33.08648682 C90.37008793 34.88409236 90.32268708 36.68255597 90.27996826 38.48101807 C89.50846436 38.48688431 88.73696045 38.49275055 87.94207764 38.49879456 C80.64514828 38.55687553 73.3485544 38.62903925 66.05192566 38.71673298 C62.30130188 38.76132048 58.5507838 38.80060145 54.79998779 38.82745361 C51.17525463 38.85360358 47.55093082 38.89408655 43.92645264 38.94420433 C42.5487378 38.96079454 41.17095229 38.97235742 39.79315186 38.97863197 C27.81303324 38.90187383 27.81303324 38.90187383 17.29168701 44.05914307 C16.85469482 44.61086182 16.41770264 45.16258057 15.96746826 45.73101807 C15.51758545 46.27242432 15.06770264 46.81383057 14.60418701 47.37164307 C10.16466223 54.44345246 9.84815516 60.22339532 9.89228821 68.44380188 C9.88690267 69.64611385 9.88151713 70.84842583 9.8759684 72.08717149 C9.86415981 75.41200939 9.86574926 78.73634441 9.87313521 82.06116211 C9.87787158 85.65153131 9.86535304 89.2418471 9.8551178 92.8321991 C9.83793484 99.86047873 9.83708856 106.88866894 9.8423307 113.91696412 C9.84637382 119.62899785 9.84492717 125.34100517 9.83958244 131.05303764 C9.83845981 132.2729508 9.83845981 132.2729508 9.8373145 133.51750867 C9.83578301 135.16970155 9.83424467 136.82189442 9.83269953 138.47408729 C9.81897684 153.96189445 9.82441103 169.44965107 9.83588474 184.93745708 C9.84582155 199.10763486 9.83286833 213.27768215 9.80895055 227.4478398 C9.78457241 242.00040368 9.77494822 256.55290674 9.78160328 271.10549062 C9.78509776 279.27469678 9.7828481 287.44380252 9.76535225 295.61299324 C9.75064652 302.56556062 9.74997362 309.51795683 9.76742316 316.4705208 C9.77594822 320.01766175 9.77804629 323.5644967 9.76277161 327.11162186 C9.74642036 330.95631135 9.76104221 334.80052629 9.77876282 338.6452179 C9.76915781 339.76690481 9.7595528 340.88859172 9.74965674 342.04426914 C9.80685682 348.0575467 10.1526354 351.76999357 14.27996826 356.48101807 C14.81677027 357.09995343 15.35357227 357.7188888 15.90664101 358.35657978 C16.70470445 359.15382607 16.70470445 359.15382607 17.51889038 359.96717834 C18.13573196 360.58821442 18.75257355 361.20925049 19.3881073 361.84910583 C20.05318802 362.50856705 20.71826874 363.16802826 21.40350342 363.84747314 C22.11288559 364.55875366 22.82226776 365.27003418 23.55314636 366.00286865 C25.88692446 368.34033597 28.22779686 370.67055175 30.56903076 373.00054932 C32.19556538 374.62589134 33.82172998 376.25160374 35.44754028 377.87767029 C38.8488829 381.27745142 42.25355163 384.67385354 45.66082764 388.06768799 C50.0353681 392.42519181 54.40324943 396.78929697 58.76889992 401.15570545 C62.12279866 404.50933284 65.47929283 407.86035208 68.83668137 411.21048546 C70.44888791 412.81950367 72.06048408 414.42913371 73.67146683 416.03937721 C75.91687797 418.28262923 78.16554519 420.52256278 80.41522217 422.76153564 C81.41891594 423.76590919 81.41891594 423.76590919 82.44288635 424.79057312 C83.05408829 425.39751007 83.66529022 426.00444702 84.29501343 426.629776 C84.82630167 427.1593884 85.35758991 427.6890008 85.9049778 428.23466206 C89.29626825 431.30868718 93.22658489 430.63541215 97.53948975 430.64164734 C98.40393959 430.64673516 99.26838943 430.65182298 100.15903473 430.65706497 C103.07304217 430.67283581 105.98702473 430.68132682 108.90106201 430.6897583 C110.98362894 430.69929325 113.06619426 430.70918425 115.14875793 430.71940613 C122.00497548 430.75084039 128.86120533 430.77106718 135.71746826 430.78961182 C137.46660019 430.7945578 137.46660019 430.7945578 139.25106812 430.7996037 C150.24782213 430.83039287 161.24457883 430.85710328 172.24136353 430.87402248 C186.31017744 430.89592069 200.37860925 430.93786393 214.44727039 431.00746006 C224.33697964 431.0547216 234.2265859 431.0789592 244.11640453 431.08621937 C250.02347629 431.09117345 255.93011781 431.10623133 261.83706665 431.14596367 C267.39889315 431.18287955 272.9600446 431.19122307 278.52197075 431.17795753 C280.55929708 431.17801141 282.59665368 431.18827575 284.63386726 431.20970917 C298.08677991 431.57015819 298.08677991 431.57015819 310.3303833 426.64791965 C317.4989975 418.6802333 318.00452469 411.18350788 317.9216156 400.76106262 C317.92810009 399.27135846 317.93675802 397.78166245 317.9473899 396.29198211 C317.97013378 392.21546958 317.96184506 388.13953008 317.94825065 384.06299865 C317.93897909 379.66001356 317.9584981 375.25714076 317.97422791 370.85418701 C318.00029494 362.23527667 317.99923288 353.61657507 317.98818972 344.99764032 C317.97962581 337.99134156 317.98046642 330.98510313 317.98798561 323.97880363 C317.9890405 322.98100487 317.99009539 321.9832061 317.99118224 320.955171 C317.99335321 318.9280451 317.99553998 316.90091922 317.99774239 314.87379336 C318.0171658 295.87160664 318.00518054 276.86953695 317.98295645 257.86735981 C317.96470719 241.57044574 317.97560828 225.27375824 318.00726318 208.97686768 C318.04403724 190.04346549 318.06104345 171.11020479 318.04785091 152.17676681 C318.04650983 150.15686065 318.04520085 148.13695447 318.04392433 146.11704826 C318.04329367 145.12326647 318.042663 144.12948467 318.04201322 143.10558828 C318.03898788 136.11000218 318.05023789 129.11452295 318.06717491 122.11895943 C318.08751312 113.59023366 318.08661 105.06182757 318.05854251 96.53311843 C318.04478258 92.18337679 318.04055801 87.83419297 318.06249237 83.48447227 C318.08232544 79.49874077 318.0742222 75.51405685 318.04429803 71.52839731 C318.03831393 70.09041465 318.04233984 68.65234616 318.05766126 67.21443266 C318.14650787 58.21694386 317.24724245 51.50229214 311.27996826 44.48101807 C304.22049073 38.42693813 296.31584572 38.74470498 287.40106201 38.77398682 C285.979008 38.76084857 284.55697257 38.74553787 283.13496399 38.72816467 C279.42121403 38.68854902 275.70795482 38.6781396 271.99401855 38.6741333 C268.19270155 38.66475715 264.3916676 38.62731606 260.59051514 38.59234619 C253.15366332 38.52800973 245.71710461 38.49457384 238.27996826 38.48101807 C238.23170898 37.45258789 238.18344971 36.42415771 238.13372803 35.36456299 C238.05924588 34.0010119 237.98426856 32.63748779 237.90887451 31.27398682 C237.87846069 30.59783325 237.84804688 29.92167969 237.81671143 29.22503662 C237.48610587 23.53896729 236.40293897 19.48523887 232.27996826 15.48101807 C224.97164966 10.61760027 217.8723231 10.82358996 209.27996826 10.73101807 C207.91925396 10.70281169 206.55857432 10.67287785 205.19793701 10.64117432 C201.89188841 10.57083286 198.58653065 10.51795578 195.27996826 10.48101807 C195.27996826 7.18101807 195.27996826 3.88101807 195.27996826 0.48101807 C236.52996826 0.48101807 277.77996826 0.48101807 320.27996826 0.48101807 C320.34607312 55.41313735 320.40147771 110.3452192 320.43316425 165.27736685 C320.43691649 171.75882488 320.44079944 178.24028282 320.44476318 184.72174072 C320.44555011 186.01211244 320.44633705 187.30248416 320.44714782 188.63195805 C320.46021089 209.54066433 320.48386969 230.44934592 320.51142665 251.35803755 C320.53945579 272.80344031 320.55613924 294.24883013 320.56223375 315.69425046 C320.56635536 328.93311396 320.57938517 342.17190769 320.60371766 355.41074972 C320.6195441 364.48229414 320.62437564 373.55380237 320.62047239 382.62535961 C320.61854603 387.86349005 320.62155225 393.10149837 320.63758469 398.33960724 C320.65214794 403.13258163 320.6529439 407.92535141 320.64266495 412.71833508 C320.64139391 414.45463903 320.64522968 416.19095557 320.65461781 417.9272346 C320.66662134 420.28375032 320.66019026 422.63952314 320.64911175 424.99602699 C320.65082049 426.9610797 320.65082049 426.9610797 320.65256375 428.96583045 C320.10785595 434.10478185 318.54469654 437.33967791 314.71746826 440.79351807 C311.14389438 443.26753075 309.35125959 443.60575274 305.03631401 443.6040659 C303.91764533 443.60605694 302.79897665 443.60804799 301.64640892 443.61009938 C300.40713114 443.60718653 299.16785337 443.60427369 297.89102173 443.60127258 C296.58257612 443.60212701 295.27413052 443.60298143 293.92603505 443.60386175 C290.28203917 443.6061064 286.63807247 443.60208582 282.99408031 443.59708369 C279.06906174 443.59277896 275.14404492 443.59422563 271.21902466 443.59498596 C264.41461673 443.59551118 257.61021836 443.59236458 250.80581284 443.58674812 C240.96769552 443.57863287 231.12958285 443.57601788 221.29146256 443.57476013 C205.33108553 443.57256965 189.37071361 443.56590967 173.41033936 443.55645752 C157.90317816 443.5472833 142.39601834 443.54020251 126.88885498 443.53594971 C125.93354184 443.53568698 124.9782287 443.53542426 123.99396668 443.53515358 C119.20160516 443.53384857 114.40924363 443.53258485 109.61688209 443.53134167 C69.83790724 443.52096919 30.05893809 443.50335098 -9.72003174 443.48101807 C-9.72062883 442.73945188 -9.72122591 441.99788569 -9.7218411 441.2338478 C-9.75770627 397.31860007 -9.81430082 353.40342123 -9.89795269 309.48823718 C-9.90797059 304.21963643 -9.91781465 298.95103536 -9.92755127 293.68243408 C-9.93046333 292.1090558 -9.93046333 292.1090558 -9.93343422 290.5038921 C-9.96448658 273.50219065 -9.98144389 256.50050272 -9.99322596 239.49877825 C-10.00562078 222.06376378 -10.03308431 204.62882041 -10.0746448 187.19385082 C-10.09982812 176.42862712 -10.1131455 165.66352129 -10.11146131 154.89826772 C-10.11143164 147.52409788 -10.12598974 140.15004843 -10.15219602 132.77592548 C-10.16689748 128.51634312 -10.1749978 124.25700765 -10.16583443 119.9974041 C-10.15759575 116.10191627 -10.16756781 112.20692623 -10.19236836 108.31151257 C-10.19808965 106.89828977 -10.19697885 105.48502037 -10.18854418 104.07181116 C-10.17809835 102.15850589 -10.19439682 100.24510938 -10.21222305 98.33185863 C-10.21374193 97.26674311 -10.21526082 96.20162758 -10.21682572 95.10423583 C-10.4827086 92.37005872 -10.4827086 92.37005872 -12.56426978 90.67784053 C-14.79096579 89.3551502 -14.79096579 89.3551502 -17.72003174 88.48101807 C-17.72003174 82.21101807 -17.72003174 75.94101807 -17.72003174 69.48101807 C-14.75003174 68.49101807 -14.75003174 68.49101807 -11.72003174 67.48101807 C-10.2365905 64.46306986 -10.5894415 60.99713517 -10.57818604 57.67437744 C-10.57115158 56.50636597 -10.56411713 55.33835449 -10.55686951 54.13494873 C-10.55270523 52.87758911 -10.54854095 51.62022949 -10.54425049 50.32476807 C-10.52699533 48.34720188 -10.50971682 46.36963556 -10.49104786 44.39208221 C-10.44550337 39.51827238 -10.4076897 34.64458018 -10.394104 29.77056885 C-10.38597579 27.03342567 -10.36742923 24.2967415 -10.33717346 21.55975342 C-10.30896915 18.98232266 -10.29612132 16.4046695 -10.30003357 13.8270874 C-10.28354263 12.65907593 -10.2670517 11.49106445 -10.25006104 10.28765869 C-10.24419479 9.26047729 -10.23832855 8.2332959 -10.23228455 7.17498779 C-9.13100488 1.3832888 -5.47076087 -0.01989368 0 0 Z " fill="#7FB2F9" transform="translate(24.72003173828125,35.51898193359375)"/>
<path d="M0 0 C2.08268593 -0.08126087 4.16628658 -0.13930839 6.25 -0.1875 C7.99023438 -0.23970703 7.99023438 -0.23970703 9.765625 -0.29296875 C13 0 13 0 15.3905893 1.04602814 C17.79309973 3.96289565 17.54901226 6.83882627 17.50057125 10.4510498 C17.5088425 11.6046764 17.5088425 11.6046764 17.51728085 12.78160858 C17.53096597 15.38011582 17.51593109 17.97768126 17.50120544 20.57617188 C17.50509509 22.44928663 17.51073282 24.32239845 17.51797634 26.19550323 C17.53279734 31.35935198 17.52251048 36.52289785 17.50823963 41.68673706 C17.49717132 47.24918148 17.50905866 52.81158195 17.51808167 58.37402344 C17.53204447 69.27741554 17.52443554 80.18069215 17.50940608 91.08407879 C17.49258178 103.77044086 17.49575171 116.45677388 17.49950016 129.14314365 C17.50556224 152.4568012 17.48975478 175.77039278 17.46431253 199.08403075 C17.44119646 220.37895656 17.43580882 241.67381447 17.44604492 262.96875 C17.44864681 268.42126462 17.45123178 273.87377924 17.45364285 279.32629395 C17.45394029 279.9975056 17.45423774 280.66871725 17.4545442 281.36026865 C17.46215442 299.13977608 17.45569204 316.9192786 17.44494683 334.69878387 C17.44342092 337.24637349 17.44190056 339.79396311 17.44038582 342.34155273 C17.439628 343.5951517 17.43887019 344.84875066 17.43808941 346.14033747 C17.43333853 354.99208237 17.43520371 363.84381197 17.43945122 372.69555664 C17.44436828 383.47677348 17.43843652 394.25791998 17.41855692 405.03912067 C17.40865749 410.54422138 17.40360827 416.04921479 17.41144943 421.55432129 C17.41847207 426.58759081 17.41178223 431.62064318 17.3938458 436.65388393 C17.389779 438.4808839 17.39083819 440.30790344 17.39736467 442.13489628 C17.40544248 444.60651193 17.39529208 447.07738294 17.38031673 449.5489502 C17.38705439 450.26858444 17.39379204 450.98821869 17.40073386 451.72966003 C17.34394017 456.53202899 17.34394017 456.53202899 15.6012302 458.90319061 C11.57533787 461.66084313 7.55549821 461.1446068 2.84033203 461.1418457 C1.41575684 461.14705734 1.41575684 461.14705734 -0.03759766 461.15237427 C-2.10452562 461.15973807 -4.17146153 461.16508012 -6.23839951 461.16866493 C-9.50780449 461.17581541 -12.77705809 461.19147083 -16.04641724 461.21000671 C-25.34358661 461.26254683 -34.64067361 461.31047406 -43.93798828 461.32592773 C-49.62034577 461.33599346 -55.30232368 461.36528229 -60.9845314 461.40724754 C-63.15266172 461.41958264 -65.32084559 461.42467425 -67.48900986 461.42244911 C-70.52026817 461.42010356 -73.55043223 461.44220612 -76.58154297 461.4699707 C-77.48039215 461.46336929 -78.37924133 461.45676788 -79.30532837 461.44996643 C-84.26075101 461.50173595 -84.26075101 461.50173595 -88.52615356 463.84562683 C-90.16001359 466.02227272 -90.16001359 466.02227272 -91 469 C-97.6 469 -104.2 469 -111 469 C-111.66 470.65 -112.32 472.3 -113 474 C-115.57735526 476.57735526 -117.30883788 476.2463804 -120.82191241 476.276811 C-122.05398285 476.2721652 -122.05398285 476.2721652 -123.3109436 476.26742554 C-124.6158604 476.27422221 -124.6158604 476.27422221 -125.94713914 476.28115618 C-128.87968882 476.29387686 -131.81205459 476.29217487 -134.74462891 476.29052734 C-136.84029379 476.296508 -138.93595646 476.30331247 -141.03161621 476.31088257 C-146.73847621 476.32860147 -152.44527628 476.33324055 -158.15216112 476.33451414 C-162.9134028 476.33641011 -167.67463043 476.34376455 -172.43586671 476.35085833 C-183.67128162 476.36716388 -194.90666447 476.37202548 -206.14208984 476.37060547 C-217.73341803 476.36940492 -229.32455974 476.3904846 -240.91584074 476.4220928 C-250.86242952 476.44825001 -260.8089574 476.45897292 -270.75558031 476.45769465 C-276.69824095 476.45718466 -282.64073616 476.46288794 -288.58336258 476.48405075 C-294.17628449 476.50342248 -299.76888305 476.50356465 -305.36181641 476.48901749 C-307.41286059 476.48692666 -309.46392494 476.49164652 -311.51493454 476.5037384 C-314.31938696 476.51919872 -317.12272571 476.50987726 -319.92715454 476.49447632 C-320.73515051 476.50476344 -321.54314647 476.51505057 -322.37562716 476.52564943 C-328.88526603 476.44688385 -334.1020039 474.5511317 -339.0234375 470.21875 C-339.46945312 469.6515625 -339.91546875 469.084375 -340.375 468.5 C-340.83648437 467.9328125 -341.29796875 467.365625 -341.7734375 466.78125 C-344.60862952 462.66390108 -345.25057531 459.78120498 -345.25447559 454.7377615 C-345.26030779 453.44279104 -345.26613998 452.14782058 -345.27214891 450.81360859 C-345.26851558 449.3732514 -345.2646912 447.93289468 -345.26069641 446.49253845 C-345.26371588 444.96504627 -345.26760433 443.4375556 -345.27228898 441.91006762 C-345.28260387 437.70628861 -345.28037832 433.50259455 -345.27610838 429.29880846 C-345.27364753 424.76775393 -345.28264725 420.2367202 -345.29014587 415.70567322 C-345.30291202 406.82712444 -345.30468425 397.94860587 -345.30234561 389.07004946 C-345.3005647 381.85668423 -345.30230719 374.64332819 -345.30657005 367.42996407 C-345.30716524 366.40448854 -345.30776043 365.379013 -345.30837366 364.32246246 C-345.30958536 362.23943579 -345.3107995 360.15640911 -345.31201603 358.07338244 C-345.32289861 338.52828557 -345.32072547 318.98320594 -345.31463119 299.43810809 C-345.30945936 281.54102215 -345.3207232 263.64399058 -345.33972941 245.74691539 C-345.35908014 227.38519762 -345.3673688 209.0235056 -345.36360615 190.66177756 C-345.36169016 180.34697369 -345.36422045 170.03221615 -345.37832069 159.71742058 C-345.39020017 150.93813196 -345.39167802 142.15891818 -345.37953053 133.37962859 C-345.37361806 128.89726567 -345.37260736 124.41503986 -345.38453293 119.93268585 C-345.39531163 115.83391337 -345.39238502 111.73539382 -345.37827124 107.63663358 C-345.37560207 106.14949576 -345.37805967 104.66233863 -345.38600711 103.17521965 C-345.39602254 101.16230029 -345.38595462 99.14931034 -345.37473011 97.13639736 C-345.37478513 96.01573264 -345.37484014 94.89506791 -345.37489682 93.74044365 C-345 91 -345 91 -343.58986062 89.17116266 C-341.58631456 87.69526075 -340.50784979 87.1433057 -338 87 C-334.79033355 88.34805991 -332.46598569 89.53401431 -330 92 C-329.75160301 94.49901927 -329.75160301 94.49901927 -329.75390434 97.72779274 C-329.74992225 98.95444668 -329.74594015 100.18110063 -329.74183738 101.4449259 C-329.7475442 102.81856016 -329.75343541 104.19219366 -329.75949097 105.56582642 C-329.75861956 107.01535822 -329.75686978 108.46488972 -329.75431263 109.91441953 C-329.74982231 113.91189321 -329.75786578 117.90926052 -329.76786876 121.90672064 C-329.77647682 126.2121109 -329.77358498 130.51749479 -329.77206421 134.82289124 C-329.77101368 142.28701838 -329.77730781 149.75111066 -329.78853989 157.21522903 C-329.80476919 168.00718959 -329.81000025 178.79913323 -329.81251587 189.59110467 C-329.81689702 207.09883195 -329.83021748 224.60654063 -329.84912109 242.11425781 C-329.86746905 259.12499905 -329.88163085 276.13573524 -329.89013672 293.14648438 C-329.89066217 294.19439438 -329.89118761 295.24230438 -329.89172898 296.32196923 C-329.89433899 301.57883694 -329.89686642 306.83570468 -329.89935279 312.09257245 C-329.92009836 355.72839452 -329.95533528 399.3641963 -330 443 C-289.33597171 442.96402065 -248.6720221 442.90711367 -208.00806548 442.82207905 C-203.20899058 442.81206141 -198.40991533 442.80221731 -193.61083984 442.79248047 C-192.65541698 442.7905391 -191.69999411 442.78859772 -190.71561904 442.78659752 C-175.23881157 442.7555634 -159.76201894 442.73859293 -144.28518622 442.72680578 C-128.40844064 442.71440153 -112.531773 442.68691657 -96.65507662 442.64538693 C-86.8556715 442.62023071 -77.0563956 442.60688427 -67.25695772 442.60857043 C-60.54013579 442.60860015 -53.82344566 442.59400177 -47.10667507 442.56783572 C-43.22948921 442.55316564 -39.35257364 442.54500731 -35.47536469 442.55419731 C-31.27330641 442.5639889 -27.07196534 442.54300903 -22.8699646 442.51898193 C-21.64233819 442.52674235 -20.41471179 442.53450277 -19.14988458 442.54249835 C-10.81450929 442.49610632 -10.81450929 442.49610632 -4 438 C-1.18808376 433.3646355 -0.62304654 429.90211426 -0.61523914 424.51500893 C-0.61008924 423.77870843 -0.60493933 423.04240793 -0.59963337 422.2837953 C-0.58601089 419.81505354 -0.59370042 417.34684329 -0.60127258 414.87808228 C-0.59583362 413.09098585 -0.58908227 411.30389302 -0.58113068 409.51680601 C-0.56307779 404.60484037 -0.56366583 399.69302571 -0.56726015 394.78103471 C-0.56788315 389.48454222 -0.55127189 384.18810076 -0.53674316 378.89163208 C-0.51393384 369.71474456 -0.50206803 360.53789506 -0.49761391 351.36098099 C-0.4911582 338.09267799 -0.468231 324.82444379 -0.44127061 311.55616848 C-0.39797816 290.02980558 -0.36802544 268.50344558 -0.34643555 246.97705078 C-0.32543323 226.06492694 -0.29816465 205.15282677 -0.26245117 184.24072266 C-0.26025235 182.95191691 -0.25805352 181.66311116 -0.25578807 180.33525069 C-0.2447186 173.86975554 -0.23352576 167.4042606 -0.22227156 160.93876576 C-0.12905165 107.29253145 -0.05746981 53.6462837 0 0 Z " fill="#61A1F8" transform="translate(345,36)"/>
<path d="M0 0 C3.58305992 -0.11627503 7.16563417 -0.1872736 10.75 -0.25 C11.76578125 -0.28351563 12.7815625 -0.31703125 13.828125 -0.3515625 C14.8078125 -0.36445312 15.7875 -0.37734375 16.796875 -0.390625 C17.69760742 -0.41157227 18.59833984 -0.43251953 19.52636719 -0.45410156 C22.8856999 0.16259394 24.00687485 1.25239088 26 4 C26.50139666 6.7684617 26.50139666 6.7684617 26.50336456 10.02518463 C26.51379555 11.26728746 26.52422654 12.50939029 26.53497362 13.7891326 C26.52632514 15.16984887 26.5172985 16.55056281 26.50793457 17.93127441 C26.51254202 19.39618631 26.51889389 20.86109358 26.52684355 22.32599115 C26.5435817 26.35691531 26.53527035 30.38746192 26.52289867 34.41838765 C26.51386875 38.76338242 26.52780765 43.1083111 26.53881836 47.45329285 C26.55663023 55.96725216 26.55275175 64.48107064 26.5411678 72.99503553 C26.53214422 79.91282457 26.5309048 86.83057407 26.53526306 93.74836731 C26.53587599 94.7319237 26.53648893 95.71548009 26.53712043 96.72884122 C26.5383993 98.72674717 26.53969615 100.72465311 26.5410108 102.72255903 C26.55242441 121.46891533 26.53929064 140.21519346 26.51780933 158.96153694 C26.49993764 175.05626561 26.50304153 191.15087889 26.52148438 207.24560547 C26.5428773 225.92363241 26.5513257 244.6015908 26.53903532 263.27962828 C26.53776109 265.2702964 26.53650361 267.26096454 26.53526306 269.25163269 C26.53433741 270.72090721 26.53433741 270.72090721 26.53339306 272.21986404 C26.52993542 279.13152213 26.5357774 286.04313684 26.54518127 292.95478821 C26.55638512 301.37468865 26.5533953 309.79443988 26.5320583 318.21432316 C26.52152606 322.51254563 26.51746285 326.81051908 26.53065491 331.10873985 C26.54253995 335.04049628 26.53608119 338.97177196 26.5147447 342.90348452 C26.51026203 344.32872468 26.51258211 345.75400512 26.52224785 347.17921954 C26.53434843 349.11105718 26.51958759 351.04300796 26.50336456 352.97481537 C26.50271515 354.04953393 26.50206574 355.1242525 26.50139666 356.2315383 C25.8715077 359.70947027 24.79596966 360.89244949 22 363 C19.17672694 363.38432496 16.74690051 363.52389252 13.9262085 363.48101807 C13.10608032 363.48443577 12.28595215 363.48785347 11.44097161 363.49137473 C8.68913483 363.4979705 5.93827055 363.47594991 3.18652344 363.45410156 C1.21551537 363.45297345 -0.75549438 363.45360624 -2.72650146 363.45587158 C-8.08161245 363.45702107 -13.43636636 363.43347364 -18.79139423 363.40557575 C-24.38611868 363.38060126 -29.98085097 363.37822322 -35.57562256 363.37347412 C-46.17202587 363.36103273 -56.76826446 363.32819531 -67.36459517 363.28807616 C-79.42731307 363.2433947 -91.49003875 363.22138052 -103.55281878 363.20129442 C-128.36864033 363.15946376 -153.184304 363.08828501 -178 363 C-178 354.42 -178 345.84 -178 337 C-174.88170242 336.99120064 -174.88170242 336.99120064 -171.70040894 336.98222351 C-152.12972505 336.92558242 -132.55915187 336.852516 -112.98858452 336.76428509 C-102.92664512 336.71931806 -92.86474119 336.67990546 -82.80273438 336.65356445 C-74.03276738 336.63059175 -65.26291254 336.59720182 -56.49303448 336.55129844 C-51.84937253 336.52735644 -47.20582173 336.50863406 -42.56209946 336.50238609 C-38.1904988 336.49633967 -33.81918254 336.47635584 -29.44768715 336.44572449 C-27.8441204 336.43693717 -26.2405165 336.43322312 -24.63692665 336.43499184 C-22.44478733 336.43664616 -20.2535134 336.41993308 -18.06149292 336.39872742 C-16.83550825 336.39411845 -15.60952358 336.38950949 -14.34638786 336.38476086 C-9.74851258 335.85610653 -6.31678764 334.45300705 -3.1875 331 C-1.07928628 327.44932426 -0.87219414 324.58081796 -0.8613348 320.5395937 C-0.85586036 319.39803359 -0.85038591 318.25647349 -0.84474558 317.08032066 C-0.84376747 315.82061004 -0.84278936 314.56089942 -0.84178162 313.26301575 C-0.83721702 311.91574016 -0.83221715 310.56846599 -0.82681805 309.22119349 C-0.81321588 305.51106157 -0.80581258 301.80093884 -0.79939139 298.09078848 C-0.79139657 294.09283788 -0.77769564 290.09490644 -0.76467896 286.0969696 C-0.74290317 279.16763216 -0.72476271 272.23829278 -0.70907402 265.30893898 C-0.68638543 255.29019062 -0.6582412 245.27146346 -0.62875474 235.25273307 C-0.58106643 218.9989831 -0.5378056 202.74522446 -0.49731445 186.49145508 C-0.45796583 170.70010707 -0.41654113 154.90876677 -0.37231445 139.11743164 C-0.36822804 137.65797306 -0.36822804 137.65797306 -0.36405908 136.16903047 C-0.35037971 131.28803504 -0.33665942 126.40703974 -0.32291877 121.52604449 C-0.20893453 81.01737903 -0.10212948 40.50869697 0 0 Z " fill="#E4F6FE" transform="translate(302,89)"/>
<path d="M0 0 C2.71266481 2.71266481 2.2501609 4.12223068 2.25053978 7.91964531 C2.25553848 9.1891166 2.26053717 10.45858789 2.26568735 11.76652801 C2.26114613 13.18849929 2.25642945 14.61047001 2.2515564 16.03244019 C2.25369309 17.53274434 2.25671712 19.03304744 2.26055682 20.5333482 C2.26863008 24.67130994 2.26427435 28.80918181 2.25803804 32.94714332 C2.25351947 37.40394774 2.26053645 41.86073459 2.26634216 46.3175354 C2.2749899 54.04520154 2.27677977 61.77284479 2.27439499 69.50051498 C2.2713037 80.67789908 2.28291377 91.85523232 2.29894479 103.03260364 C2.32492969 121.17130804 2.34493679 139.31001247 2.35839844 157.44873047 C2.35920881 158.535134 2.36001918 159.62153753 2.3608541 160.74086238 C2.37207712 176.1606526 2.3773568 191.5804392 2.38024123 207.00023295 C2.38044522 208.0860301 2.38064921 209.17182725 2.38085938 210.29052734 C2.38105931 211.37500667 2.38125925 212.45948601 2.38146524 213.57682835 C2.38519467 231.64357677 2.40425635 249.71027015 2.43595374 267.77699101 C2.45490038 278.92929762 2.46081016 290.08146328 2.45013656 301.23378159 C2.44383058 308.87283719 2.45182078 316.51179152 2.47119068 324.15082489 C2.48190297 328.56244718 2.4859733 332.97382377 2.47271919 337.38544464 C2.46071659 341.42089713 2.46694149 345.45588772 2.48791118 349.49129976 C2.49223316 350.95428543 2.48973232 352.41730975 2.47987001 353.88026856 C2.46746967 355.86304005 2.48188999 357.8459258 2.49777794 359.82867241 C2.49843004 361.48338627 2.49843004 361.48338627 2.49909532 363.1715287 C3.12310027 366.69511346 4.15957797 367.87718312 7 370 C9.90861386 370.38762036 12.43681216 370.53045572 15.34385681 370.49206543 C16.19312557 370.49674442 17.04239433 370.50142341 17.91739851 370.50624418 C20.7680747 370.51719222 23.61787118 370.49967288 26.46850586 370.48242188 C28.51022096 370.48460728 30.55193481 370.4886033 32.59364319 370.49427795 C36.992796 370.50285097 41.39170502 370.4990477 45.79084587 370.4858551 C52.74464308 370.46555272 59.69819343 370.47548083 66.6519928 370.4901123 C82.66964892 370.5191727 98.68723298 370.50840995 114.70490265 370.49741364 C129.38111321 370.48774569 144.05719564 370.48642262 158.73338419 370.51729441 C165.64823562 370.53068962 172.56271891 370.52467706 179.47754848 370.50392914 C183.77712886 370.49495789 188.07656657 370.502404 192.37613487 370.51434135 C194.37200144 370.51647626 196.36788886 370.51172707 198.36371994 370.4996357 C201.08591876 370.48407184 203.80698253 370.49296442 206.52915955 370.50793457 C207.32118411 370.49744567 208.11320866 370.48695678 208.92923397 370.47615004 C212.62569779 370.52149922 214.797486 370.87375189 217.96302128 372.84716034 C220.5894886 375.62301802 221.07780436 377.18758638 221 381 C219.53055954 383.65214443 219.53055954 383.65214443 217 386 C213.96343327 386.49899316 211.48552109 386.67226314 208.44854736 386.62818909 C207.57689399 386.63528347 206.70524061 386.64237786 205.80717349 386.64968723 C202.88044325 386.66731768 199.95503223 386.64913656 197.02832031 386.63110352 C194.93235671 386.63624055 192.83639742 386.64352019 190.740448 386.65278625 C185.04182045 386.67134037 179.34365929 386.65833433 173.645051 386.63869596 C167.68301902 386.6223327 161.72101713 386.63111952 155.75897217 386.63621521 C145.74158263 386.64074016 135.72437956 386.62484482 125.70703125 386.59692383 C114.13040379 386.56490519 102.55411334 386.5648729 90.97746205 386.5821386 C79.84166955 386.59801444 68.70600044 386.59126099 57.57021332 386.57420158 C52.83194438 386.56733403 48.09377443 386.56836069 43.3555069 386.57574654 C37.77072104 386.58341913 32.18631754 386.57125094 26.60159683 386.54389763 C24.55379242 386.53702167 22.50595224 386.53690733 20.45814896 386.54411316 C17.6581377 386.55282892 14.85930054 386.53681545 12.05938721 386.5146637 C11.25275548 386.52290446 10.44612376 386.53114523 9.61504865 386.53963572 C3.11433267 386.44500256 -2.10822398 384.54565611 -7.0234375 380.21875 C-7.46945313 379.6515625 -7.91546875 379.084375 -8.375 378.5 C-8.83648438 377.9328125 -9.29796875 377.365625 -9.7734375 376.78125 C-12.60862952 372.66390108 -13.25057531 369.78120498 -13.25447559 364.7377615 C-13.26030779 363.44279104 -13.26613998 362.14782058 -13.27214891 360.81360859 C-13.26851558 359.3732514 -13.2646912 357.93289468 -13.26069641 356.49253845 C-13.26371588 354.96504627 -13.26760433 353.4375556 -13.27228898 351.91006762 C-13.28260387 347.70628861 -13.28037832 343.50259455 -13.27610838 339.29880846 C-13.27364753 334.76775393 -13.28264725 330.2367202 -13.29014587 325.70567322 C-13.30291202 316.82712444 -13.30468425 307.94860587 -13.30234561 299.07004946 C-13.3005647 291.85668423 -13.30230719 284.64332819 -13.30657005 277.42996407 C-13.30716524 276.40448854 -13.30776043 275.379013 -13.30837366 274.32246246 C-13.30958536 272.23943579 -13.3107995 270.15640911 -13.31201603 268.07338244 C-13.32289861 248.52828557 -13.32072547 228.98320594 -13.31463119 209.43810809 C-13.30945936 191.54102215 -13.3207232 173.64399058 -13.33972941 155.74691539 C-13.35908014 137.38519762 -13.3673688 119.0235056 -13.36360615 100.66177756 C-13.36169016 90.34697369 -13.36422045 80.03221615 -13.37832069 69.71742058 C-13.39020017 60.93813196 -13.39167802 52.15891818 -13.37953053 43.37962859 C-13.37361806 38.89726567 -13.37260736 34.41503986 -13.38453293 29.93268585 C-13.39531163 25.83391337 -13.39238502 21.73539382 -13.37827124 17.63663358 C-13.37560207 16.14949576 -13.37805967 14.66233863 -13.38600711 13.17521965 C-13.39602254 11.16230029 -13.38595462 9.14931034 -13.37473011 7.13639736 C-13.37478513 6.01573264 -13.37484014 4.89506791 -13.37489682 3.74044365 C-13 1 -13 1 -11.66407937 -0.82102484 C-7.16089646 -4.01146209 -4.59213695 -2.25432177 0 0 Z " fill="#000000" transform="translate(13,126)"/>
<path d="M0 0 C1.44916809 -0.00639748 1.44916809 -0.00639748 2.9276123 -0.01292419 C3.99620987 -0.01247101 5.06480743 -0.01201782 6.16578674 -0.0115509 C7.2843808 -0.01490952 8.40297485 -0.01826813 9.5554657 -0.02172852 C13.27397251 -0.03127143 16.99243445 -0.03318328 20.71095276 -0.03425598 C23.2830609 -0.03746616 25.85516886 -0.04083005 28.42727661 -0.04434204 C33.82693482 -0.05034163 39.22657507 -0.05222375 44.62623596 -0.05158997 C50.87409459 -0.05098902 57.12186693 -0.06154252 63.36970371 -0.07733363 C69.37168215 -0.09196489 75.37361359 -0.09557859 81.37561226 -0.09498024 C83.93338944 -0.09616448 86.49116717 -0.10061086 89.04893303 -0.10831261 C92.61920812 -0.11805639 96.18925841 -0.11525673 99.75953674 -0.10920715 C101.35939674 -0.11763641 101.35939674 -0.11763641 102.99157715 -0.12623596 C103.96050903 -0.12204147 104.92944092 -0.11784698 105.92773438 -0.11352539 C107.19509509 -0.11434254 107.19509509 -0.11434254 108.48805904 -0.1151762 C110.52735901 0.13371277 110.52735901 0.13371277 112.52735901 2.13371277 C112.81258874 4.57143858 112.9758387 6.89111994 113.03907776 9.33683777 C113.05759293 10.05224731 113.07610809 10.76765686 113.09518433 11.50474548 C113.12724511 13.0210854 113.15288345 14.53757256 113.17262268 16.05412292 C113.20065921 17.60050765 113.24835025 19.14666736 113.31617737 20.69181824 C113.87942778 33.56257218 113.87942778 33.56257218 110.47511292 37.51847839 C108.2012763 39.03585535 106.08488642 40.18198505 103.52735901 41.13371277 C102.49675354 40.50142761 102.49675354 40.50142761 101.44532776 39.85636902 C100.54427307 39.30851746 99.64321838 38.76066589 98.71485901 38.19621277 C97.8215387 37.65093933 96.92821838 37.10566589 96.00782776 36.54386902 C91.28364724 33.8581538 86.84673589 33.12200364 81.52735901 34.13371277 C77.61789553 36.14630658 74.07092477 38.53730571 70.52735901 41.13371277 C69.75649963 40.71218933 68.98564026 40.29066589 68.19142151 39.85636902 C67.18853088 39.30851746 66.18564026 38.76066589 65.15235901 38.19621277 C64.15462463 37.65093933 63.15689026 37.10566589 62.12892151 36.54386902 C57.52459933 34.04813282 53.75894856 33.12912393 48.52735901 34.13371277 C45.53865608 35.83804814 42.83970021 37.71113659 40.10548401 39.79777527 C37.52735901 41.13371277 37.52735901 41.13371277 34.93360901 40.50871277 C32.77354141 39.27438843 30.78407929 37.9751622 28.77735901 36.50871277 C25.08762501 34.193992 22.25521104 33.3405235 17.89845276 33.55949402 C14.03963143 34.49400264 11.02110199 36.57284809 7.78907776 38.82121277 C5.52735901 40.13371277 5.52735901 40.13371277 1.52735901 40.13371277 C-3.57264099 37.03371277 -3.57264099 37.03371277 -5.47264099 35.13371277 C-5.57351311 32.62447123 -5.61236131 30.14334893 -5.60545349 27.63371277 C-5.60641022 26.88283386 -5.60736694 26.13195496 -5.60835266 25.35832214 C-5.60903437 23.7678265 -5.60718071 22.17732809 -5.60301208 20.58683777 C-5.59766366 18.14406622 -5.60295733 15.70147856 -5.60935974 13.25871277 C-5.60869896 11.71704569 -5.60741779 10.17537873 -5.60545349 8.63371277 C-5.60747772 7.89830261 -5.60950195 7.16289246 -5.61158752 6.40519714 C-5.58183372 0.01107632 -5.58183372 0.01107632 0 0 Z " fill="#FDCF63" transform="translate(135.47264099121094,60.86628723144531)"/>
<path d="M0 0 C1.2113562 -0.0112793 2.4227124 -0.02255859 3.67077637 -0.03417969 C5.01001216 -0.02640276 6.34924559 -0.01821011 7.68847656 -0.00964355 C9.10128501 -0.01506471 10.5140878 -0.02218734 11.92687988 -0.03088379 C15.76164099 -0.04912126 19.59597171 -0.04204814 23.43074036 -0.02936745 C27.44342206 -0.01924186 31.45606686 -0.02863189 35.46875 -0.03491211 C42.20742409 -0.04218982 48.94592284 -0.03259765 55.68457031 -0.0135498 C63.4759158 0.0082193 71.26684261 0.001168 79.05817795 -0.02085543 C85.74704955 -0.03900598 92.4357951 -0.04156948 99.12468338 -0.03110075 C103.11993523 -0.02486387 107.11499028 -0.02403537 111.11022949 -0.0372467 C114.86636457 -0.04879972 118.62195976 -0.04079024 122.3780365 -0.01766968 C123.75669966 -0.01237954 125.13540824 -0.01390167 126.51405334 -0.02272034 C128.39542013 -0.03364541 130.27688618 -0.0175175 132.15820312 0 C133.73773773 0.00226215 133.73773773 0.00226215 135.34918213 0.00457001 C138.78344795 0.63780764 139.96550398 1.77648293 142.07910156 4.50793457 C142.80487147 8.29806629 142.46507265 9.90247101 140.38916016 13.15890503 C135.94099472 17.32597995 129.23629992 16.19906681 123.55566406 16.15490723 C122.16403052 16.16168598 120.77240596 16.17059057 119.38079834 16.18145752 C115.60792749 16.20422767 111.8357412 16.19542456 108.06285858 16.17956209 C104.11203688 16.16689099 100.16127325 16.17864655 96.21044922 16.18649292 C89.57606497 16.19558601 82.94195915 16.18361071 76.30761719 16.15979004 C68.64058685 16.13257915 60.97422133 16.14139357 53.30720711 16.16892207 C46.72103757 16.19162204 40.13506802 16.19480896 33.54887199 16.18172872 C29.61671936 16.17393899 25.68487907 16.17287915 21.75274658 16.18941116 C18.05557431 16.20386992 14.35925796 16.19381009 10.66217804 16.16493988 C8.66051913 16.15518965 6.65878771 16.17001737 4.65716553 16.18557739 C-5.12335482 16.07013021 -5.12335482 16.07013021 -8.23095703 13.15890503 C-10.30686952 9.90247101 -10.64666834 8.29806629 -9.92089844 4.50793457 C-6.90161625 0.60604552 -4.85454892 0.00695251 0 0 Z " fill="#060606" transform="translate(136.9208984375,293.4920654296875)"/>
<path d="M0 0 C1.2113562 -0.0112793 2.4227124 -0.02255859 3.67077637 -0.03417969 C5.01001216 -0.02640276 6.34924559 -0.01821011 7.68847656 -0.00964355 C9.10128501 -0.01506471 10.5140878 -0.02218734 11.92687988 -0.03088379 C15.76164099 -0.04912126 19.59597171 -0.04204814 23.43074036 -0.02936745 C27.44342206 -0.01924186 31.45606686 -0.02863189 35.46875 -0.03491211 C42.20742409 -0.04218982 48.94592284 -0.03259765 55.68457031 -0.0135498 C63.4759158 0.0082193 71.26684261 0.001168 79.05817795 -0.02085543 C85.74704955 -0.03900598 92.4357951 -0.04156948 99.12468338 -0.03110075 C103.11993523 -0.02486387 107.11499028 -0.02403537 111.11022949 -0.0372467 C114.86636457 -0.04879972 118.62195976 -0.04079024 122.3780365 -0.01766968 C123.75669966 -0.01237954 125.13540824 -0.01390167 126.51405334 -0.02272034 C128.39542013 -0.03364541 130.27688618 -0.0175175 132.15820312 0 C133.73773773 0.00226215 133.73773773 0.00226215 135.34918213 0.00457001 C138.78344795 0.63780764 139.96550398 1.77648293 142.07910156 4.50793457 C142.80487147 8.29806629 142.46507265 9.90247101 140.38916016 13.15890503 C135.94099472 17.32597995 129.23629992 16.19906681 123.55566406 16.15490723 C122.16403052 16.16168598 120.77240596 16.17059057 119.38079834 16.18145752 C115.60792749 16.20422767 111.8357412 16.19542456 108.06285858 16.17956209 C104.11203688 16.16689099 100.16127325 16.17864655 96.21044922 16.18649292 C89.57606497 16.19558601 82.94195915 16.18361071 76.30761719 16.15979004 C68.64058685 16.13257915 60.97422133 16.14139357 53.30720711 16.16892207 C46.72103757 16.19162204 40.13506802 16.19480896 33.54887199 16.18172872 C29.61671936 16.17393899 25.68487907 16.17287915 21.75274658 16.18941116 C18.05557431 16.20386992 14.35925796 16.19381009 10.66217804 16.16493988 C8.66051913 16.15518965 6.65878771 16.17001737 4.65716553 16.18557739 C-5.12335482 16.07013021 -5.12335482 16.07013021 -8.23095703 13.15890503 C-10.30686952 9.90247101 -10.64666834 8.29806629 -9.92089844 4.50793457 C-6.90161625 0.60604552 -4.85454892 0.00695251 0 0 Z " fill="#060606" transform="translate(136.9208984375,224.4920654296875)"/>
<path d="M0 0 C1.80224533 -0.01908669 1.80224533 -0.01908669 3.64089966 -0.03855896 C4.95581894 -0.03203308 6.27073822 -0.0255072 7.62550354 -0.01878357 C9.02683928 -0.0258423 10.4281674 -0.03458712 11.82948303 -0.04489136 C15.63330442 -0.06740157 19.43671004 -0.06444191 23.24057269 -0.05556989 C26.41658036 -0.05046101 29.59250983 -0.05775177 32.76850945 -0.06504196 C40.26143763 -0.08204634 47.75416219 -0.07847004 55.24708557 -0.06175232 C62.97599295 -0.044831 70.70433555 -0.06066403 78.43318123 -0.0929752 C85.07027027 -0.11967051 91.7071835 -0.12694729 98.34432083 -0.11846012 C102.30780416 -0.11353056 106.27094767 -0.11574758 110.23438835 -0.13624763 C113.96188529 -0.15460413 117.68856997 -0.14864772 121.41602325 -0.12404823 C123.43441023 -0.11665335 125.45284041 -0.13389625 127.47116089 -0.15187073 C137.3343611 -0.0482364 137.3343611 -0.0482364 140.47183228 2.82754517 C142.12379456 5.5146637 142.12379456 5.5146637 142.18629456 9.1396637 C141.00078895 12.90538737 140.45827496 13.61174292 137.12379456 15.5146637 C134.40949249 15.89498043 134.40949249 15.89498043 131.24085999 15.90234375 C130.03791794 15.91224838 128.83497589 15.92215302 127.59558105 15.93235779 C126.27909073 15.92785614 124.9626004 15.92335449 123.60621643 15.91871643 C122.20326188 15.92441977 120.80031197 15.93138388 119.39736938 15.93951416 C115.58954101 15.95746367 111.78194284 15.95627405 107.97408485 15.95057178 C104.79550944 15.9474829 101.61697843 15.95356891 98.43840933 15.95961052 C90.94075932 15.97365963 83.44322324 15.97209091 75.9455719 15.96070862 C68.20877023 15.94922288 60.47231501 15.96330964 52.73555899 15.99010509 C46.09340773 16.01224876 39.45136534 16.01890263 32.80917978 16.01302868 C28.84185903 16.00965516 24.87476045 16.01210028 20.9074707 16.02927971 C17.17762164 16.04472607 13.44828675 16.04081965 9.71845818 16.02197456 C7.69630007 16.01652082 5.674119 16.03081969 3.65200806 16.04566956 C2.44906601 16.03583542 1.24612396 16.02600128 0.00672913 16.01586914 C-1.0389196 16.01565986 -2.08456833 16.01545057 -3.16190338 16.01523495 C-6.59869439 15.38142237 -7.78145983 14.2690459 -9.87620544 11.5146637 C-10.37620544 8.0146637 -10.37620544 8.0146637 -9.87620544 4.5146637 C-6.90280886 0.60743404 -4.822634 0.01296189 0 0 Z " fill="#020202" transform="translate(136.87620544433594,327.48533630371094)"/>
<path d="M0 0 C1.2113562 -0.0112793 2.4227124 -0.02255859 3.67077637 -0.03417969 C5.01001216 -0.02640276 6.34924559 -0.01821011 7.68847656 -0.00964355 C9.10128501 -0.01506471 10.5140878 -0.02218734 11.92687988 -0.03088379 C15.76164099 -0.04912126 19.59597171 -0.04204814 23.43074036 -0.02936745 C27.44342206 -0.01924186 31.45606686 -0.02863189 35.46875 -0.03491211 C42.20742409 -0.04218982 48.94592284 -0.03259765 55.68457031 -0.0135498 C63.4759158 0.0082193 71.26684261 0.001168 79.05817795 -0.02085543 C85.74704955 -0.03900598 92.4357951 -0.04156948 99.12468338 -0.03110075 C103.11993523 -0.02486387 107.11499028 -0.02403537 111.11022949 -0.0372467 C114.86636457 -0.04879972 118.62195976 -0.04079024 122.3780365 -0.01766968 C123.75669966 -0.01237954 125.13540824 -0.01390167 126.51405334 -0.02272034 C128.39542013 -0.03364541 130.27688618 -0.0175175 132.15820312 0 C133.73773773 0.00226215 133.73773773 0.00226215 135.34918213 0.00457001 C138.78453297 0.6380077 139.96984889 1.77072839 142.07910156 4.50793457 C142.57910156 7.50793457 142.57910156 7.50793457 142.07910156 10.50793457 C140.21200246 12.81069013 138.72262415 14.18617328 136.07910156 15.50793457 C134.22806546 15.6121252 132.37327194 15.65181896 130.51933289 15.66183472 C129.33741364 15.67043518 128.15549438 15.67903564 126.9377594 15.68789673 C124.98264687 15.69428665 124.98264687 15.69428665 122.98803711 15.70080566 C121.60670769 15.70870601 120.22538034 15.71697492 118.84405518 15.72558594 C114.3013303 15.75181305 109.75859616 15.76711385 105.21582031 15.78137207 C103.65267239 15.78673139 102.08952452 15.7921089 100.52637672 15.79750443 C94.02477537 15.81913381 87.52317651 15.83787105 81.02154827 15.84912682 C71.70020553 15.86536967 62.3792794 15.89855445 53.05809373 15.95552766 C46.5060124 15.99421178 39.95404258 16.01375764 33.40185004 16.01904738 C29.48745959 16.02270289 25.5735134 16.03474443 21.65924644 16.06715012 C17.97617746 16.09720458 14.29382215 16.10355257 10.61065674 16.09176636 C8.61604642 16.0914401 6.62148031 16.11592316 4.62702942 16.1411438 C-5.12183563 16.07301779 -5.12183563 16.07301779 -8.22819519 13.16287231 C-10.30585753 9.90414153 -10.64720002 8.30084284 -9.92089844 4.50793457 C-6.90161625 0.60604552 -4.85454892 0.00695251 0 0 Z " fill="#050505" transform="translate(136.9208984375,155.4920654296875)"/>
<path d="M0 0 C4.95 0 9.9 0 15 0 C15 35.64 15 71.28 15 108 C10.05 108 5.1 108 0 108 C-0.01981934 105.98608154 -0.03963867 103.97216309 -0.06005859 101.8972168 C-0.12692872 95.24746164 -0.20456867 88.59786377 -0.28752708 81.94829082 C-0.33749921 77.91616451 -0.38382906 73.88406452 -0.421875 69.85180664 C-0.45871641 65.96134406 -0.50507301 62.07110116 -0.55806351 58.18082619 C-0.5766136 56.69569561 -0.59171931 55.21051793 -0.60334396 53.725317 C-0.62019622 51.64697083 -0.64922765 49.56912843 -0.68115234 47.4909668 C-0.69447601 46.30738083 -0.70779968 45.12379486 -0.7215271 43.90434265 C-0.78761663 40.80642509 -0.78761663 40.80642509 -3 38 C-4.65 37.34 -6.3 36.68 -8 36 C-8 28.74 -8 21.48 -8 14 C-6.02 13.01 -4.04 12.02 -2 11 C-0.85185003 8.70370006 -0.69230191 6.92301914 -0.4375 4.375 C-0.293125 2.93125 -0.14875 1.4875 0 0 Z " fill="#CAE1FE" transform="translate(413,201)"/>
<path d="M0 0 C1.12557312 -0.00700928 2.25114624 -0.01401855 3.41082764 -0.02124023 C7.13611428 -0.03886347 10.86064296 -0.02718133 14.5859375 -0.01367188 C17.17138821 -0.01636552 19.75683792 -0.02024688 22.34228516 -0.02526855 C27.76280283 -0.03116952 33.18303496 -0.022962 38.60351562 -0.00390625 C44.86801188 0.0178625 51.13198739 0.01081098 57.39647102 -0.01121187 C63.42574377 -0.03155849 69.45476196 -0.02939558 75.48406982 -0.01768494 C78.04856438 -0.01501312 80.61307219 -0.01830329 83.17755127 -0.02760315 C86.75935266 -0.03774109 90.34014866 -0.02230447 93.921875 0 C94.98589539 -0.00809692 96.04991577 -0.01619385 97.1461792 -0.02453613 C104.30123809 0.05817277 104.30123809 0.05817277 107.61572266 2.36633301 C109.4983982 5.3770763 109.60164736 7.02926887 108.9609375 10.51757812 C106.91555916 13.44758934 105.28374656 15.24699079 101.69494629 15.98109818 C98.78866432 16.17053656 95.92023799 16.19289 93.0078125 16.16455078 C91.90320679 16.17331238 90.79860107 16.18207397 89.66052246 16.19110107 C86.0102609 16.21310243 82.36121132 16.19853826 78.7109375 16.18164062 C76.17415128 16.18500851 73.63736663 16.18986089 71.10058594 16.19613647 C65.78433376 16.20350889 60.4685157 16.19326704 55.15234375 16.16943359 C49.01214105 16.14222318 42.8727685 16.15103797 36.73258591 16.17856562 C30.81811379 16.20401679 24.90389892 16.20128851 18.98937988 16.18665695 C16.47595097 16.18332008 13.96250088 16.18741981 11.44909668 16.19905472 C7.93684668 16.21174507 4.42619348 16.19240857 0.9140625 16.16455078 C-0.12609009 16.17467194 -1.16624268 16.18479309 -2.23791504 16.19522095 C-6.98833087 16.1253707 -9.292185 16.07464597 -13.18847656 13.16854858 C-15.0390625 10.51757812 -15.0390625 10.51757812 -15.6015625 7.45507812 C-13.97820625 -1.02244894 -7.09171782 -0.05396616 0 0 Z " fill="#060607" transform="translate(142.0390625,362.482421875)"/>
<path d="M0 0 C1.67131989 -0.01051392 1.67131989 -0.01051392 3.37640381 -0.02124023 C7.06442084 -0.03886418 10.75167224 -0.0271803 14.43969727 -0.01367188 C17.00033211 -0.01636569 19.56096595 -0.02024719 22.12159729 -0.02526855 C27.4908414 -0.03116977 32.85981058 -0.02296207 38.22900391 -0.00390625 C44.43099805 0.0178515 50.63246598 0.01081915 56.83444732 -0.01121187 C62.80602286 -0.03157324 68.77743532 -0.02938944 74.7490406 -0.01768494 C77.28758887 -0.01501506 79.82615054 -0.01829654 82.36468315 -0.02760315 C85.91275531 -0.03775481 89.45981574 -0.02228464 93.0078125 0 C94.05888687 -0.00809692 95.10996124 -0.01619385 96.19288635 -0.02453613 C100.61767332 0.02698388 103.33409222 0.09550961 107.2247467 2.33117676 C109.06860352 4.51757812 109.06860352 4.51757812 109.63110352 8.01757812 C109.06860352 11.51757812 109.06860352 11.51757812 107.72338867 13.70397949 C103.45107904 16.62257909 99.08490927 16.07362631 94.02954102 16.03515625 C92.9039679 16.04216553 91.77839478 16.0491748 90.61871338 16.05639648 C86.89342673 16.07401972 83.16889806 16.06233758 79.44360352 16.04882812 C76.85815281 16.05152177 74.27270309 16.05540313 71.68725586 16.0604248 C66.26673819 16.06632577 60.84650606 16.05811825 55.42602539 16.0390625 C49.16152914 16.01729375 42.89755363 16.02434527 36.63306999 16.04636812 C30.60379725 16.06671474 24.57477905 16.06455183 18.54547119 16.05284119 C15.98097664 16.05016937 13.41646883 16.05345954 10.85198975 16.0627594 C7.27018836 16.07289734 3.68939236 16.05746072 0.10766602 16.03515625 C-1.48836456 16.04730164 -1.48836456 16.04730164 -3.11663818 16.05969238 C-10.25768193 15.97714548 -10.25768193 15.97714548 -13.59008789 13.70397949 C-15.57750787 10.46438364 -15.46260101 8.23600984 -14.93139648 4.51757812 C-11.48704871 -1.06885805 -5.86002879 -0.04505581 0 0 Z " fill="#020202" transform="translate(141.931396484375,189.482421875)"/>
<path d="M0 0 C15.18 0 30.36 0 46 0 C46.061875 5.713125 46.12375 11.42625 46.1875 17.3125 C46.22846802 20.01240112 46.22846802 20.01240112 46.27026367 22.7668457 C46.27902617 24.19481739 46.28667067 25.62279657 46.29296875 27.05078125 C46.30831665 27.79114624 46.32366455 28.53151123 46.33947754 29.29431152 C46.34215586 34.54114071 46.34215586 34.54114071 44.73324585 36.69882202 C42.61907103 38.28597004 41.5496019 38.37462059 38.92749023 38.37231445 C38.11332138 38.37854324 37.29915253 38.38477203 36.46031189 38.39118958 C35.5852449 38.38197983 34.71017792 38.37277008 33.80859375 38.36328125 C32.45701927 38.36402901 32.45701927 38.36402901 31.07814026 38.36479187 C29.17422275 38.36245198 27.27030212 38.35272845 25.36645508 38.33618164 C22.44519545 38.31256222 19.52484663 38.31562456 16.60351562 38.32226562 C14.75520287 38.31668982 12.90689397 38.30958056 11.05859375 38.30078125 C10.18150253 38.30169266 9.30441132 38.30260406 8.40074158 38.30354309 C2.23102945 38.23102945 2.23102945 38.23102945 0 36 C-0.17511649 33.27609124 -0.23163281 30.65256714 -0.1953125 27.9296875 C-0.19329834 27.22400635 -0.19128418 26.5183252 -0.18920898 25.79125977 C-0.17873636 23.15244049 -0.15081375 20.51371379 -0.125 17.875 C-0.08375 11.97625 -0.0425 6.0775 0 0 Z " fill="#355D7C" transform="translate(413,324)"/>
<path d="M0 0 C5.28 0 10.56 0 16 0 C16 35.64 16 71.28 16 108 C10.72 108 5.44 108 0 108 C0 72.36 0 36.72 0 0 Z " fill="#BFD7F6" transform="translate(443,201)"/>
<path d="M0 0 C15.84 0 31.68 0 48 0 C48 15.84 48 31.68 48 48 C40.12300025 41.24828593 40.12300025 41.24828593 36.44165039 37.57104492 C35.62132828 36.75387497 34.80100616 35.93670502 33.95582581 35.09477234 C33.09512985 34.23205215 32.2344339 33.36933197 31.34765625 32.48046875 C29.99745644 31.13170403 29.99745644 31.13170403 28.61997986 29.75569153 C26.73035658 27.86674561 24.84176184 25.97683692 22.95483398 24.08520508 C20.53152267 21.65614791 18.10368257 19.23167426 15.67452335 16.80846691 C13.35481276 14.49322039 11.038895 12.17418782 8.72265625 9.85546875 C7.84779068 8.98262741 6.97292511 8.10978607 6.07154846 7.210495 C5.27329147 6.40908585 4.47503448 5.6076767 3.65258789 4.78198242 C2.94534073 4.07393967 2.23809357 3.36589691 1.50941467 2.63639832 C0 1 0 1 0 0 Z " fill="#CFEBF7" transform="translate(61,393)"/>
<path d="M0 0 C15.18 0 30.36 0 46 0 C46 7.26 46 14.52 46 22 C30.82 22 15.64 22 0 22 C0 14.74 0 7.48 0 0 Z " fill="#FFE07D" transform="translate(413,164)"/>
<path d="M0 0 C5.08824191 2.31283723 8.31772051 5.19403477 10.85546875 10.26953125 C10.93919534 11.79101451 10.96276902 13.31608903 10.953125 14.83984375 C10.95062744 15.64695801 10.94812988 16.45407227 10.94555664 17.28564453 C10.93645264 18.31157715 10.92734863 19.33750977 10.91796875 20.39453125 C10.89734375 23.65328125 10.87671875 26.91203125 10.85546875 30.26953125 C-0.03453125 30.26953125 -10.92453125 30.26953125 -22.14453125 30.26953125 C-22.24765625 27.29953125 -22.35078125 24.32953125 -22.45703125 21.26953125 C-22.50255127 20.35042969 -22.54807129 19.43132813 -22.5949707 18.484375 C-22.69873901 12.23953162 -21.22875829 8.04013533 -17.14453125 3.26953125 C-12.09140703 -1.09621945 -6.24555896 -2.12735797 0 0 Z " fill="#FBDC7B" transform="translate(194.14453125,15.73046875)"/>
<path d="M0 0 C5.71734694 5.71734694 7.97452092 10.91980389 10.8125 18.3125 C11.06045319 18.94795746 11.30840637 19.58341492 11.56387329 20.23812866 C16.41704494 32.90029434 17.23661315 44.47220165 16 58 C10.72 58 5.44 58 0 58 C0 38.86 0 19.72 0 0 Z " fill="#B9D1F1" transform="translate(443,91)"/>
<path d="M0 0 C14.95957942 -0.04667842 29.91915321 -0.0819684 44.8787899 -0.10362434 C51.82449144 -0.11394592 58.77014778 -0.12802301 65.71582031 -0.15087891 C72.41365814 -0.17290879 79.11143922 -0.1845554 85.80931473 -0.18975449 C88.36988694 -0.1934615 90.93045647 -0.20069992 93.49100876 -0.21146011 C97.06616615 -0.22589196 100.64112696 -0.22798143 104.21630859 -0.22705078 C105.28445297 -0.23424133 106.35259735 -0.24143188 107.45310974 -0.24884033 C108.42348679 -0.246091 109.39386383 -0.24334167 110.39364624 -0.24050903 C111.2398522 -0.24235262 112.08605816 -0.24419621 112.95790672 -0.24609566 C115 0 115 0 117 2 C117.28522973 4.43772581 117.44847969 6.75740717 117.51171875 9.203125 C117.53023392 9.91853455 117.54874908 10.63394409 117.56782532 11.37103271 C117.5998861 12.88737263 117.62552444 14.40385979 117.64526367 15.92041016 C117.6733002 17.46679488 117.72099124 19.01295459 117.78881836 20.55810547 C118.35206877 33.42885941 118.35206877 33.42885941 114.94775391 37.38476562 C112.67391729 38.90214258 110.55752741 40.04827228 108 41 C105.69 39.68 103.38 38.36 101 37 C101.33 25.12 101.66 13.24 102 1 C68.34 1 34.68 1 0 1 C0 0.67 0 0.34 0 0 Z " fill="#EAB34B" transform="translate(131,61)"/>
<path d="M0 0 C0.33 0 0.66 0 1 0 C1 18.81 1 37.62 1 57 C-3.95 57 -8.9 57 -14 57 C-15.68876408 37.41715993 -12.74947263 18.27818343 -1.39379883 1.64770508 C-0.93384521 1.1039624 -0.4738916 0.56021973 0 0 Z " fill="#C8DFFC" transform="translate(427,92)"/>
<path d="M0 0 C9.9 0 19.8 0 30 0 C30 9.24 30 18.48 30 28 C25.2889666 26.82224165 23.19654796 24.59844366 19.921875 21.25 C19.35043762 20.67668945 18.77900024 20.10337891 18.19024658 19.51269531 C16.98658718 18.30232352 15.78652607 17.08836416 14.58984375 15.87109375 C12.74994952 13.99994866 10.89950711 12.13977596 9.046875 10.28125 C7.87958043 9.10478935 6.71289224 7.92772665 5.546875 6.75 C4.99070496 6.18958008 4.43453491 5.62916016 3.86151123 5.05175781 C0 1.11716239 0 1.11716239 0 0 Z " fill="#E1F3FC" transform="translate(61,393)"/>
<path d="M0 0 C3.40704599 0.94440924 5.0954939 2.88675585 7.2265625 5.6171875 C8.65960314 8.48326879 8.53300405 10.43019533 8.2265625 13.6171875 C6.59220845 16.65241645 5.1710095 18.90071047 2.4140625 20.9921875 C-0.88319633 21.93426145 -3.3546974 22.02979406 -6.7734375 21.6171875 C-9.74582991 19.83242509 -12.19947777 17.76510695 -13.7734375 14.6171875 C-14.35372765 7.53764773 -14.35372765 7.53764773 -11.9609375 3.7421875 C-7.76207097 -0.33671141 -5.54964544 -0.74115786 0 0 Z " fill="#060607" transform="translate(94.7734375,221.3828125)"/>
<path d="M0 0 C2.94214318 1.30086496 3.83163498 2.39796197 6 5 C7.05107426 7.75200627 7.35499489 10.07415505 7 13 C5.03190926 16.79560358 3.5566917 18.6288722 0 21 C-3.06526351 21.54531842 -5.93408329 21.54325893 -9 21 C-11.75569447 18.81840855 -13.43588747 17.12822506 -15 14 C-15.5811138 6.91041162 -15.5811138 6.91041162 -13.125 3.0625 C-9.20673997 -0.74051709 -5.2530983 -0.75799741 0 0 Z " fill="#050505" transform="translate(96,291)"/>
<path d="M0 0 C3.74082185 0.98270276 5.17398919 2.33537303 7.23046875 5.5859375 C7.92070369 9.0599299 7.96526097 12.11703467 7.23046875 15.5859375 C4.79296875 18.6484375 4.79296875 18.6484375 2.23046875 20.5859375 C1.90046875 20.9159375 1.57046875 21.2459375 1.23046875 21.5859375 C-5.56308657 22.27680753 -5.56308657 22.27680753 -8.59765625 20.5390625 C-10.7584075 18.75591827 -12.50826219 17.10847562 -13.76953125 14.5859375 C-14.3498214 7.50639773 -14.3498214 7.50639773 -11.95703125 3.7109375 C-7.77024873 -0.35622267 -5.54089212 -0.81350782 0 0 Z " fill="#050505" transform="translate(94.76953125,152.4140625)"/>
<path d="M0 0 C2.97 0 5.94 0 9 0 C9.07414321 4.92957259 9.12859817 9.85882081 9.16479492 14.78881836 C9.17988384 16.4659592 9.20035748 18.14306057 9.22631836 19.82006836 C9.26269811 22.23040504 9.27972486 24.64022019 9.29296875 27.05078125 C9.30845261 27.80087967 9.32393646 28.55097809 9.33988953 29.32380676 C9.34081403 32.18187013 9.29653747 34.45213915 7.91918945 36.99682617 C6 38 6 38 -1 38 C-0.67 25.46 -0.34 12.92 0 0 Z " fill="#2B4D66" transform="translate(450,324)"/>
<path d="M0 0 C15.18 0 30.36 0 46 0 C46 7.26 46 14.52 46 22 C30.82 22 15.64 22 0 22 C0 21.67 0 21.34 0 21 C12.21 21 24.42 21 37 21 C37 14.4 37 7.8 37 1 C24.79 1 12.58 1 0 1 C0 0.67 0 0.34 0 0 Z " fill="#F0C864" transform="translate(413,164)"/>
<path d="M0 0 C4.92289989 0.43437352 7.48750825 2.643619 11 6 C12.87341767 9.01099021 13.24045408 11.24458192 13.1953125 14.765625 C13.18564453 16.09980469 13.18564453 16.09980469 13.17578125 17.4609375 C13.15902344 18.38132812 13.14226562 19.30171875 13.125 20.25 C13.11597656 21.18585937 13.10695312 22.12171875 13.09765625 23.0859375 C13.07413636 25.39088657 13.04126853 27.6953116 13 30 C10.69 30 8.38 30 6 30 C5.94392578 28.081875 5.94392578 28.081875 5.88671875 26.125 C5.82101258 24.4166396 5.75456689 22.70830753 5.6875 21 C5.66494141 20.16082031 5.64238281 19.32164063 5.61914062 18.45703125 C5.32025002 11.44668785 3.95623973 5.9343596 0 0 Z " fill="#FBCD62" transform="translate(192,16)"/>
</svg>
