<?xml version="1.0" encoding="UTF-8"?>
<svg version="1.1" xmlns="http://www.w3.org/2000/svg" width="512" height="512">
<path d="M0 0 C1.5355402 -0.00270526 3.07107872 -0.00659617 4.60661316 -0.01159668 C7.78389213 -0.01742027 10.96071444 -0.00914887 14.13793945 0.00976562 C18.20553551 0.03280742 22.27209013 0.01923095 26.33965015 -0.00452423 C29.49240525 -0.01896222 32.6449117 -0.01438994 35.79767418 -0.00401306 C37.2987652 -0.00135327 38.79987907 -0.00458918 40.30094337 -0.01393127 C42.38719735 -0.02409276 44.47173541 -0.0086172 46.55786133 0.01367188 C47.74124588 0.01685425 48.92463043 0.02003662 50.14387512 0.02331543 C53.78168163 0.6343308 55.00078714 1.58796576 57.16796875 4.53125 C57.16796875 5.52125 57.16796875 6.51125 57.16796875 7.53125 C61.78796875 7.53125 66.40796875 7.53125 71.16796875 7.53125 C71.82796875 5.88125 72.48796875 4.23125 73.16796875 2.53125 C75.72400578 -0.02478703 76.64540181 0.27936238 80.19348812 0.27398109 C81.79861449 0.26430776 81.79861449 0.26430776 83.43616766 0.254439 C85.21379227 0.2590848 85.21379227 0.2590848 87.02732849 0.26382446 C88.27901024 0.25929335 89.530692 0.25476224 90.8203035 0.25009382 C94.30625906 0.23781288 97.79211903 0.23813027 101.27809131 0.24048257 C105.0335997 0.24088949 108.78907693 0.22986319 112.54457092 0.22036743 C119.90874048 0.20372573 127.27287803 0.19825635 134.63706481 0.19714268 C140.62520038 0.19619316 146.61332537 0.1920877 152.6014576 0.18574142 C169.57788313 0.16811599 186.55428333 0.15890393 203.53071808 0.16040237 C204.44669195 0.16048228 205.36266583 0.1605622 206.30639648 0.16064453 C207.68203588 0.16076717 207.68203588 0.16076717 209.08546598 0.16089229 C223.93156257 0.16170431 238.77755748 0.14259144 253.62362467 0.1143678 C268.86648562 0.08561872 284.10929704 0.0718288 299.35218579 0.07355535 C307.91007561 0.07421883 316.46785902 0.06874588 325.02572441 0.04719925 C332.31678871 0.02896023 339.60769842 0.02466194 346.89877569 0.0382181 C350.61662474 0.0447357 354.33417751 0.0449094 358.05199814 0.0275116 C362.09014022 0.00881014 366.12760028 0.02136779 370.16575623 0.03677368 C371.33076281 0.02648656 372.49576939 0.01619943 373.69607919 0.00560057 C385.17778692 0.10217016 393.66257594 3.08584583 401.9375 11.09765625 C410.67199185 20.62758343 412.47043292 28.83457775 412.43539429 41.46038818 C412.4399254 42.65917233 412.44445651 43.85795647 412.44912493 45.09306741 C412.45957382 48.40815005 412.46109845 51.72301523 412.45873618 55.03809881 C412.45832716 58.61833076 412.46937527 62.19853065 412.47885132 65.77874756 C412.49544416 72.78863275 412.50096009 79.7984843 412.50207607 86.80838749 C412.5030274 92.5084555 412.50714192 98.20851245 412.51347733 103.90857697 C412.53108536 120.0807366 412.54031693 136.25286973 412.53881638 152.42503902 C412.53869651 153.7320324 412.53869651 153.7320324 412.53857422 155.06542969 C412.53849246 155.93782651 412.5384107 156.81022332 412.53832646 157.70905641 C412.53751377 171.84351934 412.55664821 185.97787566 412.58485095 200.11230776 C412.61360223 214.63663946 412.62739 229.16091921 412.6256634 243.68528008 C412.62500025 251.83509084 412.63045938 259.98478982 412.6520195 268.13457489 C412.6702609 275.07418147 412.67455447 282.01362563 412.66100065 288.95324585 C412.65448572 292.49088646 412.6542998 296.02821573 412.67170715 299.56582642 C412.6904216 303.40875284 412.67784472 307.25122847 412.66244507 311.09417725 C412.67273219 312.20129995 412.68301932 313.30842266 412.69361818 314.44909453 C412.59284809 325.86213693 409.41267019 334.18586809 401.4609375 342.37109375 C395.57648221 347.91471177 391.26901045 349.83090277 383.16796875 352.53125 C383.16796875 367.38125 383.16796875 382.23125 383.16796875 397.53125 C386.79796875 398.85125 390.42796875 400.17125 394.16796875 401.53125 C403.1410854 407.54013605 409.72724745 415.99876798 412.16796875 426.53125 C413.37770254 437.41616581 412.83486646 448.12826634 406.21484375 457.2109375 C399.7060433 464.88039817 392.99527959 470.1258271 383.16796875 472.53125 C380.41096443 472.72078857 377.75551992 472.82521613 375.0012207 472.82177734 C374.21658447 472.82849457 373.43194824 472.83521179 372.62353516 472.84213257 C370.05104103 472.86100599 367.47880887 472.86503023 364.90625 472.8671875 C363.10979609 472.87361898 361.31334322 472.88034761 359.51689148 472.88735962 C355.76213143 472.89930285 352.00746323 472.9030431 348.25268555 472.90185547 C343.44057363 472.90165156 338.62904749 472.929041 333.81707478 472.96339989 C330.11190578 472.98561871 326.40687943 472.98969469 322.70165062 472.98863602 C320.92701369 472.99099618 319.15237307 472.99984309 317.3778019 473.01530075 C314.90029036 473.03487525 312.42406499 473.02915897 309.9465332 473.01708984 C309.2145018 473.02832886 308.4824704 473.03956787 307.72825623 473.05114746 C304.30692323 473.00874791 302.46353513 472.75033843 299.68180847 470.68838501 C298.16796875 468.53125 298.16796875 468.53125 298.16796875 465.53125 C293.54796875 465.53125 288.92796875 465.53125 284.16796875 465.53125 C283.50796875 467.18125 282.84796875 468.83125 282.16796875 470.53125 C280.16796875 472.53125 280.16796875 472.53125 277.65735435 472.77734566 C276.58991808 472.77550207 275.5224818 472.77365849 274.42269897 472.77175903 C273.19989731 472.77450836 271.97709564 472.77725769 270.71723938 472.78009033 C269.35494898 472.7730116 267.99265956 472.76574197 266.63037109 472.75830078 C265.20152291 472.75773688 263.77267414 472.75805282 262.34382629 472.75918579 C258.45765458 472.75976112 254.57160559 472.74797775 250.68546247 472.73403788 C246.62687262 472.72156048 242.56828015 472.72036239 238.50967407 472.71798706 C230.82090696 472.71176347 223.13219651 472.69534081 215.44345438 472.67528808 C206.6914664 472.65295637 197.93947575 472.64194253 189.18746638 472.63189721 C171.18093501 472.61097531 153.17445643 472.57578232 135.16796875 472.53125 C135.17844238 473.10667038 135.18891602 473.68209076 135.19970703 474.27494812 C135.24152373 476.90590979 135.26737574 479.53680126 135.29296875 482.16796875 C135.31810547 483.52577454 135.31810547 483.52577454 135.34375 484.91101074 C135.40341342 493.0904922 133.89058056 498.46597099 128.30078125 504.5703125 C120.68151522 511.77452123 114.26523966 513.19544118 103.890625 512.9296875 C94.89661935 511.96705521 89.40008096 507.53225759 83.68359375 500.77734375 C78.2524591 493.89385344 73.21075181 486.70107263 68.16796875 479.53125 C65.45766142 482.13542198 63.15959987 484.76119375 60.99609375 487.83203125 C60.4134375 488.64478516 59.83078125 489.45753906 59.23046875 490.29492188 C58.03291269 491.97898509 56.84010622 493.66643703 55.65234375 495.35742188 C50.61893397 502.3501085 44.09638569 510.76741938 35.16796875 512.53125 C25.86859971 513.47604891 17.83032403 513.28844616 10.16796875 507.53125 C4.94411283 502.79310365 0.63019395 497.31156867 -0.06762695 490.09472656 C-0.12612608 487.42119181 -0.09458386 484.76677743 -0.01953125 482.09375 C-0.00599609 481.17142578 0.00753906 480.24910156 0.02148438 479.29882812 C0.05655922 477.04234617 0.10570488 474.78711774 0.16796875 472.53125 C-0.86199219 472.57765625 -1.89195313 472.6240625 -2.953125 472.671875 C-27.10700695 473.4251622 -49.02362004 465.01869993 -67.14453125 448.96875 C-68.7125628 447.49544849 -70.27560469 446.016806 -71.83203125 444.53125 C-72.43402344 444.00402344 -73.03601563 443.47679687 -73.65625 442.93359375 C-88.69232556 429.22938502 -98.58199142 406.50578888 -100.05832863 386.45831299 C-100.40923248 378.28799476 -100.38485044 370.11333978 -100.35492992 361.93718338 C-100.34577825 358.22884536 -100.35989861 354.52057902 -100.37084961 350.81225586 C-100.38853286 343.57040296 -100.38484072 336.32871693 -100.37319905 329.0868578 C-100.36412452 323.19542395 -100.36295799 317.3040365 -100.36729431 311.41259766 C-100.36821371 310.14952427 -100.36821371 310.14952427 -100.36915168 308.86093426 C-100.37043073 307.14973576 -100.37172758 305.43853727 -100.37304205 303.72733879 C-100.38441798 287.72313744 -100.37138122 271.7190281 -100.34984058 255.71484184 C-100.33197232 242.0155777 -100.33507727 228.3164492 -100.35351562 214.6171875 C-100.37497533 198.66591667 -100.38331962 182.71472625 -100.37106657 166.76344299 C-100.36979252 165.05892946 -100.36853504 163.35441591 -100.36729431 161.64990234 C-100.36667721 160.8114915 -100.36606011 159.97308065 -100.36542431 159.10926342 C-100.36198667 153.23249043 -100.36776531 147.35576892 -100.37721252 141.47900391 C-100.3884908 134.30630206 -100.3852711 127.13377505 -100.36408955 119.96109295 C-100.35365679 116.30924052 -100.34932227 112.65767841 -100.36268616 109.00582886 C-100.46989693 77.0816189 -94.39978733 52.17563297 -71.83203125 28.53125 C-71.30480469 27.92925781 -70.77757813 27.32726562 -70.234375 26.70703125 C-52.58228377 7.33939151 -25.29460305 -0.16067454 0 0 Z " fill="#8187CA" transform="translate(99.83203125,-0.53125)"/>
<path d="M0 0 C1.5355402 -0.00270526 3.07107872 -0.00659617 4.60661316 -0.01159668 C7.78389213 -0.01742027 10.96071444 -0.00914887 14.13793945 0.00976562 C18.20553551 0.03280742 22.27209013 0.01923095 26.33965015 -0.00452423 C29.49240525 -0.01896222 32.6449117 -0.01438994 35.79767418 -0.00401306 C37.2987652 -0.00135327 38.79987907 -0.00458918 40.30094337 -0.01393127 C42.38719735 -0.02409276 44.47173541 -0.0086172 46.55786133 0.01367188 C47.74124588 0.01685425 48.92463043 0.02003662 50.14387512 0.02331543 C53.79145927 0.63597308 55.02148261 1.55385997 57.16796875 4.53125 C57.01943811 8.76437311 56.5272866 10.99227322 54.16796875 14.53125 C50.91630293 15.61513861 48.53606722 15.66227079 45.11450195 15.6730957 C43.24028313 15.68364738 43.24028313 15.68364738 41.32820129 15.69441223 C40.65958384 15.69622812 39.99096638 15.69804401 39.30208778 15.69991493 C37.1928445 15.70711974 35.08382864 15.72282342 32.97465515 15.74125671 C26.97687235 15.79348283 20.97920556 15.84150265 14.98120117 15.85717773 C11.307545 15.86740505 7.63445095 15.89710614 3.96101952 15.93849754 C2.57595309 15.95062185 1.19080649 15.95596372 -0.19431114 15.95369911 C-13.30305648 15.93756735 -26.47742268 17.96564345 -38.14453125 24.28125 C-39.13078491 24.79667358 -39.13078491 24.79667358 -40.13696289 25.32250977 C-60.85225783 36.42748597 -74.48933154 53.66977582 -81.60219288 75.94292736 C-84.62462461 87.02559345 -84.23147254 98.08508438 -84.17260742 109.48754883 C-84.17176003 111.79485564 -84.17223849 114.10216326 -84.17393494 116.4094696 C-84.17479191 122.63997784 -84.15721439 128.87031107 -84.13621306 135.10077882 C-84.11739652 141.62436159 -84.11569191 148.14794884 -84.11213684 154.67155457 C-84.10388675 165.61025086 -84.08517738 176.54888291 -84.05834961 187.48754883 C-84.03076086 198.7482878 -84.00955094 210.00900939 -83.99682617 221.26977539 C-83.996038 221.96531695 -83.99524983 222.66085851 -83.99443778 223.37747709 C-83.99052232 226.8672314 -83.98673128 230.35698584 -83.98300207 233.84674037 C-83.95196391 262.74161905 -83.89895402 291.63643299 -83.83203125 320.53125 C-82.94016113 319.42934326 -82.94016113 319.42934326 -82.03027344 318.30517578 C-81.23782227 317.3304834 -80.44537109 316.35579102 -79.62890625 315.3515625 C-78.45859863 313.90934326 -78.45859863 313.90934326 -77.26464844 312.43798828 C-61.10869363 293.13321129 -38.83328764 280.71090898 -13.83203125 277.53125 C-11.67160752 277.44291848 -9.50901603 277.39885353 -7.34679222 277.39423561 C-6.07843257 277.38916107 -4.81007293 277.38408653 -3.50327814 277.37885821 C-2.10849853 277.37825667 -0.71371888 277.37775754 0.68106079 277.37734985 C2.1725928 277.37333101 3.66412373 277.36889209 5.15565336 277.3640703 C9.24615223 277.35214759 13.33663934 277.34646647 17.42715216 277.34188914 C21.84162507 277.33591731 26.25608402 277.32431209 30.67054749 277.31359863 C41.32253722 277.28912059 51.97453155 277.27445931 62.62654072 277.26153857 C65.63448956 277.2578249 68.64243795 277.25385186 71.65038633 277.2497859 C90.33008394 277.22456037 109.00978231 277.20250801 127.68949318 277.19005775 C132.012071 277.18712812 136.3346488 277.18416643 140.65722656 277.18115234 C141.73156843 277.18040629 142.8059103 277.17966024 143.91280799 277.17889158 C161.33955694 277.16622168 178.76620425 277.13297264 196.19290562 277.09135051 C214.08237837 277.04897266 231.97179898 277.02536802 249.86132181 277.02013719 C259.90679979 277.01671964 269.95211853 277.00492287 279.99754715 276.97203445 C288.54653099 276.9440906 297.0953229 276.93300994 305.64434887 276.94422992 C310.00759449 276.94942999 314.37043778 276.94644245 318.73362541 276.92176437 C322.72581419 276.89937225 326.71730931 276.89993253 330.70950942 276.91896825 C332.15555323 276.92178234 333.60164309 276.91609184 335.0476125 276.90115531 C337.00979081 276.88212144 338.97221011 276.89679481 340.934412 276.91321754 C342.02535121 276.91186102 343.11629041 276.91050449 344.24028838 276.90910685 C348.17909528 277.74611821 349.70976179 279.40611464 352.16796875 282.53125 C352.23046875 286.15625 352.23046875 286.15625 351.16796875 289.53125 C348.91387692 291.78583203 347.5608279 292.47844618 344.38240558 292.90565485 C343.29954514 292.90538516 342.21668471 292.90511547 341.10101032 292.90483761 C339.8495076 292.91182735 338.59800488 292.9188171 337.30857784 292.92601866 C335.91716837 292.91862481 334.52576031 292.91096255 333.13435364 292.90306091 C331.65808625 292.90563487 330.18182068 292.90953525 328.70555991 292.9146505 C324.64277558 292.92494677 320.58020771 292.91660594 316.51743376 292.90535367 C312.13744091 292.89651586 307.7574792 292.904999 303.37748718 292.91156006 C295.78301337 292.92072736 288.18859995 292.91937911 280.59412575 292.91137505 C269.59522996 292.90014837 258.59642029 292.90918127 247.597532 292.92393685 C229.72884118 292.94772753 211.86016097 292.96107647 193.99145508 292.96508789 C192.38660503 292.96545519 192.38660503 292.96545519 190.74933376 292.96582992 C178.82770098 292.96837279 166.90606902 292.96894432 154.98443604 292.96789551 C150.66939291 292.96756252 146.35434978 292.96727711 142.03930664 292.96704102 C140.44232315 292.96694683 140.44232315 292.96694683 138.81307737 292.96685075 C121.02758039 292.96624484 103.24213228 292.98117497 85.45665568 293.00787407 C74.49464358 293.02364449 63.53278969 293.02597349 52.57077601 293.01074005 C45.04658685 293.00124012 37.52249261 293.00608427 29.99831454 293.02195387 C25.66404674 293.03060907 21.33003162 293.03288382 16.99577713 293.01742744 C-11.48676956 292.43636897 -11.48676956 292.43636897 -38.20703125 301.28125 C-39.18651733 301.79667358 -39.18651733 301.79667358 -40.18579102 302.32250977 C-61.44830273 313.79930005 -74.10333654 330.98235287 -81.86328125 353.52734375 C-87.85541717 374.86045729 -83.51453436 397.82878482 -72.9921875 416.9453125 C-62.38420471 435.10433334 -44.87645163 448.3790652 -24.640625 453.828125 C-23.71378906 454.06015625 -22.78695312 454.2921875 -21.83203125 454.53125 C-21.14238281 454.74265625 -20.45273438 454.9540625 -19.7421875 455.171875 C-13.07316325 457.14579338 -7.07871802 457.01362952 0.16796875 457.53125 C0.16796875 442.68125 0.16796875 427.83125 0.16796875 412.53125 C-3.13203125 412.53125 -6.43203125 412.53125 -9.83203125 412.53125 C-17.85597815 410.48278356 -24.12892644 406.43422997 -29.83203125 400.53125 C-30.71890625 399.665 -31.60578125 398.79875 -32.51953125 397.90625 C-38.52428605 390.18585098 -40.70750576 380.55460368 -40.3125 370.95703125 C-38.97866306 361.44666546 -34.66687232 354.11979049 -27.83203125 347.53125 C-26.94515625 346.644375 -26.05828125 345.7575 -25.14453125 344.84375 C-15.68326026 337.51642142 -5.11665189 336.81148562 6.36309814 336.91893005 C7.9764314 336.91547723 9.58976116 336.90981809 11.20307994 336.90216213 C15.60734664 336.88749976 20.01103077 336.90364385 24.41524982 336.92501509 C29.1759878 336.94257672 33.93666707 336.93106648 38.69741821 336.92300415 C46.93788141 336.91281959 55.17817264 336.92036894 63.41861725 336.93966484 C75.34147187 336.9672066 87.26416076 336.96330745 99.1870335 336.95107902 C118.54462829 336.93170356 137.90216832 336.93161509 157.25976562 336.9465332 C158.41722088 336.94741934 159.57467614 336.94830547 160.7672058 336.94921846 C165.45735454 336.95285264 170.14750321 336.95657003 174.8376518 336.96038502 C187.75765219 336.97085427 200.67765327 336.97909545 213.59765625 336.9855957 C214.75490862 336.98618394 215.91216099 336.98677217 217.10448161 336.98737823 C236.39648466 336.9966558 255.68845502 336.99018806 274.9804523 336.97328526 C286.87506697 336.96369438 298.76950598 336.96885537 310.66410086 336.99305297 C318.80953381 337.00879512 326.95489183 337.01063642 335.10033467 337.00151973 C339.80011891 336.99678943 344.4996617 336.99872178 349.1994133 337.01815605 C353.50233692 337.03585785 357.8048534 337.03518086 362.10778293 337.01997698 C363.66341671 337.01775419 365.21907817 337.02230162 366.77466694 337.03434365 C375.87435361 337.10063921 382.94023075 336.95161534 390.19140625 330.8203125 C390.63742187 330.27117187 391.0834375 329.72203125 391.54296875 329.15625 C392.00445312 328.61226563 392.4659375 328.06828125 392.94140625 327.5078125 C396.77182546 321.33522613 396.45526201 314.98415239 396.43539429 307.96792603 C396.44219096 306.2107337 396.44219096 306.2107337 396.44912493 304.41804254 C396.45958344 301.17474915 396.46109678 297.93159546 396.45873618 294.6882906 C396.45832753 291.18717173 396.46937171 287.68608577 396.47885132 284.1849823 C396.4954512 277.32903703 396.50096039 270.47312616 396.50207607 263.61716248 C396.50302694 258.04385627 396.50713916 252.47056139 396.51347733 246.89725876 C396.53108625 231.09135655 396.54031663 215.28548148 396.53881638 199.47956939 C396.53873647 198.62779587 396.53865655 197.77602234 396.53857422 196.8984375 C396.53845158 195.61921508 396.53845158 195.61921508 396.53832646 194.31414978 C396.53751345 180.49122211 396.55665577 166.66840338 396.58485095 152.84550722 C396.6135819 138.64779507 396.62739116 124.45013604 396.6256634 110.25239408 C396.62499962 102.28319216 396.63048692 94.31410447 396.6520195 86.34492874 C396.67023399 79.56038569 396.67457643 72.77600867 396.66100065 65.99145176 C396.65447253 62.5311474 396.65434773 59.07116155 396.67170715 55.61088753 C396.68711466 51.85648687 396.67787974 48.10292355 396.66244507 44.34854126 C396.67787576 42.71458119 396.67787576 42.71458119 396.69361818 41.04761183 C396.62604057 33.61240254 395.41587935 28.29504796 390.421875 22.5078125 C389.86371094 22.06179687 389.30554688 21.61578125 388.73046875 21.15625 C388.17488281 20.69476562 387.61929687 20.23328125 387.046875 19.7578125 C383.06962054 17.16143433 379.53410696 16.28127484 374.81622219 16.28071022 C373.74978149 16.27571152 372.68334079 16.27071283 371.5845837 16.26556265 C370.4190281 16.27022587 369.25347251 16.27488908 368.05259705 16.2796936 C366.80974727 16.27672346 365.56689749 16.27375333 364.2863856 16.27069318 C360.83925115 16.26437404 357.39232888 16.26695904 353.94520795 16.27321196 C350.22670318 16.27774518 346.5082191 16.27070594 342.78971863 16.26490784 C336.34714454 16.25627457 329.9045979 16.25446673 323.46201897 16.25685501 C314.1427641 16.25995103 304.82357003 16.24831989 295.50433046 16.23230521 C280.37878759 16.20634219 265.25324468 16.1863231 250.12768555 16.17285156 C249.22241541 16.17204119 248.31714526 16.17123082 247.38444269 16.1703959 C234.53030926 16.15916837 221.67618015 16.15389186 208.82204247 16.15100877 C207.91646914 16.15080478 207.01089581 16.15060079 206.07788086 16.15039062 C205.17340943 16.15019069 204.26893801 16.14999075 203.33705836 16.14978476 C188.26700237 16.14605485 173.19701237 16.12699173 158.12698942 16.09529626 C148.828559 16.07635839 139.53029757 16.0704344 130.23185313 16.08111344 C123.86411664 16.08742119 117.49650158 16.07942425 111.12879174 16.06005932 C107.45230389 16.0493521 103.77611073 16.04526813 100.09962463 16.05853081 C96.11837415 16.07274918 92.13759269 16.05630676 88.15635681 16.03677368 C86.98857049 16.04589834 85.82078418 16.055023 84.61761039 16.06442416 C83.55377744 16.05420997 82.48994449 16.04399577 81.39387417 16.03347206 C80.47462357 16.03303733 79.55537297 16.03260259 78.60826629 16.03215468 C75.38790204 15.37113056 74.20615225 14.05826002 72.16796875 11.53125 C70.94642439 7.94296345 70.79445711 6.32771255 72.41172695 2.87910557 C76.86894332 -0.91769495 81.59744597 -0.15385051 87.26783752 -0.09693909 C89.14792343 -0.10758067 89.14792343 -0.10758067 91.06599087 -0.11843723 C94.54764067 -0.13740397 98.02859017 -0.12510149 101.51022255 -0.1077143 C105.26435535 -0.09436555 109.01838396 -0.10976884 112.77250671 -0.12153625 C120.12980402 -0.13993973 127.48683617 -0.13138097 134.84412528 -0.11344803 C140.82650661 -0.09942927 146.8088159 -0.09552768 152.79121208 -0.0988903 C153.64230543 -0.09936775 154.49339878 -0.09984519 155.37028284 -0.1003371 C157.09928968 -0.10136343 158.8282965 -0.10241879 160.5573033 -0.10350286 C175.85734704 -0.11207634 191.1572628 -0.09537804 206.45727539 -0.06567383 C221.29359319 -0.03687032 236.12972638 -0.02973524 250.96606445 -0.04516602 C267.12191359 -0.06194618 283.277675 -0.06594112 299.43352646 -0.04845566 C301.15835598 -0.04661131 302.88318552 -0.04477658 304.60801506 -0.04295158 C305.45663324 -0.04203949 306.30525142 -0.0411274 307.1795853 -0.04018768 C313.14869026 -0.03459083 319.11775231 -0.03788184 325.08685493 -0.04449654 C332.37057661 -0.05224745 339.65411685 -0.0454152 346.93780208 -0.0203215 C350.65159674 -0.0078629 354.36510953 -0.00163504 358.07891464 -0.01286316 C362.11260717 -0.02482746 366.14556508 -0.00557267 370.17921448 0.0165863 C371.92467799 0.00422515 371.92467799 0.00422515 373.70540339 -0.00838572 C385.17938684 0.10766171 393.66725425 3.09037539 401.9375 11.09765625 C410.67199185 20.62758343 412.47043292 28.83457775 412.43539429 41.46038818 C412.4399254 42.65917233 412.44445651 43.85795647 412.44912493 45.09306741 C412.45957382 48.40815005 412.46109845 51.72301523 412.45873618 55.03809881 C412.45832716 58.61833076 412.46937527 62.19853065 412.47885132 65.77874756 C412.49544416 72.78863275 412.50096009 79.7984843 412.50207607 86.80838749 C412.5030274 92.5084555 412.50714192 98.20851245 412.51347733 103.90857697 C412.53108536 120.0807366 412.54031693 136.25286973 412.53881638 152.42503902 C412.53869651 153.7320324 412.53869651 153.7320324 412.53857422 155.06542969 C412.53849246 155.93782651 412.5384107 156.81022332 412.53832646 157.70905641 C412.53751377 171.84351934 412.55664821 185.97787566 412.58485095 200.11230776 C412.61360223 214.63663946 412.62739 229.16091921 412.6256634 243.68528008 C412.62500025 251.83509084 412.63045938 259.98478982 412.6520195 268.13457489 C412.6702609 275.07418147 412.67455447 282.01362563 412.66100065 288.95324585 C412.65448572 292.49088646 412.6542998 296.02821573 412.67170715 299.56582642 C412.6904216 303.40875284 412.67784472 307.25122847 412.66244507 311.09417725 C412.67273219 312.20129995 412.68301932 313.30842266 412.69361818 314.44909453 C412.59284809 325.86213693 409.41267019 334.18586809 401.4609375 342.37109375 C395.57648221 347.91471177 391.26901045 349.83090277 383.16796875 352.53125 C383.16796875 367.38125 383.16796875 382.23125 383.16796875 397.53125 C386.79796875 398.85125 390.42796875 400.17125 394.16796875 401.53125 C403.1410854 407.54013605 409.72724745 415.99876798 412.16796875 426.53125 C413.37770254 437.41616581 412.83486646 448.12826634 406.21484375 457.2109375 C399.7060433 464.88039817 392.99527959 470.1258271 383.16796875 472.53125 C380.41096443 472.72078857 377.75551992 472.82521613 375.0012207 472.82177734 C374.21658447 472.82849457 373.43194824 472.83521179 372.62353516 472.84213257 C370.05104103 472.86100599 367.47880887 472.86503023 364.90625 472.8671875 C363.10979609 472.87361898 361.31334322 472.88034761 359.51689148 472.88735962 C355.76213143 472.89930285 352.00746323 472.9030431 348.25268555 472.90185547 C343.44057363 472.90165156 338.62904749 472.929041 333.81707478 472.96339989 C330.11190578 472.98561871 326.40687943 472.98969469 322.70165062 472.98863602 C320.92701369 472.99099618 319.15237307 472.99984309 317.3778019 473.01530075 C314.90029036 473.03487525 312.42406499 473.02915897 309.9465332 473.01708984 C309.2145018 473.02832886 308.4824704 473.03956787 307.72825623 473.05114746 C304.30692323 473.00874791 302.46353513 472.75033843 299.68180847 470.68838501 C298.16796875 468.53125 298.16796875 468.53125 298.16796875 465.53125 C293.54796875 465.53125 288.92796875 465.53125 284.16796875 465.53125 C283.50796875 467.18125 282.84796875 468.83125 282.16796875 470.53125 C280.16796875 472.53125 280.16796875 472.53125 277.65735435 472.77734566 C276.58991808 472.77550207 275.5224818 472.77365849 274.42269897 472.77175903 C273.19989731 472.77450836 271.97709564 472.77725769 270.71723938 472.78009033 C269.35494898 472.7730116 267.99265956 472.76574197 266.63037109 472.75830078 C265.20152291 472.75773688 263.77267414 472.75805282 262.34382629 472.75918579 C258.45765458 472.75976112 254.57160559 472.74797775 250.68546247 472.73403788 C246.62687262 472.72156048 242.56828015 472.72036239 238.50967407 472.71798706 C230.82090696 472.71176347 223.13219651 472.69534081 215.44345438 472.67528808 C206.6914664 472.65295637 197.93947575 472.64194253 189.18746638 472.63189721 C171.18093501 472.61097531 153.17445643 472.57578232 135.16796875 472.53125 C135.17844238 473.10667038 135.18891602 473.68209076 135.19970703 474.27494812 C135.24152373 476.90590979 135.26737574 479.53680126 135.29296875 482.16796875 C135.31810547 483.52577454 135.31810547 483.52577454 135.34375 484.91101074 C135.40341342 493.0904922 133.89058056 498.46597099 128.30078125 504.5703125 C120.68151522 511.77452123 114.26523966 513.19544118 103.890625 512.9296875 C94.89661935 511.96705521 89.40008096 507.53225759 83.68359375 500.77734375 C78.2524591 493.89385344 73.21075181 486.70107263 68.16796875 479.53125 C65.45766142 482.13542198 63.15959987 484.76119375 60.99609375 487.83203125 C60.4134375 488.64478516 59.83078125 489.45753906 59.23046875 490.29492188 C58.03291269 491.97898509 56.84010622 493.66643703 55.65234375 495.35742188 C50.61893397 502.3501085 44.09638569 510.76741938 35.16796875 512.53125 C25.86859971 513.47604891 17.83032403 513.28844616 10.16796875 507.53125 C4.94411283 502.79310365 0.63019395 497.31156867 -0.06762695 490.09472656 C-0.12612608 487.42119181 -0.09458386 484.76677743 -0.01953125 482.09375 C-0.00599609 481.17142578 0.00753906 480.24910156 0.02148438 479.29882812 C0.05655922 477.04234617 0.10570488 474.78711774 0.16796875 472.53125 C-0.86199219 472.57765625 -1.89195313 472.6240625 -2.953125 472.671875 C-27.10700695 473.4251622 -49.02362004 465.01869993 -67.14453125 448.96875 C-68.7125628 447.49544849 -70.27560469 446.016806 -71.83203125 444.53125 C-72.43402344 444.00402344 -73.03601563 443.47679687 -73.65625 442.93359375 C-88.69232556 429.22938502 -98.58199142 406.50578888 -100.05832863 386.45831299 C-100.40923248 378.28799476 -100.38485044 370.11333978 -100.35492992 361.93718338 C-100.34577825 358.22884536 -100.35989861 354.52057902 -100.37084961 350.81225586 C-100.38853286 343.57040296 -100.38484072 336.32871693 -100.37319905 329.0868578 C-100.36412452 323.19542395 -100.36295799 317.3040365 -100.36729431 311.41259766 C-100.36821371 310.14952427 -100.36821371 310.14952427 -100.36915168 308.86093426 C-100.37043073 307.14973576 -100.37172758 305.43853727 -100.37304205 303.72733879 C-100.38441798 287.72313744 -100.37138122 271.7190281 -100.34984058 255.71484184 C-100.33197232 242.0155777 -100.33507727 228.3164492 -100.35351562 214.6171875 C-100.37497533 198.66591667 -100.38331962 182.71472625 -100.37106657 166.76344299 C-100.36979252 165.05892946 -100.36853504 163.35441591 -100.36729431 161.64990234 C-100.36667721 160.8114915 -100.36606011 159.97308065 -100.36542431 159.10926342 C-100.36198667 153.23249043 -100.36776531 147.35576892 -100.37721252 141.47900391 C-100.3884908 134.30630206 -100.3852711 127.13377505 -100.36408955 119.96109295 C-100.35365679 116.30924052 -100.34932227 112.65767841 -100.36268616 109.00582886 C-100.46989693 77.0816189 -94.39978733 52.17563297 -71.83203125 28.53125 C-71.30480469 27.92925781 -70.77757813 27.32726562 -70.234375 26.70703125 C-52.58228377 7.33939151 -25.29460305 -0.16067454 0 0 Z " fill="#000000" transform="translate(99.83203125,-0.53125)"/>
<path d="M0 0 C4.95 0 9.9 0 15 0 C15.99 2.475 15.99 2.475 17 5 C19.81045385 7.81045385 21.62243756 7.27588114 25.56103516 7.31884766 C26.23432358 7.32889328 26.907612 7.3389389 27.6013031 7.34928894 C29.83054741 7.38022182 32.05967109 7.39718368 34.2890625 7.4140625 C35.83321172 7.43276607 37.37735065 7.45233887 38.92147827 7.4727478 C42.98862645 7.5241609 47.0558078 7.56373727 51.12310791 7.60089111 C55.2722602 7.64087343 59.42127342 7.69199202 63.5703125 7.7421875 C71.71344681 7.83905537 79.85664971 7.92342514 88 8 C85.06623978 10.23004506 82.08462487 12.20613447 78.9375 14.125 C59.9589464 26.21373295 44.09557018 44.5658118 39 67 C38.43078142 71.1397715 38.60401599 73.40602399 41 77 C41.27487822 79.84137272 41.41589299 82.53247725 41.4375 85.375 C41.48680664 86.50808594 41.48680664 86.50808594 41.53710938 87.6640625 C41.57781148 91.89708193 41.34326531 93.54716953 38.69921875 97.03515625 C36 99 36 99 32.375 99.0625 C28.58696576 97.8699707 27.85481546 97.40328001 26 94 C25.70703125 90.546875 25.70703125 90.546875 25.8125 86.75 C25.85310547 84.85507813 25.85310547 84.85507813 25.89453125 82.921875 C25.92933594 81.95765625 25.96414062 80.9934375 26 80 C13.5675278 79.51245207 3.66066566 79.16910322 -6.4375 87.375 C-11.61046497 92.34940672 -13.16425662 96.18787105 -13.4375 103.375 C-13.22836895 111.03442454 -11.43073001 115.95695226 -5.875 121.25 C2.57167704 127.78590655 11.49347319 129.22360447 22 128 C25.0838557 127.14521562 27.94871437 126.12835837 30.890625 124.875 C33 124 33 124 35 124 C35.33 130.6 35.66 137.2 36 144 C37.670625 144.556875 39.34125 145.11375 41.0625 145.6875 C46.14348496 147.56254735 50.02704504 149.2861508 54 153 C55.25 156.5 55.25 156.5 55 160 C52.61711814 163.39380144 51.16159597 164.77756673 47.0625 165.5625 C43.27980491 164.86771927 41.07846346 163.25753987 38 161 C35.21398777 160.07132926 33.38933911 159.83657783 30.5 159.8125 C29.7265625 159.79832031 28.953125 159.78414062 28.15625 159.76953125 C25.70319944 159.86338472 25.70319944 159.86338472 23 162 C22.7497843 165.08365871 22.7497843 165.08365871 23 168 C23.62455078 168.235979 24.24910156 168.47195801 24.89257812 168.71508789 C27.76876701 169.81335136 30.6341077 170.9376555 33.5 172.0625 C34.97339844 172.6184082 34.97339844 172.6184082 36.4765625 173.18554688 C44.25207183 176.26983224 50.793857 180.28219927 55.5 187.375 C57.87967484 193.12588086 57.77125035 198.19969419 55.9375 204.125 C53.0710908 210.78674731 48.30295306 214.71292757 41.6875 217.4375 C37.41841004 219 37.41841004 219 35 219 C35.09523086 223.6918619 35.20163946 228.38330625 35.31738281 233.07470703 C35.35511216 234.66285696 35.39004974 236.25107626 35.421875 237.83935547 C35.46877484 240.15356931 35.52652296 242.46732712 35.5859375 244.78125 C35.60326431 245.80575256 35.60326431 245.80575256 35.62094116 246.85095215 C35.84167163 254.62182804 36.97494091 262.3027744 38 270 C37.17810511 270.00358253 37.17810511 270.00358253 36.33960629 270.00723743 C22.94017359 270.06665407 9.54091888 270.14255459 -3.8583231 270.23571491 C-10.3383972 270.28028128 -16.81841041 270.31956728 -23.29858398 270.34643555 C-29.56218461 270.37260596 -35.82554917 270.4131043 -42.08900261 270.46318626 C-44.46853619 270.47976252 -46.84811052 270.49133392 -49.22769356 270.49761391 C-79.16286604 270.58454639 -105.18022333 276.60035466 -127.1171875 298.06640625 C-132.4450883 303.42754083 -137.2869666 309.09792918 -142 315 C-142.09142537 285.20737833 -142.16212873 255.4147614 -142.20426132 225.62202948 C-142.20926361 222.0976288 -142.21444095 218.57322839 -142.21972656 215.04882812 C-142.2207758 214.34724001 -142.22182505 213.64565189 -142.22290608 212.92280352 C-142.24026921 201.59128171 -142.27178409 190.25984181 -142.30861118 178.92836845 C-142.34613497 167.28464678 -142.36796088 155.64097262 -142.37635398 143.99719334 C-142.38155354 137.4640202 -142.3937131 130.93103229 -142.42292023 124.3979187 C-142.45023065 118.23869854 -142.4584135 112.07973853 -142.45243073 105.92046356 C-142.453524 103.66958957 -142.46138398 101.41870615 -142.4768219 99.16788483 C-142.57851509 83.5654197 -141.8587747 68.74189999 -134.25 54.6875 C-133.90565918 54.02927246 -133.56131836 53.37104492 -133.20654297 52.69287109 C-122.577988 32.88093531 -105.59938666 17.8079789 -84 11 C-74.48770424 8.28128754 -65.47059348 7.54609278 -55.6171875 7.5234375 C-54.18562389 7.50908371 -52.75407381 7.49331908 -51.32254028 7.47622681 C-47.59861917 7.43484248 -43.87478214 7.40953 -40.1506958 7.38873291 C-34.1570764 7.35256382 -28.16366343 7.29186514 -22.17026138 7.23024368 C-20.08574728 7.21122094 -18.00128928 7.19945333 -15.91671753 7.18881226 C-14.65755524 7.17855011 -13.39839294 7.16828796 -12.10107422 7.15771484 C-10.9922287 7.15121918 -9.88338318 7.14472351 -8.74093628 7.13803101 C-5.90755002 7.11813512 -5.90755002 7.11813512 -3 6 C-2.01 4.02 -1.02 2.04 0 0 Z " fill="#666EB1" transform="translate(157,7)"/>
<path d="M0 0 C2.53589628 0.00560443 5.07179583 0.00987052 7.60769653 0.01286316 C13.56427189 0.0230864 19.52069656 0.04664882 25.47719491 0.07691163 C32.26817655 0.11065201 39.05916702 0.12699057 45.85021186 0.14199793 C59.7986715 0.17320538 73.7469827 0.22584197 87.6953125 0.29296875 C88.24154266 1.25922684 88.78777283 2.22548492 89.35055542 3.22102356 C90.0758855 4.49872603 90.80132459 5.77636662 91.52685547 7.05395508 C91.8858342 7.68964668 92.24481293 8.32533829 92.6146698 8.98029327 C101.61776226 24.80922401 115.38623573 36.404701 131.6953125 44.29296875 C131.6953125 44.62296875 131.6953125 44.95296875 131.6953125 45.29296875 C130.90754551 45.29351352 130.11977852 45.29405828 129.3081398 45.29461956 C110.10149897 45.30961522 90.89509796 45.3521744 71.68858719 45.42505932 C62.40027515 45.45964844 53.11211058 45.48505685 43.82373047 45.48852539 C35.72385962 45.49157376 27.62425182 45.51218114 19.52448249 45.55349332 C15.23936201 45.57474611 10.95461477 45.58746394 6.66944122 45.57912254 C2.62760665 45.57153309 -1.41347473 45.58760135 -5.45517159 45.6210289 C-6.93043614 45.62920373 -8.40577643 45.62908187 -9.88103294 45.61956596 C-22.22348684 45.54790012 -32.33952704 47.8516792 -41.5859375 56.44921875 C-48.51725457 63.88463161 -52.53964792 71.95177854 -52.9296875 82.23046875 C-52.51412658 92.39486411 -49.14939312 101.19562718 -42.1484375 108.609375 C-38.21438066 112.20170233 -34.54329201 114.89558874 -29.6171875 116.98046875 C-28.66457031 117.39683594 -27.71195312 117.81320312 -26.73046875 118.2421875 C-22.29759845 119.7247194 -22.29759845 119.7247194 -13.3046875 120.29296875 C-13.3046875 135.14296875 -13.3046875 149.99296875 -13.3046875 165.29296875 C-37.73323809 165.29296875 -57.25645833 157.93846018 -75.0546875 140.91796875 C-91.12221221 124.1356965 -99.17791598 102.36075232 -98.82397461 79.28857422 C-97.93024332 56.64338284 -87.35952011 36.34578915 -71.125 20.70703125 C-49.92080141 2.55717705 -26.91991839 -0.17565074 0 0 Z " fill="#666EB1" transform="translate(113.3046875,291.70703125)"/>
<path d="M0 0 C1.55370743 -0.00174563 3.10741371 -0.00525039 4.66111374 -0.01035666 C8.91878092 -0.01928217 13.17604406 -0.00332655 17.43365979 0.01675558 C22.02933543 0.03405125 26.62498883 0.02818238 31.22068787 0.02514648 C39.17912176 0.02305046 47.13742433 0.03558604 55.0958252 0.05809784 C66.60227339 0.09062474 78.10865817 0.10102557 89.61514735 0.10604981 C108.28423903 0.11480137 126.95326075 0.14141321 145.62231445 0.17926025 C163.75609996 0.21598392 181.88986645 0.24429395 200.02368164 0.2612915 C201.14170319 0.2623424 202.25972475 0.26339329 203.41162574 0.26447603 C209.02048727 0.26969623 214.62934893 0.27475105 220.23821068 0.27972364 C266.7593606 0.32118136 313.28043243 0.39192368 359.80151367 0.48101807 C359.80151367 5.43101807 359.80151367 10.38101807 359.80151367 15.48101807 C356.93012695 15.53709229 356.93012695 15.53709229 354.00073242 15.59429932 C351.49680612 15.65994532 348.99290076 15.72639312 346.48901367 15.79351807 C344.59505859 15.82735596 344.59505859 15.82735596 342.6628418 15.86187744 C341.4543457 15.89732666 340.24584961 15.93277588 339.00073242 15.96929932 C337.88529053 15.9954834 336.76984863 16.02166748 335.62060547 16.04864502 C332.81446875 16.26486191 332.81446875 16.26486191 330.9375 17.79425049 C329.01936407 20.64239171 329.4467759 23.17013216 329.80151367 26.48101807 C330.87270338 28.28778595 330.87270338 28.28778595 332.80151367 29.48101807 C335.70239023 29.98766423 335.70239023 29.98766423 339.00073242 29.99273682 C340.81347656 30.04591064 340.81347656 30.04591064 342.6628418 30.10015869 C344.55679688 30.13399658 344.55679688 30.13399658 346.48901367 30.16851807 C348.40037109 30.2197583 348.40037109 30.2197583 350.3503418 30.27203369 C353.5004201 30.35462001 356.65095367 30.41949198 359.80151367 30.48101807 C359.80151367 35.43101807 359.80151367 40.38101807 359.80151367 45.48101807 C283.24151367 45.48101807 206.68151367 45.48101807 127.80151367 45.48101807 C127.80151367 40.53101807 127.80151367 35.58101807 127.80151367 30.48101807 C129.05448242 30.45523682 130.30745117 30.42945557 131.59838867 30.40289307 C133.24946491 30.34660638 134.90050522 30.28925916 136.55151367 30.23101807 C137.37651367 30.21683838 138.20151367 30.20265869 139.05151367 30.18804932 C142.92434209 30.03188688 145.15771948 29.9348881 148.38354492 27.66070557 C150.13848889 25.40783012 150.13848889 25.40783012 149.73901367 21.85601807 C149.12642917 18.22584883 149.12642917 18.22584883 145.80151367 16.48101807 C142.55335499 16.16681761 142.55335499 16.16681761 138.7591095 16.20254517 C137.67720676 16.19385656 137.67720676 16.19385656 136.57344741 16.18499243 C134.15048247 16.16795283 131.72770756 16.16511257 129.3046875 16.16217041 C127.57027212 16.15287496 125.83586123 16.14270686 124.10145569 16.13172913 C119.3869172 16.10437187 114.67240869 16.08926278 109.95781159 16.0763011 C105.0330118 16.06069557 100.10827346 16.03389717 95.18351746 16.00827026 C85.85507464 15.96143674 76.52662032 15.92471479 67.19811982 15.89159739 C56.57910917 15.85340828 45.96016016 15.80398974 35.34120142 15.75361323 C13.49468432 15.65022537 -8.35187178 15.56098729 -30.19848633 15.48101807 C-29.48926088 12.3618776 -28.6994328 10.45490485 -26.63598633 7.98101807 C-26.18094727 7.41383057 -25.7259082 6.84664307 -25.25708008 6.26226807 C-17.57339577 -0.38623296 -9.61241951 -0.08029859 0 0 Z " fill="#EEECFE" transform="translate(107.198486328125,351.51898193359375)"/>
<path d="M0 0 C31.07538946 -0.08820525 62.15065799 -0.16205282 93.22613358 -0.20426132 C96.89603589 -0.20926406 100.56593793 -0.21444136 104.23583984 -0.21972656 C104.96644198 -0.2207758 105.69704412 -0.22182505 106.44978571 -0.22290608 C118.2749327 -0.2403047 130.10000179 -0.27183937 141.92510259 -0.30861118 C154.06146954 -0.34603578 166.19779574 -0.36823906 178.33421803 -0.37635398 C185.82125843 -0.38183862 193.30807866 -0.39915253 200.79505128 -0.43166587 C206.53899636 -0.45533709 212.28280078 -0.457816 218.0267849 -0.45243073 C220.38099713 -0.45353107 222.73521772 -0.46148642 225.08938026 -0.4768219 C228.30549811 -0.49674453 231.52067649 -0.49193015 234.73681641 -0.48101807 C235.66679601 -0.49266943 236.59677561 -0.5043208 237.55493641 -0.51632524 C244.61770511 -0.45162334 249.88945516 1.27420896 255.2421875 5.96484375 C260.30337691 12.07943861 262.52031641 16.31678075 262.3046875 24.37890625 C261.42610989 31.93692648 257.86076518 36.73865653 252.1953125 41.58984375 C247.20314258 44.79655788 242.20701508 45.29040964 236.40576172 45.25537109 C235.67003937 45.25899155 234.93431702 45.262612 234.17630005 45.26634216 C232.58854278 45.27320397 231.00076209 45.27574767 229.41299057 45.27439499 C226.89928083 45.27342578 224.385994 45.28641627 221.87234497 45.30337524 C214.72921953 45.34954296 207.58614077 45.37426994 200.44287109 45.38085938 C196.06561805 45.3858699 191.68881205 45.41008814 187.31171036 45.44618607 C185.64597378 45.45598733 183.98017577 45.4583142 182.31441879 45.45301437 C179.98760745 45.4459544 177.66213404 45.46319925 175.33544922 45.48583984 C174.64860046 45.47766739 173.96175171 45.46949493 173.25408936 45.46107483 C169.94798835 45.51834542 168.25518612 45.80353422 165.60403442 47.84463501 C163.82694558 49.99800059 163.82694558 49.99800059 163 53 C158.05 53 153.1 53 148 53 C147.01 50.525 147.01 50.525 146 48 C142.55584842 45.70389895 141.26759766 45.74286204 137.21040344 45.7215271 C136.00305542 45.71036362 134.7957074 45.69920013 133.55177307 45.68769836 C132.21200593 45.68533335 130.87223844 45.68315771 129.5324707 45.68115234 C128.12317325 45.67185528 126.71388132 45.66168694 125.30459595 45.65071106 C121.47639501 45.62337182 117.64823095 45.60825009 113.81995797 45.59528303 C109.82004829 45.57966961 105.82021411 45.55287372 101.82035828 45.5272522 C94.24501113 45.48043266 86.66964984 45.44370395 79.09423178 45.41057932 C70.47033775 45.37238034 61.84651948 45.32296438 53.22268927 45.27259517 C35.48184178 45.16922807 17.74096252 45.08146411 0 45 C0 30.15 0 15.3 0 0 Z " fill="#666EB1" transform="translate(235,412)"/>
<path d="M0 0 C34.65 0 69.3 0 105 0 C105.16043524 26.21333517 105.16043524 26.21333517 105.1953125 37.38671875 C105.21922418 45.0110182 105.24751252 52.63512551 105.30175781 60.25927734 C105.34521779 66.40602092 105.3691378 72.55255845 105.37950897 78.69944382 C105.38689998 81.04461282 105.4013328 83.38977055 105.42292023 85.73485184 C105.45195529 89.01960881 105.45595583 92.30351426 105.45410156 95.58837891 C105.46848267 96.55798553 105.48286377 97.52759216 105.49768066 98.52658081 C105.46213257 104.34592066 104.8199032 107.5395094 101 112 C97.60695024 114.82754147 94.4777739 115.66552119 90.02856445 115.47070312 C82.9100079 113.81893071 78.12918903 105.50033612 74.1875 99.9375 C72.96137377 98.25098482 71.73480884 96.5647885 70.5078125 94.87890625 C68.35813854 91.89997257 66.23077659 88.9069264 64.1171875 85.90234375 C63.26621149 84.72613795 62.41469121 83.55032565 61.5625 82.375 C60.84191406 81.35148437 60.12132812 80.32796875 59.37890625 79.2734375 C57.0799755 76.75102124 57.0799755 76.75102124 53.52734375 75.8515625 C49.94413547 75.6671916 49.94413547 75.6671916 47.484375 77.90234375 C46.66453125 78.92457031 45.8446875 79.94679688 45 81 C44.48759766 81.6305127 43.97519531 82.26102539 43.44726562 82.91064453 C41.68406649 85.10542812 39.9641083 87.32919892 38.25 89.5625 C37.63527832 90.35664307 37.02055664 91.15078613 36.38720703 91.96899414 C32.12584401 97.48800071 27.95238078 103.06392465 23.8671875 108.71484375 C20.87747382 112.37380296 18.35583833 114.33162071 13.625 114.9375 C10.1178807 115.21437784 8.95694337 114.98006638 5.625 113.4375 C1.4533348 109.56381089 -0.14667481 105.93735509 -0.36076355 100.29226685 C-0.36945059 98.42157789 -0.36156359 96.55076717 -0.34057617 94.68017578 C-0.34093778 93.63867308 -0.34129938 92.59717037 -0.34167194 91.52410698 C-0.33943892 88.16431095 -0.31662095 84.80501882 -0.29296875 81.4453125 C-0.28855601 79.36645752 -0.28549664 77.28759921 -0.28381348 75.20874023 C-0.26810668 67.51410921 -0.2262229 59.81954962 -0.1875 52.125 C-0.125625 34.92375 -0.06375 17.7225 0 0 Z " fill="#FE8D9D" transform="translate(115,382)"/>
<path d="M0 0 C9.19857185 6.52294163 15.32747271 15.57757645 17.6171875 26.64453125 C18.82896744 37.16498437 15.48443805 47.12120109 9.29296875 55.6171875 C2.34819733 64.01890397 -6.0148541 68.6409223 -16.91015625 70.125 C-28.18211234 70.5858424 -37.69980537 66.92851719 -46.34375 59.73046875 C-54.8038073 51.07592737 -57.80069978 41.63741752 -57.74853516 29.7109375 C-57.5087387 20.17187847 -53.84670321 12.56910014 -47.3828125 5.64453125 C-33.88734966 -7.0220356 -16.38097242 -9.31835644 0 0 Z " fill="#020203" transform="translate(336.3828125,156.35546875)"/>
<path d="M0 0 C1.63582031 -0.03577148 1.63582031 -0.03577148 3.3046875 -0.07226562 C11.62946172 -0.05732883 18.53965409 1.60043916 24.81445312 7.33496094 C30.05133048 12.92249278 31.31252299 18.58733189 31.12109375 26.109375 C30.44648587 32.83403764 26.71145122 38.07399491 21.875 42.5625 C18.5 44.5 18.5 44.5 15.875 45.5625 C17.51924923 49.62418708 20.40524854 52.49793612 23.375 55.625 C30.73050132 63.42715321 30.73050132 63.42715321 31.3125 68 C30.875 71.5625 30.875 71.5625 28.8125 74.0625 C25.875 75.5625 25.875 75.5625 22.625 75.9375 C16.76130342 73.78747792 13.75062374 69.30774249 9.875 64.5625 C8.58847109 63.09963218 7.29730988 61.6408155 6 60.1875 C3.83241465 57.7267147 1.81851395 55.20428244 -0.125 52.5625 C-0.14626953 54.42455078 -0.14626953 54.42455078 -0.16796875 56.32421875 C-0.214882 57.96618243 -0.26312932 59.60810837 -0.3125 61.25 C-0.31830078 62.06662109 -0.32410156 62.88324219 -0.33007812 63.72460938 C-0.48912524 68.08956912 -0.74245486 70.05586879 -3.44921875 73.640625 C-6.125 75.5625 -6.125 75.5625 -9.75 75.625 C-13.52659544 74.43607181 -14.23516085 73.92237007 -16.125 70.5625 C-16.51268005 67.6027832 -16.51268005 67.6027832 -16.52905273 64.11328125 C-16.54173691 62.80512451 -16.55442108 61.49696777 -16.56748962 60.14916992 C-16.56543827 58.72444501 -16.56245031 57.29972117 -16.55859375 55.875 C-16.56315584 54.41056069 -16.56846149 52.94612351 -16.57447815 51.48168945 C-16.5834063 48.41511324 -16.58098924 45.3487975 -16.57104492 42.28222656 C-16.55954816 38.35440273 -16.57977783 34.42747697 -16.60896206 30.49977112 C-16.62731553 27.47654522 -16.62703353 24.45353496 -16.62132454 21.43026733 C-16.62117126 19.98219542 -16.62722151 18.53410896 -16.63961601 17.08609009 C-16.65450715 15.06134983 -16.64122866 13.03646171 -16.62670898 11.01171875 C-16.62654282 9.86018311 -16.62637665 8.70864746 -16.62620544 7.5222168 C-15.12058957 -1.36874127 -7.15090338 -0.07035032 0 0 Z " fill="#010102" transform="translate(385.125,150.4375)"/>
<path d="M0 0 C1.67603529 0.00112944 3.35207255 0.00049273 5.02810669 -0.00177002 C9.56072125 -0.00291432 14.09290954 0.02054876 18.62542534 0.04852581 C23.36862889 0.073587 28.11184299 0.07588518 32.85510254 0.08062744 C41.82933614 0.09304337 50.80337405 0.12584624 59.77752161 0.1660254 C69.99755757 0.21078618 80.21760304 0.23274098 90.43771267 0.25280714 C111.4540269 0.29458011 132.47016517 0.36490524 153.48632812 0.45410156 C152.99261719 1.19015625 152.49890625 1.92621094 151.99023438 2.68457031 C151.34957031 3.66039062 150.70890625 4.63621094 150.04882812 5.64160156 C149.41074219 6.60453125 148.77265625 7.56746094 148.11523438 8.55957031 C146.17810694 11.65190273 146.17810694 11.65190273 145.48632812 16.45410156 C57.87132812 15.95910156 57.87132812 15.95910156 -31.51367188 15.45410156 C-30.60929032 11.83657534 -30.19726933 10.64697044 -27.95117188 7.95410156 C-27.49613281 7.38691406 -27.04109375 6.81972656 -26.57226562 6.23535156 C-18.56121365 -0.69641257 -10.01657044 -0.09458029 0 0 Z " fill="#D3D3FE" transform="translate(108.513671875,351.5458984375)"/>
<path d="M0 0 C4.33292436 0.79584325 5.47728986 1.97096645 8.0625 5.5625 C8.68349998 9.68622748 8.5317571 13.71691386 8.375 17.875 C8.271875 21.731875 8.16875 25.58875 8.0625 29.5625 C16.6425 29.5625 25.2225 29.5625 34.0625 29.5625 C33.86528464 21.88837999 33.86528464 21.88837999 33.61206055 14.21606445 C33.50995992 6.3503638 33.50995992 6.3503638 36.35546875 2.29296875 C39.0625 0.5625 39.0625 0.5625 42.6875 0.5625 C47.13789392 1.88113524 47.13789392 1.88113524 49.0625 4.5625 C49.45690918 7.39523315 49.45690918 7.39523315 49.48242188 10.88232422 C49.49833374 12.1873288 49.51424561 13.49233337 49.53063965 14.83688354 C49.531907 16.26365098 49.53208371 17.69041974 49.53125 19.1171875 C49.53835114 20.58066094 49.54605007 22.04413159 49.55432129 23.50759888 C49.56777255 26.57594538 49.56933256 29.64403459 49.56347656 32.71240234 C49.55758567 36.63918938 49.58814139 40.56473776 49.62859344 44.49128532 C49.654483 47.51456317 49.6573467 50.53754349 49.65370178 53.5609169 C49.65539251 55.00818108 49.66503077 56.45545908 49.68284607 57.90261459 C49.70504931 59.92958442 49.69211883 61.95684633 49.67773438 63.98388672 C49.67978882 65.13621796 49.68184326 66.28854919 49.68395996 67.47579956 C48.86720746 71.5324894 47.28947886 73.05023812 44.0625 75.5625 C40.4375 75.625 40.4375 75.625 37.0625 74.5625 C34.77147598 72.27973728 34.10950126 70.95454777 33.72192383 67.72167969 C33.7454895 66.11921387 33.7454895 66.11921387 33.76953125 64.484375 C33.78077026 62.91574707 33.78077026 62.91574707 33.79223633 61.31542969 C33.81954834 59.99446289 33.84686035 58.67349609 33.875 57.3125 C33.936875 53.105 33.99875 48.8975 34.0625 44.5625 C25.4825 44.5625 16.9025 44.5625 8.0625 44.5625 C8.14146574 52.60999983 8.14146574 52.60999983 8.24267578 60.65722656 C8.2476709 61.66237305 8.25266602 62.66751953 8.2578125 63.703125 C8.26828613 64.72954102 8.27875977 65.75595703 8.28955078 66.81347656 C8.0556839 69.64502617 7.63177994 71.21412179 6.0625 73.5625 C2.57125983 75.88999345 1.17027749 76.06549316 -2.9375 75.5625 C-5.85227983 73.38271865 -6.83123571 72.18964064 -7.44543457 68.56481934 C-7.44861694 67.3955188 -7.45179932 66.22621826 -7.45507812 65.02148438 C-7.4620874 64.37383621 -7.46909668 63.72618805 -7.47631836 63.05891418 C-7.49388226 60.92425288 -7.4822832 58.79092409 -7.46875 56.65625 C-7.47144542 55.16939032 -7.47532827 53.68253236 -7.48034668 52.19567871 C-7.48623948 49.08194164 -7.47768647 45.96866406 -7.45898438 42.85498047 C-7.43619415 38.86658912 -7.44931851 34.87927441 -7.47327423 30.89092255 C-7.48773858 27.82134917 -7.48312348 24.75203045 -7.47276306 21.68244934 C-7.4700975 20.21206026 -7.47335961 18.74164796 -7.48268127 17.27128601 C-7.49285835 15.21474099 -7.47733402 13.15993157 -7.45507812 11.10351562 C-7.45189575 9.93421509 -7.44871338 8.76491455 -7.44543457 7.56018066 C-6.65737454 2.90928182 -4.59985806 0.88082388 0 0 Z " fill="#010102" transform="translate(66.9375,150.4375)"/>
<path d="M0 0 C2.875 2.6875 2.875 2.6875 4.125 6.1875 C3.875 9.6875 3.875 9.6875 1.8125 12.625 C-1.125 14.6875 -1.125 14.6875 -4.0625 15.25 C-7.84519509 14.55521927 -10.04653654 12.94503987 -13.125 10.6875 C-15.91101223 9.75882926 -17.73566089 9.52407783 -20.625 9.5 C-21.3984375 9.48582031 -22.171875 9.47164062 -22.96875 9.45703125 C-25.42180056 9.55088472 -25.42180056 9.55088472 -28.125 11.6875 C-28.3752157 14.77115871 -28.3752157 14.77115871 -28.125 17.6875 C-27.50044922 17.923479 -26.87589844 18.15945801 -26.23242188 18.40258789 C-23.35623299 19.50085136 -20.4908923 20.6251555 -17.625 21.75 C-16.15160156 22.3059082 -16.15160156 22.3059082 -14.6484375 22.87304688 C-6.87292817 25.95733224 -0.331143 29.96969927 4.375 37.0625 C6.75467484 42.81338086 6.64625035 47.88719419 4.8125 53.8125 C2.09593856 60.12599002 -2.57370682 64.26281535 -8.75 67.125 C-18.29763713 70.45220688 -27.32597473 69.50244227 -36.3828125 65.23828125 C-41.96287727 62.08260359 -46.20915156 59.21698617 -48.4375 53.0625 C-48.125 49.6875 -48.125 49.6875 -46.125 46.6875 C-43.125 44.6875 -43.125 44.6875 -39.8125 44.5 C-35.73239322 45.81393269 -33.18323234 47.5990507 -29.921875 50.3125 C-26.17881346 53.17675579 -22.11004799 53.08156345 -17.58203125 53.03515625 C-14.82804081 52.83125503 -14.82804081 52.83125503 -11.9375 50.5 C-9.86724297 47.88983101 -9.86724297 47.88983101 -10.2578125 45.16015625 C-10.90013889 42.61227705 -10.90013889 42.61227705 -12.84765625 41.3515625 C-13.61980469 41.00867188 -14.39195312 40.66578125 -15.1875 40.3125 C-16.52748047 39.69375 -16.52748047 39.69375 -17.89453125 39.0625 C-20.30104641 38.03820334 -22.71218373 37.04215635 -25.13671875 36.0625 C-38.83222497 30.45187277 -38.83222497 30.45187277 -43.125 23.6875 C-45.18264538 17.51456385 -45.25595462 10.17560016 -42.5625 4.25 C-30.13016366 -8.81989205 -15.4526789 -9.50449904 0 0 Z " fill="#010203" transform="translate(208.125,157.3125)"/>
<path d="M0 0 C0.02578125 0.96421875 0.0515625 1.9284375 0.078125 2.921875 C0.13484375 4.18515625 0.1915625 5.4484375 0.25 6.75 C0.29640625 8.00296875 0.3428125 9.2559375 0.390625 10.546875 C1.07629602 14.43234411 1.86919759 15.67938675 5 18 C8.16374283 18.3858223 9.95713516 18.01428828 13 17 C14.21869929 14.49552484 14.21869929 14.49552484 15 12 C17.68026673 14.56373339 18.90963204 15.954102 19.23828125 19.7578125 C19.42217424 28.10074692 18.88875458 33.55309477 13.33984375 39.8984375 C6.39413179 46.65874031 -1.48728589 49.17770723 -11.0625 49.5 C-20.4334529 49.18251416 -27.51461548 46.41360782 -34.3046875 39.8984375 C-39.70142377 33.85508767 -40.72475097 28.17823617 -40.4453125 20.12109375 C-39.46736071 13.26685268 -35.32699148 8.51030876 -29.9921875 4.3203125 C-21.15423251 -1.53699884 -10.2477976 -3.10462834 0 0 Z " fill="#FCD9DF" transform="translate(183,87)"/>
<path d="M0 0 C7.42620585 0.34380583 13.489037 1.63417523 18.984375 6.90234375 C24.94780802 13.51879733 26.48554115 17.75978976 26.3046875 26.7421875 C25.69368668 33.27519629 23.07689339 37.23445079 18.4375 41.75 C10.62404067 48.03817998 2.25208837 49.71393687 -7.63671875 49.37890625 C-16.3812792 48.39374671 -23.16849245 44.55708684 -29 38 C-32.87111678 32.83851097 -33.68803655 27.71700845 -33.4609375 21.33203125 C-33 19 -33 19 -30.6875 17.375 C-29.3571875 16.694375 -29.3571875 16.694375 -28 16 C-26.98632835 13.72136836 -26.32012114 11.46597407 -25.67578125 9.05859375 C-25 7 -25 7 -23 5 C-16.93981481 4.44907407 -16.93981481 4.44907407 -14.1875 6.0625 C-12.47534705 8.8560127 -11.85809193 11.85366291 -11 15 C-9.06268472 17.36410488 -9.06268472 17.36410488 -5.5625 17.3125 C-2.13051531 17.32063863 -2.13051531 17.32063863 -0.29296875 15.75390625 C1.33630259 13.54380706 1.34283253 12.34499299 1.25 9.625 C1.22421875 8.83480469 1.1984375 8.04460937 1.171875 7.23046875 C0.98143288 4.75904936 0.61964403 2.40112063 0 0 Z " fill="#FCD9DE" transform="translate(343,87)"/>
<path d="M0 0 C4.25852524 3.70245335 7.21048075 7.99626594 10.25 12.6875 C10.69601562 13.36361328 11.14203125 14.03972656 11.6015625 14.73632812 C14.8139881 19.62797619 14.8139881 19.62797619 16 22 C17.18873828 20.37590562 18.37590343 18.75065981 19.5625 17.125 C20.2946875 16.12984375 21.026875 15.1346875 21.78125 14.109375 C23.18920531 12.13625453 24.55020169 10.1280702 25.84375 8.078125 C30.12321762 1.34768957 30.12321762 1.34768957 34.625 -0.4375 C38 0 38 0 41 2 C43 5 43 5 42.94921875 8.1640625 C41.75687938 12.98248745 39.59942747 16.32128731 36.8125 20.375 C36.34263672 21.07882813 35.87277344 21.78265625 35.38867188 22.5078125 C34.91623047 23.21421875 34.44378906 23.920625 33.95703125 24.6484375 C33.4787085 25.37168213 33.00038574 26.09492676 32.50756836 26.84008789 C31 29 31 29 29.32250977 30.97045898 C23.6374426 38.06137424 24.20327657 45.67611653 24.3125 54.3125 C24.3238341 56.49371058 24.32642761 58.67407361 24.3120575 60.85527039 C24.30135421 62.82057582 24.31847025 64.78597497 24.3371582 66.7512207 C23.97565842 70.23454993 23.50291996 71.59747129 21 74 C17.625 75.0625 17.625 75.0625 14 75 C10.62775087 72.42020049 9.15092335 70.98471783 8.49926758 66.73291016 C8.54720459 65.51394043 8.5951416 64.2949707 8.64453125 63.0390625 C8.67035148 61.67362836 8.69361577 60.30814398 8.71459961 58.94262695 C8.73247528 58.23643219 8.75035095 57.53023743 8.76876831 56.80264282 C9.02729704 43.92906648 8.33216 34.3838999 -0.65576172 24.54589844 C-2.96854214 21.88615894 -4.7775723 18.92996788 -6.625 15.9375 C-7.27726562 14.93589844 -7.92953125 13.93429688 -8.6015625 12.90234375 C-10.18014055 9.62613289 -10.40419571 7.59228941 -10 4 C-7.2247536 -0.05612936 -4.80517165 -0.88258255 0 0 Z " fill="#010102" transform="translate(439,151)"/>
<path d="M0 0 C6.67726298 3.10872573 11.43242109 7.10932379 14.234375 14.08984375 C14.96781259 21.01485912 15.33370395 28.27921282 11.63671875 34.41015625 C7.4122429 39.4701134 1.60475978 43.60340092 -5.01171875 44.33984375 C-12.70283468 44.71444909 -17.62307073 42.66102452 -23.515625 37.83984375 C-28.71062972 31.49039354 -30.47478757 26.27968999 -30.140625 17.98828125 C-29.30449044 11.52565787 -26.88626652 7.68907299 -21.765625 3.71484375 C-14.80702588 -1.15073923 -8.33885437 -2.74428399 0 0 Z " fill="#8086C8" transform="translate(323.765625,166.91015625)"/>
<path d="M0 0 C0.84812759 -0.00619858 1.69625519 -0.01239716 2.57008362 -0.01878357 C4.36124526 -0.0258775 6.15247289 -0.0227151 7.94360352 -0.01000977 C10.67913697 0.00384411 13.41124047 -0.03020234 16.14648438 -0.06835938 C17.88932375 -0.06931074 19.6321674 -0.06745079 21.375 -0.0625 C22.18972275 -0.07575821 23.0044455 -0.08901642 23.84385681 -0.10267639 C28.10364337 -0.03311688 29.7984194 0.22113723 33.30493164 2.87915039 C35.25390625 5.56640625 35.25390625 5.56640625 35.31640625 9.19140625 C34.1303836 12.95877232 33.6106873 13.68773719 30.25390625 15.56640625 C27.23828125 15.859375 27.23828125 15.859375 24.00390625 15.75390625 C22.38742187 15.71330078 22.38742187 15.71330078 20.73828125 15.671875 C19.9184375 15.63707031 19.09859375 15.60226563 18.25390625 15.56640625 C18.26500931 16.24434738 18.27611237 16.92228851 18.28755188 17.62077332 C18.39817412 24.67714259 18.47358613 31.73326555 18.52856445 38.7902832 C18.55370782 41.42384852 18.58782709 44.05734407 18.63110352 46.69067383 C18.69175835 50.47624934 18.72011895 54.26090223 18.7421875 58.046875 C18.76799393 59.22412643 18.79380035 60.40137787 18.82038879 61.61430359 C18.82351403 70.72354453 18.82351403 70.72354453 15.94995117 73.8449707 C13.25390625 75.56640625 13.25390625 75.56640625 9.62890625 75.62890625 C5.87085512 74.44581608 5.16331275 73.88516042 3.25390625 70.56640625 C2.8931427 67.99737549 2.8931427 67.99737549 2.91333008 65.06347656 C2.91355667 63.96263733 2.91378326 62.8617981 2.91401672 61.7276001 C2.92950058 60.54518738 2.94498444 59.36277466 2.9609375 58.14453125 C2.96518234 56.92940857 2.96942719 55.71428589 2.97380066 54.46234131 C2.99059749 50.58013786 3.02825287 46.69845289 3.06640625 42.81640625 C3.08145173 40.18490333 3.09514037 37.55339227 3.10742188 34.921875 C3.1405044 28.46987508 3.19071446 22.01817771 3.25390625 15.56640625 C2.4340625 15.6128125 1.61421875 15.65921875 0.76953125 15.70703125 C-0.308125 15.743125 -1.38578125 15.77921875 -2.49609375 15.81640625 C-4.09710938 15.88601562 -4.09710938 15.88601562 -5.73046875 15.95703125 C-8.74609375 15.56640625 -8.74609375 15.56640625 -11.10546875 13.76953125 C-13.48697578 10.57150753 -13.30094105 8.45033735 -12.74609375 4.56640625 C-9.45838427 -0.26865145 -5.38965142 -0.0327298 0 0 Z " fill="#010102" transform="translate(236.74609375,150.43359375)"/>
<path d="M0 0 C3.8428296 0.62740075 5.33212002 1.74427533 8.0625 4.5 C8.69741821 7.45298767 8.69741821 7.45298767 8.70947266 10.93334961 C8.72523346 12.23827866 8.74099426 13.5432077 8.75723267 14.88768005 C8.74828195 16.3092432 8.73802673 17.73079865 8.7265625 19.15234375 C8.7299322 20.61438907 8.7347861 22.07643166 8.74105835 23.53846741 C8.74842497 26.60103047 8.73773397 29.66286369 8.71435547 32.7253418 C8.68589128 36.64435268 8.70225537 40.56164974 8.73221779 44.4805975 C8.75031906 47.49964724 8.74451974 50.51829326 8.73157883 53.53735542 C8.72825123 54.98179898 8.73230923 56.42627959 8.74397659 57.87067986 C8.75672511 59.89286438 8.73383626 61.91517792 8.70947266 63.93725586 C8.70549469 65.08657089 8.70151672 66.23588593 8.69741821 67.42002869 C7.86372022 71.46427542 6.28180707 72.99067122 3.0625 75.5 C-0.5625 75.5625 -0.5625 75.5625 -3.9375 74.5 C-6.27685538 72.19166718 -6.8954117 70.82132025 -7.32518005 67.5402832 C-7.33058304 66.38874756 -7.33598602 65.23721191 -7.34155273 64.05078125 C-7.35423691 62.74262451 -7.36692108 61.43446777 -7.37998962 60.08666992 C-7.37793827 58.66194501 -7.37495031 57.23722117 -7.37109375 55.8125 C-7.37565584 54.34806069 -7.38096149 52.88362351 -7.38697815 51.41918945 C-7.3959063 48.35261324 -7.39348924 45.2862975 -7.38354492 42.21972656 C-7.37204816 38.29190273 -7.39227783 34.36497697 -7.42146206 30.43727112 C-7.43981553 27.41404522 -7.43953353 24.39103496 -7.43382454 21.36776733 C-7.43367126 19.91969542 -7.43972151 18.47160896 -7.45211601 17.02359009 C-7.46700715 14.99884983 -7.45372866 12.97396171 -7.43920898 10.94921875 C-7.43904282 9.79768311 -7.43887665 8.64614746 -7.43870544 7.4597168 C-6.65621418 2.83895185 -4.59431978 0.78201188 0 0 Z " fill="#000001" transform="translate(137.9375,150.5)"/>
<path d="M0 0 C5.55025163 3.37313272 9.15364781 7.822021 11.2578125 13.97265625 C12.05362583 18.40647338 12.0673416 21.64502853 9.6953125 25.53515625 C6.27474633 27.55241322 4.15907302 27.59964455 0.2578125 26.97265625 C-3.21810158 23.77857304 -4.42453886 20.4323901 -5.7421875 15.97265625 C-6.91328934 14.58356986 -6.91328934 14.58356986 -10.1796875 14.72265625 C-11.3553125 14.80515625 -12.5309375 14.88765625 -13.7421875 14.97265625 C-15.92982261 17.90236661 -15.92982261 17.90236661 -16.6796875 21.53515625 C-17.7421875 24.97265625 -17.7421875 24.97265625 -20.7421875 26.97265625 C-26.95860541 27.52769356 -26.95860541 27.52769356 -29.4296875 25.77734375 C-32.13139142 22.06250086 -31.37829711 17.32435939 -30.7421875 12.97265625 C-28.35897594 7.04895343 -24.39379031 3.22612285 -19.0078125 -0.09765625 C-13.26218252 -2.45534579 -5.75507875 -2.156105 0 0 Z " fill="#030303" transform="translate(333.7421875,78.02734375)"/>
<path d="M0 0 C3.51018736 0.6622995 4.71111392 1.52337513 7.5 3.625 C11.97140556 6.81238707 15.35005461 7.39845632 20.7890625 7.09375 C25.4393397 6.22992142 28.00020412 3.93729588 31.3125 0.625 C35.20451406 0.19255399 37.44480302 0.04653535 40.75 2.25 C42.85353258 5.44736952 43.05195225 6.85379353 42.3125 10.625 C38.35616573 17.28146021 32.43301225 20.25149592 25.3125 22.625 C15.78453036 23.3820464 7.28588026 23.63523739 -0.6875 17.625 C-4.23851096 14.5465026 -6.39724283 12.10531158 -7.3125 7.4375 C-6.31195548 2.93504966 -4.50407621 1.04745958 0 0 Z " fill="#020203" transform="translate(237.6875,90.375)"/>
<path d="M0 0 C2.64708201 1.99993089 4.65120717 3.6057135 5.48120117 6.92358398 C5.67318739 9.13642385 5.68251388 11.27996406 5.625 13.5 C5.64433594 14.24636719 5.66367188 14.99273437 5.68359375 15.76171875 C5.64663031 19.93858748 5.30425847 21.60168866 2.6875 25.02734375 C0 27 0 27 -3.625 27.0625 C-7.46173978 25.85463748 -8.16355599 25.48215942 -10 22 C-10.4611039 18.99265327 -10.46418843 16.03762826 -10.4375 13 C-10.45748047 12.19304687 -10.47746094 11.38609375 -10.49804688 10.5546875 C-10.49486396 6.69699439 -10.47713871 4.65404396 -8.15625 1.47265625 C-5.16187039 -0.57241823 -3.55510628 -0.6529787 0 0 Z " fill="#040405" transform="translate(193,79)"/>
<path d="M0 0 C0.66 1.32 1.32 2.64 2 4 C2.82485306 5.52544941 3.65846159 7.04619146 4.5 8.5625 C5.13421875 9.70912109 5.13421875 9.70912109 5.78125 10.87890625 C6.78572841 12.62708501 7.88160749 14.32241124 9 16 C0.09 16 -8.82 16 -18 16 C-18 11.05 -18 6.1 -18 1 C-12.06 0.67 -6.12 0.34 0 0 Z " fill="#D4D3FE" transform="translate(253,381)"/>
<path d="M0 0 C7.59 0 15.18 0 23 0 C23 4.95 23 9.9 23 15 C16.64672908 15.45380507 12.24195653 14.76211989 7 11 C4.38535964 8.53420064 1.97708298 6.00887316 0 3 C0 2.01 0 1.02 0 0 Z " fill="#D0D0FB" transform="translate(77,382)"/>
<path d="M0 0 C12.03647687 -0.43505338 12.03647687 -0.43505338 16 3 C17.40457737 5.80915474 17.24895157 7.88810534 17 11 C15.22015595 14.1359157 14.47691793 14.84102736 11 16 C7.32893957 16.13281695 3.67480286 16.04323297 0 16 C0 10.72 0 5.44 0 0 Z " fill="#8086C8" transform="translate(384,166)"/>
<path d="M0 0 C0.99 0.66 1.98 1.32 3 2 C2.01 2.495 2.01 2.495 1 3 C0.5316735 5.58605332 0.5316735 5.58605332 0.375 8.5625 C0.30023438 9.57441406 0.22546875 10.58632812 0.1484375 11.62890625 C0.09945312 12.41136719 0.05046875 13.19382813 0 14 C-1.41791408 13.54554036 -2.83428046 13.08625056 -4.25 12.625 C-5.03890625 12.36976563 -5.8278125 12.11453125 -6.640625 11.8515625 C-8.86627958 11.04826333 -10.90931672 10.10288338 -13 9 C-13.47792208 3.62337662 -13.47792208 3.62337662 -11.5625 1.125 C-7.7905183 -0.53099197 -4.06173896 -0.57597403 0 0 Z " fill="#636BAB" transform="translate(192,166)"/>
<path d="M0 0 C5 2 5 2 7 4 C6.84910669 7.54599288 6.65238084 9.3686637 4.0625 11.875 C2 13 2 13 0 13 C0 8.71 0 4.42 0 0 Z " fill="#7C82C3" transform="translate(192,197)"/>
</svg>
