<?xml version="1.0" encoding="UTF-8"?>
<svg version="1.1" xmlns="http://www.w3.org/2000/svg" width="512" height="512">
<path d="M0 0 C1.5355402 -0.00270526 3.07107872 -0.00659617 4.60661316 -0.01159668 C7.78389213 -0.01742027 10.96071444 -0.00914887 14.13793945 0.00976562 C18.20553551 0.03280742 22.27209013 0.01923095 26.33965015 -0.00452423 C29.49240525 -0.01896222 32.6449117 -0.01438994 35.79767418 -0.00401306 C37.2987652 -0.00135327 38.79987907 -0.00458918 40.30094337 -0.01393127 C42.38719735 -0.02409276 44.47173541 -0.0086172 46.55786133 0.01367188 C47.74124588 0.01685425 48.92463043 0.02003662 50.14387512 0.02331543 C53.79701599 0.6369064 54.98498715 1.58160534 57.16796875 4.53125 C57.66796875 8.03125 57.66796875 8.03125 57.16796875 11.53125 C55.14176378 14.13983712 53.94730808 15.37319232 50.67536926 16.03677368 C49.74069321 16.03962372 48.80601715 16.04247375 47.84301758 16.04541016 C46.24403374 16.06530502 46.24403374 16.06530502 44.61274719 16.08560181 C42.88631233 16.0780336 42.88631233 16.0780336 41.125 16.0703125 C39.32949959 16.08800186 39.32949959 16.08800186 37.49772644 16.10604858 C33.65851021 16.14137703 29.81983417 16.15047254 25.98046875 16.15625 C-1.89859488 15.5756637 -1.89859488 15.5756637 -29.01953125 21.09375 C-29.75945312 21.34987061 -30.499375 21.60599121 -31.26171875 21.86987305 C-50.45338767 28.91603979 -66.75658713 44.30323334 -75.83203125 62.53125 C-83.71384281 81.67903043 -83.98274811 99.90923252 -83.94555664 120.29418945 C-83.94527413 122.47341918 -83.94543374 124.65264899 -83.94599915 126.83187866 C-83.94628464 132.71316111 -83.94042801 138.59442294 -83.93342519 144.47570062 C-83.92715035 150.63493764 -83.92658459 156.79417519 -83.92539978 162.95341492 C-83.92229861 174.60129816 -83.91410164 186.24917195 -83.90405029 197.89705104 C-83.89285138 211.16432978 -83.8873692 224.43160899 -83.88235486 237.69889128 C-83.87191796 264.97634941 -83.85434212 292.25379918 -83.83203125 319.53125 C-83.28539322 318.84454224 -82.73875519 318.15783447 -82.17555237 317.45031738 C-81.45705612 316.54954468 -80.73855988 315.64877197 -79.99829102 314.72070312 C-79.28665298 313.82774536 -78.57501495 312.9347876 -77.84181213 312.01477051 C-62.40400973 292.93801484 -40.90375042 281.52540748 -16.83203125 277.53125 C-11.5192529 277.04081342 -6.24332425 276.99137044 -0.91311646 277.03004456 C0.6090996 277.02613891 2.13131197 277.02048845 3.65351593 277.01327366 C7.78242477 276.9986845 11.9109458 277.0085998 16.03984141 277.02301037 C20.51273405 277.03421039 24.98557624 277.02214858 29.45846558 277.01316833 C38.19557391 276.9992996 46.93253685 277.0067424 55.66963814 277.02184392 C65.84750752 277.03876279 76.02534128 277.03548685 86.20322038 277.03174984 C104.35474785 277.02588403 122.50620571 277.03999815 140.65771484 277.06469727 C158.27297568 277.08866395 175.88814375 277.09568065 193.50341797 277.08520508 C212.70597221 277.07380598 231.90848366 277.07184947 251.11103737 277.08630317 C253.15625071 277.087829 255.20146405 277.08934936 257.2466774 277.09086418 C258.75601855 277.0920009 258.75601855 277.0920009 260.29585143 277.09316059 C267.39346751 277.09790734 274.49106448 277.09604957 281.58868027 277.09179878 C290.22493368 277.08688218 298.8610993 277.09281284 307.49733256 277.11269308 C311.90484455 277.12258837 316.3122226 277.12764587 320.71974182 277.11980057 C324.74954386 277.11277392 328.77907486 277.11947689 332.808841 277.1374042 C334.27068634 277.14146796 335.73255615 277.14041676 337.19439255 277.13388533 C339.17303797 277.12579744 341.15173564 277.13778838 343.13035393 277.15093327 C344.78255402 277.15247696 344.78255402 277.15247696 346.4681319 277.15405184 C349.16796875 277.53125 349.16796875 277.53125 351.02041733 278.92025417 C352.53416708 281.04533937 352.568883 282.43982538 352.54296875 285.03125 C352.55070312 285.8046875 352.5584375 286.578125 352.56640625 287.375 C352.05817882 290.12540725 351.39268432 290.85185267 349.16796875 292.53125 C346.55033761 292.90795618 346.55033761 292.90795618 343.33058643 292.91042423 C341.49196953 292.92275895 341.49196953 292.92275895 339.61620885 292.93534285 C338.24868009 292.92933056 336.8811525 292.92304616 335.5136261 292.91651917 C334.06638137 292.92052385 332.61913978 292.92584879 331.17190427 292.93238491 C327.18475242 292.94658473 323.1978035 292.94208906 319.21064126 292.93467176 C314.91380337 292.92994525 310.61701309 292.94248372 306.32019043 292.95303345 C298.86866817 292.96903644 291.41720032 292.97428158 283.965662 292.97250557 C273.17450004 292.97012367 262.38342503 292.9861036 251.59228577 293.00695812 C234.06242538 293.04051916 216.53257275 293.06215557 199.00268555 293.07495117 C197.42799523 293.07610541 197.42799523 293.07610541 195.82149299 293.07728296 C191.56892535 293.08038468 187.31635769 293.08346751 183.06379001 293.086523 C171.3852168 293.09503695 159.70664631 293.10594177 148.02807617 293.11791992 C146.46121395 293.11952195 146.46121395 293.11952195 144.86269794 293.12115634 C127.41512215 293.13928017 109.96756472 293.16529488 92.52000684 293.19605106 C81.76462322 293.2145636 71.00928091 293.22551826 60.25388112 293.22657298 C52.87174566 293.22768068 45.48963842 293.23567275 38.1075149 293.24895663 C33.85445844 293.25633948 29.60146375 293.26050056 25.34840202 293.25583839 C21.44386301 293.25159959 17.53944432 293.25669087 13.63492265 293.26874625 C12.23298975 293.27148175 10.83104522 293.27095433 9.42911652 293.26656515 C-17.70589783 293.188569 -40.61191174 299.36356933 -60.95703125 318.15625 C-75.67984404 333.67654848 -83.23940212 353.40801136 -83.20703125 374.65625 C-83.20541992 375.75775391 -83.20380859 376.85925781 -83.20214844 377.99414062 C-83.07110241 386.7459599 -81.92235736 394.28681598 -78.83203125 402.53125 C-78.38150391 403.75908203 -78.38150391 403.75908203 -77.921875 405.01171875 C-77.00193985 407.26177659 -75.96410871 409.38030283 -74.83203125 411.53125 C-74.3628125 412.45164062 -73.89359375 413.37203125 -73.41015625 414.3203125 C-63.28892932 432.97228784 -46.66750505 445.98240442 -26.64453125 452.78125 C-19.9747882 454.72962343 -13.27866005 455.47751055 -6.38671875 456.13671875 C-2.83203125 456.53125 -2.83203125 456.53125 0.16796875 457.53125 C0.16796875 442.68125 0.16796875 427.83125 0.16796875 412.53125 C-3.46203125 412.53125 -7.09203125 412.53125 -10.83203125 412.53125 C-21.49044856 410.62843642 -29.23750769 403.53892866 -35.33203125 394.90625 C-41.31838876 385.82230053 -41.13996358 373.72048877 -39.25 363.33203125 C-36.13944529 353.37541547 -28.69698881 346.3081569 -20.16796875 340.6875 C-14.89869613 338.07929817 -9.79339008 337.28109524 -3.96473789 337.2751236 C-3.30734551 337.27172673 -2.64995313 337.26832986 -1.97263977 337.26483005 C0.22164988 337.25589399 2.41567173 337.26108446 4.60997009 337.26623535 C6.20248502 337.26266302 7.79499818 337.25821173 9.38750845 337.25295877 C13.75727645 337.24104797 18.12696942 337.24147544 22.49674976 337.24389386 C27.21190118 337.24431352 31.92702682 337.23321351 36.64216614 337.22343445 C44.81117316 337.20798221 52.98016292 337.19957045 61.14918327 337.19572449 C72.96891463 337.18997552 84.78859957 337.17138644 96.60831041 337.14928395 C115.79672735 337.1135663 134.98514691 337.08525213 154.17358398 337.06298828 C155.32190429 337.06165329 156.4702246 337.0603183 157.65334249 337.05894285 C165.80405103 337.04951553 173.95475985 337.04035243 182.10546875 337.03125 C191.41430686 337.02085362 200.7231448 337.01033666 210.03198242 336.99951172 C211.17860043 336.99818098 212.32521843 336.99685023 213.50658243 336.99547917 C232.62214584 336.97305258 251.73768941 336.94285934 270.85323244 336.90711927 C282.64380953 336.88545269 294.43435574 336.8708332 306.22495163 336.86528051 C314.3026795 336.86103448 322.38037795 336.84979974 330.45808952 336.83305657 C335.11928255 336.82364901 339.78042059 336.81753832 344.44162369 336.82011986 C348.70950135 336.82243291 352.97726351 336.81560118 357.24511773 336.80154103 C358.78810539 336.7980823 360.33110506 336.79798593 361.87409233 336.80161363 C376.42850986 336.9658583 376.42850986 336.9658583 389.16796875 330.53125 C396.61388857 322.25800576 396.31739888 313.90219675 396.30168152 303.27200317 C396.30394708 302.14531184 396.30621263 301.01862051 396.30854684 299.85778701 C396.31487175 296.08633323 396.31405844 292.31491553 396.31323242 288.54345703 C396.31568187 285.83784855 396.31959931 283.1322426 396.32341003 280.42663574 C396.33170395 273.84254679 396.33446429 267.25846679 396.33502241 260.67437305 C396.33549811 255.32135478 396.33755557 249.96833945 396.34072304 244.61532211 C396.34952573 229.42911078 396.35414295 214.24290651 396.35339256 199.05669262 C396.35335261 198.23860417 396.35331265 197.42051572 396.35327148 196.57763672 C396.3532306 195.75854635 396.35318972 194.93945597 396.3531476 194.09554468 C396.35274111 180.81981227 396.3623124 167.54410821 396.37640985 154.26838399 C396.39078023 140.62773722 396.39767969 126.98710427 396.39681607 113.34644973 C396.39648436 105.69193376 396.39922027 98.03744753 396.40999413 90.38293839 C396.41910777 83.8663816 396.42126724 77.34986804 396.4144847 70.83330764 C396.411224 67.5106577 396.41223753 64.18815822 396.41983795 60.86550522 C396.42755419 57.25841756 396.42291527 53.65154709 396.41520691 50.04446411 C396.42292225 48.48009713 396.42292225 48.48009713 396.43079346 46.88412678 C396.38985287 38.20405364 395.8220625 30.47770803 390.16796875 23.53125 C381.91367825 16.10238855 373.72827669 16.38410545 363.084198 16.40667725 C361.856828 16.4052671 360.62945801 16.40385695 359.36489499 16.40240407 C356.67455232 16.40001701 353.98428102 16.39944784 351.29394531 16.40196037 C346.91634471 16.40602842 342.53876338 16.40324681 338.16116333 16.39961243 C332.62961334 16.39552549 327.09806768 16.39328288 321.56651618 16.39319643 C310.70229362 16.3929936 299.83811562 16.38052881 288.97390747 16.36358643 C287.26319978 16.36098071 285.55249207 16.3583819 283.84178436 16.3557899 C281.2494609 16.35185164 278.65713745 16.34790509 276.06481405 16.34392868 C266.2969546 16.32898951 256.52909381 16.31536025 246.76123047 16.30322266 C245.86848829 16.3021091 244.97574611 16.30099553 244.05595113 16.29984823 C229.57400924 16.28225543 215.09209527 16.27940547 200.61014448 16.28107306 C185.74344401 16.28235098 170.87684771 16.2646479 156.01018727 16.23005509 C146.83834002 16.20938045 137.66674196 16.20408612 128.49488141 16.2183834 C122.21449506 16.22682651 115.93430299 16.21715313 109.65395771 16.1930739 C106.0280372 16.17973506 102.40258237 16.1746308 98.77666473 16.19119453 C94.85011057 16.20893396 90.92430242 16.18829348 86.99777222 16.16375732 C85.84623181 16.1751127 84.69469141 16.18646808 83.50825584 16.19816756 C75.84793683 16.10456062 75.84793683 16.10456062 72.42469978 13.21828079 C70.70876272 9.54941641 71.09588288 7.39075914 72.16796875 3.53125 C73.83531804 1.25676828 74.69298439 0.60798459 77.50281191 0.15405184 C78.43134084 0.15302271 79.35986978 0.15199358 80.31653595 0.15093327 C81.38861125 0.14249332 82.46068654 0.13405338 83.56524897 0.12535769 C84.7474192 0.13136773 85.92958943 0.13737778 87.14758301 0.14356995 C88.40011919 0.13818441 89.65265536 0.13279887 90.94314718 0.12725013 C94.42689121 0.11274318 97.91039972 0.11705656 101.39415693 0.12441695 C105.14897375 0.12913377 108.90373851 0.11665156 112.65853882 0.10639954 C120.01924766 0.08917335 127.37987127 0.0883799 134.74059504 0.09361244 C140.72585045 0.09765048 146.71108064 0.09621492 152.69633484 0.09086418 C153.54756368 0.09011576 154.39879252 0.08936734 155.27581617 0.08859624 C157.00506453 0.08706477 158.73431289 0.08552642 160.46356124 0.08398127 C176.6954545 0.07024089 192.92729962 0.07570332 209.15919179 0.08716648 C223.99876264 0.097087 238.8382086 0.08418139 253.67776018 0.06023229 C268.91613849 0.03582515 284.15445867 0.02623822 299.39285612 0.03288502 C307.94737087 0.03637539 316.50178971 0.03415793 325.05628967 0.01663399 C332.34367823 0.00189124 339.63090346 0.00130287 346.91828889 0.0187049 C350.63411368 0.02720284 354.34964699 0.02939468 358.06545639 0.01405334 C362.10136764 -0.00240241 366.13657921 0.01238762 370.17248535 0.03004456 C371.33680981 0.02043955 372.50113427 0.01083454 373.70074129 0.00093848 C385.17914254 0.10401151 393.6647242 3.08792578 401.9375 11.09765625 C410.67199185 20.62758343 412.47043292 28.83457775 412.43539429 41.46038818 C412.4399254 42.65917233 412.44445651 43.85795647 412.44912493 45.09306741 C412.45957382 48.40815005 412.46109845 51.72301523 412.45873618 55.03809881 C412.45832716 58.61833076 412.46937527 62.19853065 412.47885132 65.77874756 C412.49544416 72.78863275 412.50096009 79.7984843 412.50207607 86.80838749 C412.5030274 92.5084555 412.50714192 98.20851245 412.51347733 103.90857697 C412.53108536 120.0807366 412.54031693 136.25286973 412.53881638 152.42503902 C412.53869651 153.7320324 412.53869651 153.7320324 412.53857422 155.06542969 C412.53849246 155.93782651 412.5384107 156.81022332 412.53832646 157.70905641 C412.53751377 171.84351934 412.55664821 185.97787566 412.58485095 200.11230776 C412.61360223 214.63663946 412.62739 229.16091921 412.6256634 243.68528008 C412.62500025 251.83509084 412.63045938 259.98478982 412.6520195 268.13457489 C412.6702609 275.07418147 412.67455447 282.01362563 412.66100065 288.95324585 C412.65448572 292.49088646 412.6542998 296.02821573 412.67170715 299.56582642 C412.6904216 303.40875284 412.67784472 307.25122847 412.66244507 311.09417725 C412.67273219 312.20129995 412.68301932 313.30842266 412.69361818 314.44909453 C412.59284809 325.86213693 409.41267019 334.18586809 401.4609375 342.37109375 C395.57648221 347.91471177 391.26901045 349.83090277 383.16796875 352.53125 C383.16796875 367.38125 383.16796875 382.23125 383.16796875 397.53125 C386.79796875 398.85125 390.42796875 400.17125 394.16796875 401.53125 C403.1410854 407.54013605 409.72724745 415.99876798 412.16796875 426.53125 C413.37770254 437.41616581 412.83486646 448.12826634 406.21484375 457.2109375 C399.7060433 464.88039817 392.99527959 470.1258271 383.16796875 472.53125 C380.41096443 472.72078857 377.75551992 472.82521613 375.0012207 472.82177734 C374.21658447 472.82849457 373.43194824 472.83521179 372.62353516 472.84213257 C370.05104103 472.86100599 367.47880887 472.86503023 364.90625 472.8671875 C363.10979609 472.87361898 361.31334322 472.88034761 359.51689148 472.88735962 C355.76213143 472.89930285 352.00746323 472.9030431 348.25268555 472.90185547 C343.44057363 472.90165156 338.62904749 472.929041 333.81707478 472.96339989 C330.11190578 472.98561871 326.40687943 472.98969469 322.70165062 472.98863602 C320.92701369 472.99099618 319.15237307 472.99984309 317.3778019 473.01530075 C314.90029036 473.03487525 312.42406499 473.02915897 309.9465332 473.01708984 C309.2145018 473.02832886 308.4824704 473.03956787 307.72825623 473.05114746 C304.33670288 473.00911696 302.47430055 472.75730929 299.71305847 470.71963501 C297.45059956 467.51520546 297.62159702 465.3558521 298.16796875 461.53125 C300.39565457 458.47148087 301.59200362 457.62228008 305.36651611 457.02572632 C306.63034119 457.02287628 307.89416626 457.02002625 309.19628906 457.01708984 C310.24590569 457.00640221 310.24590569 457.00640221 311.31672668 456.99549866 C313.62680335 456.97622364 315.93596333 456.98449834 318.24609375 456.9921875 C319.85790336 456.98227716 321.46970165 456.97033463 323.08148193 456.95645142 C327.32648519 456.92407067 331.57123063 456.91369731 335.81634521 456.90960693 C342.59616512 456.90085878 349.37577263 456.86512899 356.1554184 456.8174324 C358.51509138 456.80491821 360.87449268 456.80559977 363.23419189 456.80770874 C364.69682009 456.80112126 366.15944647 456.79411361 367.62207031 456.78662109 C368.88907776 456.78536224 370.15608521 456.78410339 371.46148682 456.7828064 C379.49649185 456.23747609 385.88919253 454.17433469 391.41796875 448.03125 C395.82280355 441.73862886 396.05763256 436.12970518 395.16796875 428.53125 C392.86671027 422.47380515 388.68300803 418.68562891 383.23046875 415.34375 C377.51125331 413.09072574 371.38017053 413.37948407 365.33511353 413.37303162 C363.85734485 413.36562465 363.85734485 413.36562465 362.34972227 413.35806805 C359.05167198 413.34272144 355.75364112 413.33434009 352.45556641 413.32592773 C350.09017771 413.31634699 347.72479072 413.30633679 345.35940552 413.29592896 C338.9384889 413.26889519 332.51756495 413.24787731 326.09662294 413.22792697 C320.06598575 413.20873926 314.03536919 413.18412928 308.00475018 413.16000474 C296.06193585 413.11237559 284.11910989 413.06909877 272.17626953 413.02856445 C260.57665095 412.9891857 248.9770427 412.94775379 237.37744141 412.90356445 C236.30448751 412.89947804 236.30448751 412.89947804 235.20985778 412.89530908 C231.62130435 412.88162921 228.03275109 412.86790902 224.44419789 412.85416877 C194.68547551 412.74027748 164.92673133 412.63425473 135.16796875 412.53125 C135.16796875 427.38125 135.16796875 442.23125 135.16796875 457.53125 C141.72526855 457.49197388 141.72526855 457.49197388 148.41503906 457.4519043 C162.83585702 457.36916787 177.25668414 457.31361674 191.67767715 457.27218914 C200.42375018 457.24639676 209.16959852 457.21122669 217.91552734 457.15405273 C225.53763182 457.10424916 233.1595736 457.0719665 240.78183627 457.06080753 C244.81864227 457.05428351 248.85498277 457.03892947 252.89163971 457.00259972 C256.69037627 456.96868789 260.48845517 456.95818698 264.28732872 456.96571159 C265.68215953 456.96433485 267.07701209 456.9543728 268.47171211 456.93522263 C270.37504325 456.91036824 272.27872646 456.91930212 274.18218994 456.92997742 C275.24778263 456.92536845 276.31337532 456.92075949 277.4112587 456.91601086 C280.16796875 457.53125 280.16796875 457.53125 282.54598618 459.84226704 C284.16796875 462.53125 284.16796875 462.53125 284.10546875 466.15625 C282.88143461 470.56277292 282.88143461 470.56277292 280.16796875 472.53125 C277.53430653 472.90039349 277.53430653 472.90039349 274.30244446 472.89201355 C273.07826813 472.89613754 271.8540918 472.90026154 270.59281921 472.9045105 C269.23415918 472.8938931 267.87550137 472.88298868 266.5168457 472.87182617 C265.08785012 472.87098006 263.65885323 472.87145473 262.2298584 472.87315369 C258.34781456 472.8740157 254.46604787 472.85635675 250.58406854 472.83543181 C246.52816177 472.8166993 242.4722489 472.81491728 238.41630554 472.81135559 C230.73462076 472.80202503 223.0530638 472.77739762 215.37143534 472.74730712 C206.62668924 472.71379452 197.88193709 472.69728501 189.13714278 472.68222082 C171.14734558 472.65084891 153.15766744 472.59806882 135.16796875 472.53125 C135.17844238 473.10667038 135.18891602 473.68209076 135.19970703 474.27494812 C135.24152373 476.90590979 135.26737574 479.53680126 135.29296875 482.16796875 C135.31810547 483.52577454 135.31810547 483.52577454 135.34375 484.91101074 C135.40341342 493.0904922 133.89058056 498.46597099 128.30078125 504.5703125 C120.68151522 511.77452123 114.26523966 513.19544118 103.890625 512.9296875 C94.89661935 511.96705521 89.40008096 507.53225759 83.68359375 500.77734375 C78.2524591 493.89385344 73.21075181 486.70107263 68.16796875 479.53125 C65.45766142 482.13542198 63.15959987 484.76119375 60.99609375 487.83203125 C60.4134375 488.64478516 59.83078125 489.45753906 59.23046875 490.29492188 C58.03291269 491.97898509 56.84010622 493.66643703 55.65234375 495.35742188 C50.61893397 502.3501085 44.09638569 510.76741938 35.16796875 512.53125 C25.86859971 513.47604891 17.83032403 513.28844616 10.16796875 507.53125 C4.94411283 502.79310365 0.63019395 497.31156867 -0.06762695 490.09472656 C-0.12612608 487.42119181 -0.09458386 484.76677743 -0.01953125 482.09375 C-0.00599609 481.17142578 0.00753906 480.24910156 0.02148438 479.29882812 C0.05655922 477.04234617 0.10570488 474.78711774 0.16796875 472.53125 C-0.86199219 472.57765625 -1.89195313 472.6240625 -2.953125 472.671875 C-27.10700695 473.4251622 -49.02362004 465.01869993 -67.14453125 448.96875 C-68.7125628 447.49544849 -70.27560469 446.016806 -71.83203125 444.53125 C-72.43402344 444.00402344 -73.03601563 443.47679687 -73.65625 442.93359375 C-88.69232556 429.22938502 -98.58199142 406.50578888 -100.05832863 386.45831299 C-100.40923248 378.28799476 -100.38485044 370.11333978 -100.35492992 361.93718338 C-100.34577825 358.22884536 -100.35989861 354.52057902 -100.37084961 350.81225586 C-100.38853286 343.57040296 -100.38484072 336.32871693 -100.37319905 329.0868578 C-100.36412452 323.19542395 -100.36295799 317.3040365 -100.36729431 311.41259766 C-100.36821371 310.14952427 -100.36821371 310.14952427 -100.36915168 308.86093426 C-100.37043073 307.14973576 -100.37172758 305.43853727 -100.37304205 303.72733879 C-100.38441798 287.72313744 -100.37138122 271.7190281 -100.34984058 255.71484184 C-100.33197232 242.0155777 -100.33507727 228.3164492 -100.35351562 214.6171875 C-100.37497533 198.66591667 -100.38331962 182.71472625 -100.37106657 166.76344299 C-100.36979252 165.05892946 -100.36853504 163.35441591 -100.36729431 161.64990234 C-100.36667721 160.8114915 -100.36606011 159.97308065 -100.36542431 159.10926342 C-100.36198667 153.23249043 -100.36776531 147.35576892 -100.37721252 141.47900391 C-100.3884908 134.30630206 -100.3852711 127.13377505 -100.36408955 119.96109295 C-100.35365679 116.30924052 -100.34932227 112.65767841 -100.36268616 109.00582886 C-100.46989693 77.0816189 -94.39978733 52.17563297 -71.83203125 28.53125 C-71.30480469 27.92925781 -70.77757813 27.32726562 -70.234375 26.70703125 C-52.58228377 7.33939151 -25.29460305 -0.16067454 0 0 Z M-18.2734375 360.01953125 C-20.40377549 362.46547486 -21.80025261 364.43591407 -22.83203125 367.53125 C-21.4587501 367.53621522 -21.4587501 367.53621522 -20.05772591 367.54128075 C2.19133727 367.62240621 24.44033161 367.71446403 46.68929863 367.81877708 C57.44861293 367.86895629 68.2079194 367.91539849 78.96728516 367.953125 C88.34220724 367.98600651 97.71706955 368.02581623 107.09192574 368.07404006 C112.05849279 368.09934338 117.02501999 368.12111322 121.99163437 368.13459396 C126.6619255 368.14737968 131.33208021 368.16939593 136.00229645 368.19863319 C137.7204275 368.2077364 139.43858053 368.21340555 141.15673447 368.21546364 C143.49461025 368.21876693 145.83209464 368.23419103 148.16989136 368.2527771 C149.48068098 368.25830786 150.7914706 368.26383862 152.14198112 368.26953697 C155.16796875 368.53125 155.16796875 368.53125 157.16796875 370.53125 C157.43359375 372.625 157.43359375 372.625 157.41796875 375.03125 C157.42570312 376.22234375 157.42570312 376.22234375 157.43359375 377.4375 C157.16796875 379.53125 157.16796875 379.53125 155.16796875 381.53125 C153.10498047 381.85009766 153.10498047 381.85009766 150.59765625 381.9453125 C149.70175781 381.98398437 148.80585938 382.02265625 147.8828125 382.0625 C146.94566406 382.0934375 146.00851563 382.124375 145.04296875 382.15625 C143.62564453 382.21425781 143.62564453 382.21425781 142.1796875 382.2734375 C139.84277525 382.3678582 137.50539845 382.45064898 135.16796875 382.53125 C135.16796875 387.48125 135.16796875 392.43125 135.16796875 397.53125 C211.72796875 397.53125 288.28796875 397.53125 367.16796875 397.53125 C367.16796875 392.58125 367.16796875 387.63125 367.16796875 382.53125 C365.18152344 382.50546875 363.19507813 382.4796875 361.1484375 382.453125 C359.22221833 382.41140184 357.29599937 382.36954002 355.36987305 382.32373047 C353.37507744 382.28166351 351.37988793 382.25987136 349.38476562 382.23828125 C348.13115234 382.20605469 346.87753906 382.17382812 345.5859375 382.140625 C344.42860107 382.11967773 343.27126465 382.09873047 342.07885742 382.07714844 C339.16796875 381.53125 339.16796875 381.53125 337.25512695 379.71972656 C335.61664943 376.42143047 336.32599595 374.02867549 337.16796875 370.53125 C339.92236391 367.77685484 341.63400078 368.22135724 345.48828125 368.1171875 C347.37353516 368.05917969 347.37353516 368.05917969 349.296875 368 C351.27494141 367.95359375 351.27494141 367.95359375 353.29296875 367.90625 C354.63283793 367.86806971 355.97268258 367.82901794 357.3125 367.7890625 C360.59742023 367.69453242 363.88267581 367.61179267 367.16796875 367.53125 C367.16796875 362.58125 367.16796875 357.63125 367.16796875 352.53125 C320.31275046 352.48562826 273.45753511 352.45023242 226.60229898 352.42911934 C221.07104759 352.42661792 215.53979625 352.42402927 210.00854492 352.42138672 C208.90736886 352.4208621 207.80619281 352.42033748 206.67164778 352.41979696 C188.83980779 352.41109352 171.0079807 352.39532388 153.17614836 352.37694441 C134.88007493 352.35824367 116.58400826 352.3471329 98.28792566 352.34307301 C86.99760098 352.34032832 75.70731274 352.33165824 64.41699927 352.31541707 C56.67560486 352.30484805 48.93422929 352.30164919 41.19282819 352.30424725 C36.72597547 352.30552866 32.25918645 352.30355933 27.79234505 352.29283905 C23.70055522 352.28309066 19.60887179 352.28262542 15.51707702 352.28945221 C14.0391318 352.29029569 12.56117987 352.28777211 11.08324779 352.28148364 C-4.94975523 352.00695564 -4.94975523 352.00695564 -18.2734375 360.01953125 Z M-22.83203125 382.53125 C-20.24688941 388.01772152 -20.24688941 388.01772152 -16.39453125 391.78125 C-15.81832031 392.26078125 -15.24210937 392.7403125 -14.6484375 393.234375 C-9.80414567 396.69309519 -5.6767988 397.01553522 0.16796875 397.53125 C0.16796875 392.58125 0.16796875 387.63125 0.16796875 382.53125 C-7.42203125 382.53125 -15.01203125 382.53125 -22.83203125 382.53125 Z M15.16796875 382.53125 C15.12671875 399.216875 15.08546875 415.9025 15.04296875 433.09375 C15.02476074 438.35513916 15.00655273 443.61652832 14.98779297 449.03735352 C14.98110258 453.76872886 14.98110258 453.76872886 14.9770813 458.50010681 C14.97401754 460.60147448 14.96699876 462.70283872 14.95681763 464.80418396 C14.9421405 467.99394811 14.94015804 471.18349807 14.94091797 474.37329102 C14.93372175 475.30367723 14.92652554 476.23406343 14.91911125 477.19264317 C14.94027171 483.84486622 15.18817791 489.26173367 19.73046875 494.46875 C22.93886487 496.81635692 25.82539166 497.15646369 29.7265625 497.29296875 C37.14410904 494.97869423 41.70525777 487.4999699 45.98046875 481.46875 C47.20949664 479.78375293 48.43866405 478.09885763 49.66796875 476.4140625 C51.817568 473.43742588 53.92113717 470.43804682 55.98046875 467.3984375 C56.81376624 466.21351646 57.64709697 465.0286188 58.48046875 463.84375 C59.17785156 462.80863281 59.87523437 461.77351563 60.59375 460.70703125 C63.80102559 457.99617768 65.76592704 457.58491615 69.90454102 457.85229492 C74.36883575 459.19143888 76.44538879 462.83221357 78.98046875 466.53125 C79.57013428 467.33836426 80.1597998 468.14547852 80.76733398 468.97705078 C81.98775439 470.65081691 83.19612349 472.33343348 84.39257812 474.02441406 C86.61150679 477.1575218 88.88599925 480.2461099 91.18041992 483.32421875 C92.18731923 484.67668957 93.18543285 486.03576202 94.1730957 487.40234375 C98.70423206 493.66181652 98.70423206 493.66181652 105.4140625 497.09765625 C109.39256002 497.09056445 112.33966548 496.88608477 115.60546875 494.46875 C120.77080991 488.54750526 120.45297149 481.86579839 120.39501953 474.37329102 C120.39538114 472.85546099 120.39538114 472.85546099 120.39575005 471.30696774 C120.39426391 468.04960606 120.37906315 464.79247669 120.36328125 461.53515625 C120.36033865 459.51688751 120.35829955 457.49861725 120.35717773 455.48034668 C120.34671555 448.01812443 120.31879302 440.5559349 120.29296875 433.09375 C120.25171875 416.408125 120.21046875 399.7225 120.16796875 382.53125 C85.51796875 382.53125 50.86796875 382.53125 15.16796875 382.53125 Z " fill="#000000" transform="translate(99.83203125,-0.53125)"/>
<path d="M0 0 C7.77560447 8.78812057 9.84451953 18.37964436 9.61328125 29.75 C8.87918159 40.20567657 4.04473507 48.3310358 -3.5390625 55.39453125 C-13.06124252 63.08922218 -22.74380405 64.73577956 -34.67138672 63.86767578 C-44.15872286 62.80317477 -52.47878172 57.81406431 -58.4453125 50.4375 C-65.33923113 40.49467386 -68.35484918 30.1520458 -66.19921875 18.05859375 C-63.54605026 8.16383597 -58.31725287 -0.66610592 -49.66015625 -6.35546875 C-32.01385193 -15.51157005 -14.55415927 -13.52258558 0 0 Z M-45.66015625 11.64453125 C-49.80081055 17.56926167 -51.13923905 22.45828918 -50.66015625 29.64453125 C-48.85972598 36.60796011 -45.76558964 41.51164289 -39.66015625 45.45703125 C-33.4941599 48.66700629 -26.98277649 48.87542814 -20.328125 46.98046875 C-14.23346985 44.30021888 -10.12884598 39.71542796 -7.28515625 33.76953125 C-5.8715348 26.701424 -6.0866582 21.07682774 -9.66015625 14.64453125 C-13.94518923 8.55194748 -18.03802558 5.48969507 -25.41015625 3.76953125 C-33.2727364 3.04653537 -40.30457793 6.03392539 -45.66015625 11.64453125 Z " fill="#000000" transform="translate(344.66015625,162.35546875)"/>
<path d="M0 0 C1.20825439 0.01232666 1.20825439 0.01232666 2.44091797 0.02490234 C12.04923835 0.20589764 19.1720116 1.21827296 26.25 8.25 C31.06045954 14.45704457 33.18985187 20.30893273 32.25 28.25 C30.35762447 35.95208895 26.7569899 40.77644445 20.25 45.25 C18.9225744 45.92835352 17.58996583 46.59676666 16.25 47.25 C17.15363281 48.20261719 18.05726563 49.15523437 18.98828125 50.13671875 C20.17992289 51.40342443 21.37131609 52.67036387 22.5625 53.9375 C23.45485352 54.87625977 23.45485352 54.87625977 24.36523438 55.83398438 C30.33483789 62.20378477 30.33483789 62.20378477 32.25 66.25 C32.13214109 69.66790842 31.83916681 72.17563699 30.1875 75.1875 C27.02664487 76.92087217 23.67081498 77.20231479 20.25 76.25 C17.91015625 74.1640625 17.91015625 74.1640625 15.25 71.25 C14.16368355 70.10068926 13.07639213 68.9522995 11.98828125 67.8046875 C10.84533671 66.57907304 9.70342446 65.35249517 8.5625 64.125 C7.98177734 63.50496094 7.40105469 62.88492188 6.80273438 62.24609375 C6.24521484 61.64667969 5.68769531 61.04726562 5.11328125 60.4296875 C4.61094971 59.89069824 4.10861816 59.35170898 3.59106445 58.79638672 C2.25 57.25 2.25 57.25 0.25 54.25 C0.22421875 55.50296875 0.1984375 56.7559375 0.171875 58.046875 C0.11558831 59.69795123 0.0582411 61.34899155 0 63 C-0.02126953 64.2375 -0.02126953 64.2375 -0.04296875 65.5 C-0.19798659 69.34444251 -0.29118564 71.5972641 -2.54296875 74.80078125 C-6.19881011 77.20134257 -8.43518218 76.7294242 -12.75 76.25 C-15.42431489 74.43836733 -15.70920359 73.37238923 -16.75 70.25 C-16.85397352 68.2371566 -16.898593 66.22105438 -16.91113281 64.20556641 C-16.92554413 62.33815292 -16.92554413 62.33815292 -16.94024658 60.43301392 C-16.94509453 59.07253198 -16.94937336 57.71204791 -16.953125 56.3515625 C-16.95887904 54.95535277 -16.96463674 53.55914305 -16.97039795 52.16293335 C-16.98089849 49.23589714 -16.98674738 46.30888833 -16.99023438 43.38183594 C-16.99571806 39.63698481 -17.01974696 35.89249747 -17.04820633 32.14776039 C-17.06685868 29.26350863 -17.07203967 26.37934406 -17.07357025 23.49503708 C-17.07659132 22.11477036 -17.08460147 20.73450498 -17.09775543 19.35429764 C-17.11486869 17.42067954 -17.11108324 15.48691092 -17.10644531 13.55322266 C-17.11009094 12.4541861 -17.11373657 11.35514954 -17.11749268 10.22280884 C-16.69978332 6.84377536 -15.75793471 4.97511944 -13.75 2.25 C-9.46796456 -0.34422585 -4.85834891 -0.05913814 0 0 Z M-0.75 16.25 C-0.75 21.53 -0.75 26.81 -0.75 32.25 C5.17105294 32.51913877 9.13632472 32.61754226 14.25 29.25 C16.55260759 26.43401813 16.55260759 26.43401813 16.125 23.25 C15.11937088 19.80212873 14.33107932 18.97177962 11.25 17.25 C8.36788698 16.28929566 6.55149956 16.14418117 3.5625 16.1875 C2.139375 16.208125 0.71625 16.22875 -0.75 16.25 Z " fill="#000000" transform="translate(384.75,149.75)"/>
<path d="M0 0 C2.26598448 3.39897673 2.23742654 4.56319173 2.1953125 8.54296875 C2.19031738 9.51000732 2.18532227 10.4770459 2.18017578 11.47338867 C2.15286377 13.31187378 2.15286377 13.31187378 2.125 15.1875 C2.08375 19.085625 2.0425 22.98375 2 27 C10.58 27 19.16 27 28 27 C27.88156599 19.28141762 27.88156599 19.28141762 27.72973633 11.56347656 C27.72224365 10.59893555 27.71475098 9.63439453 27.70703125 8.640625 C27.6913208 7.65610352 27.67561035 6.67158203 27.65942383 5.65722656 C28.05591091 2.5637747 28.86006472 1.23448087 31 -1 C33.93635415 -2.08181469 35.58072748 -2.09982679 38.625 -1.375 C41.63683455 0.36869369 42.47276413 1.88516106 44 5 C44.38095093 7.95935059 44.38095093 7.95935059 44.38818359 11.27148438 C44.39764008 12.51627563 44.40709656 13.76106689 44.4168396 15.0435791 C44.41146954 16.39363932 44.40531651 17.74369662 44.3984375 19.09375 C44.40046011 20.48710279 44.40337312 21.88045454 44.40713501 23.27380371 C44.41154959 26.18898635 44.40515558 29.10389255 44.39111328 32.01904297 C44.37402149 35.74820715 44.38386738 39.47672352 44.40183067 43.20586395 C44.41269218 46.08157191 44.40921141 48.95712731 44.4014473 51.83283997 C44.39945181 53.20750506 44.40188163 54.58218419 44.40888596 55.95683289 C44.41653851 57.88072429 44.40279879 59.80466452 44.38818359 61.72851562 C44.38579681 62.82151978 44.38341003 63.91452393 44.38095093 65.04064941 C43.91137621 68.68845841 42.61974802 71.38025198 40 74 C32.76518671 74.59301748 32.76518671 74.59301748 29.89282227 72.36694336 C27.43652326 69.29538153 27.53585033 67.59993235 27.609375 63.703125 C27.62226562 62.49785156 27.63515625 61.29257813 27.6484375 60.05078125 C27.68195313 58.79652344 27.71546875 57.54226562 27.75 56.25 C27.76804688 54.98027344 27.78609375 53.71054688 27.8046875 52.40234375 C27.85182188 49.26790742 27.92356442 46.1338587 28 43 C19.42 43 10.84 43 2 43 C2.04640625 44.90265625 2.0928125 46.8053125 2.140625 48.765625 C2.17814043 51.26040099 2.21454083 53.75519393 2.25 56.25 C2.30027344 58.13138672 2.30027344 58.13138672 2.3515625 60.05078125 C2.36445312 61.25605469 2.37734375 62.46132812 2.390625 63.703125 C2.41157227 64.81333008 2.43251953 65.92353516 2.45410156 67.06738281 C1.89814705 70.65777294 0.82328205 71.79328547 -2 74 C-4 74.56640625 -4 74.56640625 -6 74.5625 C-6.99 74.59537109 -6.99 74.59537109 -8 74.62890625 C-11.14735711 73.63920997 -12.20139151 71.70084806 -14 69 C-14.50793457 65.96472168 -14.50793457 65.96472168 -14.51757812 62.54492188 C-14.53018677 61.26008911 -14.54279541 59.97525635 -14.55578613 58.65148926 C-14.54862608 57.25723724 -14.54042204 55.86299024 -14.53125 54.46875 C-14.53394665 53.0305556 -14.53783051 51.59236298 -14.54284668 50.1541748 C-14.54873375 47.14476101 -14.5402051 44.13582317 -14.52148438 41.12646484 C-14.49869436 37.2760708 -14.51182182 33.42679206 -14.53577423 29.5764389 C-14.55025418 26.60804904 -14.54561636 23.63992199 -14.53526306 20.67152405 C-14.5326018 19.252201 -14.53584441 17.8328538 -14.54518127 16.41355896 C-14.55538099 14.42740356 -14.53706848 12.44116408 -14.51757812 10.45507812 C-14.51439575 9.32654419 -14.51121338 8.19801025 -14.50793457 7.03527832 C-13.88510433 3.31341487 -12.64472787 1.64952149 -10 -1 C-6.00471255 -2.33176248 -3.90144863 -1.41870859 0 0 Z " fill="#000000" transform="translate(73,152)"/>
<path d="M0 0 C1.6398534 2.12668488 1.651626 3.45849376 1.625 6.12109375 C1.63660156 7.28125 1.63660156 7.28125 1.6484375 8.46484375 C1.15740716 11.1221844 0.35422922 11.97386896 -1.75 13.62109375 C-4.97489989 14.87959127 -6.92404155 14.9781913 -10.1171875 13.59765625 C-11.84636189 12.68839434 -13.57158296 11.77157846 -15.29296875 10.84765625 C-18.52517603 9.23412193 -21.13720368 8.62109375 -24.75 8.62109375 C-28.11878771 9.92828638 -28.11878771 9.92828638 -30.75 11.62109375 C-30.75 12.94109375 -30.75 14.26109375 -30.75 15.62109375 C-30.09515625 15.88736572 -29.4403125 16.1536377 -28.765625 16.42797852 C-25.75347127 17.66363162 -22.75194776 18.9233593 -19.75 20.18359375 C-18.72003906 20.60189453 -17.69007813 21.02019531 -16.62890625 21.45117188 C-8.92245426 24.71536969 -2.86249581 28.535943 2.25 35.24609375 C4.04922533 41.31847923 4.58709903 48.04406813 2.3359375 54.06640625 C-1.60817141 60.75866847 -7.3304544 65.23744306 -14.75 67.62109375 C-27.42813611 69.05562291 -37.12810535 66.92037927 -47.15625 58.98828125 C-50.70250604 55.94614985 -50.70250604 55.94614985 -51.05078125 53.5625 C-51.05464844 52.77746094 -51.05851563 51.99242187 -51.0625 51.18359375 C-51.07925781 50.40113281 -51.09601563 49.61867187 -51.11328125 48.8125 C-50.75 46.62109375 -50.75 46.62109375 -49.5 44.8671875 C-46.72023159 42.88784347 -44.35343492 43.09432942 -41.03125 43.19140625 C-37.22879347 43.90762238 -35.48976093 45.94504819 -32.75 48.62109375 C-29.55547168 50.62536955 -26.99497724 50.91816115 -23.25 50.93359375 C-21.84234375 50.95873047 -21.84234375 50.95873047 -20.40625 50.984375 C-17.32503366 50.56297335 -15.97368423 49.76279883 -13.75 47.62109375 C-12.91643587 45.16521411 -12.91643587 45.16521411 -13.75 42.62109375 C-19.17212797 38.37693607 -25.39252698 36.18038927 -31.76171875 33.70898438 C-38.15464392 31.1325034 -43.02086788 28.56061836 -46.625 22.43359375 C-48.46103531 16.21147408 -48.86572708 10.40864875 -46.1875 4.37109375 C-43.00319127 -1.20709246 -38.00010113 -5.66012844 -31.75 -7.37890625 C-20.91271997 -10.08822626 -8.69987019 -6.85503165 0 0 Z " fill="#000000" transform="translate(210.75,158.37890625)"/>
<path d="M0 0 C4.11763773 2.35931813 6.3533752 6.78782309 8.82763672 10.70800781 C9.41609375 11.60519531 10.00455078 12.50238281 10.61083984 13.42675781 C12.05535965 15.63464175 13.48054891 17.85272384 14.89013672 20.08300781 C19.08167555 16.28293389 21.70675426 11.82020577 24.62255859 7.04003906 C26.52925844 3.98022432 27.84594146 2.11247132 30.89013672 0.08300781 C34.40388931 -0.23642424 37.01979982 -0.25173715 40.32763672 1.02050781 C42.37798169 3.72696317 42.5621371 6.06468555 42.50317383 9.40893555 C41.31415933 14.59542533 37.49710286 18.38051406 34.25299072 22.47579956 C22.78947903 37.19542208 21.66202936 49.87143684 23.15039062 68.11987305 C22.89013672 71.08300781 22.89013672 71.08300781 21.01879883 73.45458984 C17.49554752 76.14986295 15.23403045 75.56566267 10.89013672 75.08300781 C8.21582183 73.27137514 7.93093313 72.20539704 6.89013672 69.08300781 C6.89085979 66.95879276 6.94612691 64.83444252 7.03076172 62.71191406 C7.37096071 45.50602724 5.7751608 33.98726331 -5.49462891 20.18798828 C-8.85457466 15.80929235 -12.10986328 11.31731304 -12.10986328 5.70800781 C-11.09252826 3.03750338 -10.40017582 1.75669775 -8.10986328 0.08300781 C-4.97102467 -0.96327172 -3.1493711 -0.98599095 0 0 Z " fill="#000000" transform="translate(440.10986328125,150.9169921875)"/>
<path d="M0 0 C1.13758003 -0.00855011 1.13758003 -0.00855011 2.29814148 -0.01727295 C3.90276702 -0.02671356 5.50741187 -0.03325321 7.11206055 -0.03710938 C9.5548733 -0.04679827 11.99683836 -0.0778224 14.43945312 -0.109375 C16.00129711 -0.11590727 17.56314709 -0.12115686 19.125 -0.125 C19.8502034 -0.1373468 20.5754068 -0.1496936 21.32258606 -0.16241455 C26.0369754 -0.14192722 29.26631182 0.69305767 33.26171875 3.203125 C34.80758751 6.29486252 34.55531396 8.79742052 34.26171875 12.203125 C32.6328125 14.4140625 32.6328125 14.4140625 30.26171875 16.203125 C27.24609375 16.59375 27.24609375 16.59375 24.01171875 16.453125 C22.9340625 16.41703125 21.85640625 16.3809375 20.74609375 16.34375 C19.92625 16.29734375 19.10640625 16.2509375 18.26171875 16.203125 C18.26838058 16.86853806 18.27504242 17.53395111 18.28190613 18.2195282 C18.34828554 25.14622159 18.39353038 32.0728246 18.42651367 38.99975586 C18.44159837 41.58475413 18.46206877 44.16972682 18.48803711 46.75463867 C18.52443317 50.4706046 18.5414486 54.18623207 18.5546875 57.90234375 C18.57017136 59.05772141 18.58565521 60.21309906 18.60160828 61.40348816 C18.60183487 62.48423111 18.60206146 63.56497406 18.60229492 64.6784668 C18.60895676 65.62666794 18.61561859 66.57486908 18.6224823 67.55180359 C18.1503008 71.02195717 16.75301882 73.71182493 14.26171875 76.203125 C7.00747559 76.79773509 7.00747559 76.79773509 4.1585083 74.52618408 C1.81007268 71.64997955 1.77452343 70.28180547 1.80761719 66.60839844 C1.80791931 65.48753845 1.80822144 64.36667847 1.80853271 63.21185303 C1.82917786 62.00756653 1.849823 60.80328003 1.87109375 59.5625 C1.87675354 58.32518127 1.88241333 57.08786255 1.88824463 55.81304932 C1.90683624 52.53134564 1.94274377 49.25043219 1.98706055 45.96899414 C2.0280571 42.61742433 2.04592374 39.26582056 2.06640625 35.9140625 C2.11051971 29.34344109 2.17746798 22.77334768 2.26171875 16.203125 C1.3696875 16.26113281 0.47765625 16.31914062 -0.44140625 16.37890625 C-1.611875 16.42402344 -2.78234375 16.46914062 -3.98828125 16.515625 C-5.1484375 16.57363281 -6.30859375 16.63164062 -7.50390625 16.69140625 C-10.73828125 16.203125 -10.73828125 16.203125 -13.1640625 13.91015625 C-14.73828125 11.203125 -14.73828125 11.203125 -14.67578125 7.578125 C-13.42082093 3.06026786 -13.42082093 3.06026786 -10.73828125 1.203125 C-7.11678543 -0.00404027 -3.77214473 0.02192216 0 0 Z " fill="#000000" transform="translate(237.73828125,149.796875)"/>
<path d="M0 0 C3.45689624 3.45689624 3.12794656 7.14688166 3.14526367 11.86669922 C3.15164352 13.04827606 3.15802338 14.22985291 3.16459656 15.44723511 C3.16570938 16.7201944 3.1668222 17.99315369 3.16796875 19.3046875 C3.17129715 20.61656036 3.17462555 21.92843323 3.17805481 23.28005981 C3.18403592 26.05569278 3.18589577 28.83129465 3.18530273 31.60693359 C3.1852012 35.15316332 3.19884894 38.69919245 3.21607494 42.24537468 C3.22990779 45.64014851 3.22928471 49.03488587 3.23046875 52.4296875 C3.23765427 53.69859833 3.24483978 54.96750916 3.25224304 56.27487183 C3.24916641 57.46275299 3.24608978 58.65063416 3.24291992 59.87451172 C3.24434494 60.91501678 3.24576996 61.95552185 3.24723816 63.02755737 C2.97227254 66.33335583 2.30369007 68.95055068 1 72 C-2.71013399 74.47342266 -4.61060262 74.38503486 -9 74 C-11.19129944 72.89465332 -11.19129944 72.89465332 -13 71 C-13.50120544 68.03991699 -13.50120544 68.03991699 -13.50170898 64.37304688 C-13.50711197 63.7044313 -13.51251495 63.03581573 -13.51808167 62.34693909 C-13.53058787 60.13709222 -13.51406745 57.92854351 -13.49609375 55.71875 C-13.4962487 54.18322684 -13.49773695 52.64770329 -13.50050354 51.11218262 C-13.50188837 47.89411123 -13.48931616 44.67648508 -13.46655273 41.45849609 C-13.43816735 37.33223774 -13.44090405 33.2067193 -13.45364285 29.08040619 C-13.46059583 25.90966465 -13.4528152 22.73909432 -13.44038582 19.56837463 C-13.43586758 18.04692745 -13.43553777 16.52546192 -13.43945122 15.00401306 C-13.44235985 12.8779428 -13.42587524 10.75289431 -13.40405273 8.62695312 C-13.39864975 7.41688599 -13.39324677 6.20681885 -13.38768005 4.96008301 C-13 2 -13 2 -11.58802795 0.13659668 C-7.45969133 -2.81817102 -4.53906802 -1.87483244 0 0 Z " fill="#000000" transform="translate(144,152)"/>
<path d="M0 0 C5.1238556 2.93382055 9.27462405 6.88352911 11.6875 12.3125 C12.70142347 17.03114383 13.30423426 20.87345338 11.375 25.375 C9.18146519 27.89350293 8.20559744 28.25493362 4.875 28.625 C0.8303851 28.22846913 -0.56680031 27.28700799 -3.3125 24.3125 C-4.5 20.6875 -4.5 20.6875 -5.3125 17.3125 C-5.9725 16.6525 -6.6325 15.9925 -7.3125 15.3125 C-10.41176819 15.63448966 -10.41176819 15.63448966 -13.3125 16.3125 C-13.48265625 16.92738281 -13.6528125 17.54226562 -13.828125 18.17578125 C-15.7895849 24.71745868 -15.7895849 24.71745868 -18.125 27.375 C-21.16301421 28.67700609 -23.03636096 28.84737984 -26.3125 28.3125 C-29.1875 26.3125 -29.1875 26.3125 -31.3125 23.3125 C-32.24678847 16.07176432 -30.23777334 11.20041001 -26.1875 5.125 C-19.59999789 -2.20974115 -8.84141434 -4.07170397 0 0 Z " fill="#000000" transform="translate(333.3125,77.6875)"/>
<path d="M0 0 C2.19415814 1.50529454 4.02132563 3.20120512 6 5 C10.69424541 6.56474847 14.50802137 6.59679145 19.125 4.75 C22.06006843 3.09302187 22.06006843 3.09302187 24.4375 0.75 C27 -1 27 -1 30.625 -0.9375 C35.44 0.4 35.44 0.4 37 3 C38.0625 6.25 38.0625 6.25 38 10 C34.63988064 16.39374938 27.81869383 20.4369113 21.109375 22.61328125 C11.05926463 24.45580148 2.11111398 23.08756631 -6.359375 17.421875 C-9.99280234 14.56151731 -11.75372026 12.80725025 -13.125 8.3125 C-12.94334278 3.49858357 -12.94334278 3.49858357 -11 1 C-7.41887985 -1.78531567 -4.21681417 -1.09055539 0 0 Z " fill="#000000" transform="translate(243,91)"/>
<path d="M0 0 C2.10889281 1.8124816 2.89678858 3.29239736 3.2980957 6.04370117 C3.44106395 8.53650063 3.45821148 11.00332479 3.4375 13.5 C3.4674707 14.78197266 3.4674707 14.78197266 3.49804688 16.08984375 C3.49320265 22.30014225 3.49320265 22.30014225 1.19140625 25.56640625 C-2.00827304 27.65960108 -4.26086077 27.4673924 -8 27 C-11.1850357 25.23984869 -11.83296972 24.50109084 -13 21 C-13.17398206 18.35889523 -13.27679015 15.76752888 -13.3125 13.125 C-13.34150391 12.41730469 -13.37050781 11.70960937 -13.40039062 10.98046875 C-13.44541536 7.26073288 -13.13563853 5.21086898 -11.10546875 2.0546875 C-7.33663626 -1.62324551 -5.05738555 -1.15343881 0 0 Z " fill="#000000" transform="translate(195,79)"/>
</svg>
