<?xml version="1.0" encoding="UTF-8"?>
<svg version="1.1" xmlns="http://www.w3.org/2000/svg" width="512" height="512">
<path d="M0 0 C32.79677679 16.79033713 64.11855288 40.73261113 86.43359375 70.30859375 C86.9445459 70.97020508 87.45549805 71.63181641 87.98193359 72.31347656 C116.34859881 109.09555885 144.42879362 163.47873618 140.43359375 211.30859375 C139.17453627 215.58219456 136.93387602 217.91253695 133.43359375 220.68359375 C129.07369862 223.04520361 125.70118335 223.43604395 120.76635742 223.46972656 C119.62804977 223.47933411 118.48974213 223.48894165 117.31694031 223.49884033 C116.09086563 223.50309021 114.86479095 223.50734009 113.6015625 223.51171875 C112.3364534 223.51741882 111.0713443 223.5231189 109.76789856 223.5289917 C107.09059047 223.53843841 104.41339437 223.54533699 101.73608398 223.54882812 C98.31989676 223.55430522 94.90410962 223.57832463 91.4880476 223.60680008 C88.21341659 223.63000211 84.93876418 223.63188108 81.6640625 223.63671875 C79.83405952 223.65523895 79.83405952 223.65523895 77.96708679 223.6741333 C70.12378266 223.65362514 64.95528501 223.10993907 58.68359375 218.12109375 C53.98642339 212.2496308 52.88255983 205.15621715 51.62109375 197.93359375 C49.75432634 188.04477182 47.00952211 178.70891812 43.43359375 169.30859375 C43.17739258 168.63376953 42.92119141 167.95894531 42.65722656 167.26367188 C35.82297961 148.41345992 35.82297961 148.41345992 23.43359375 134.30859375 C23.05775146 135.06813354 23.05775146 135.06813354 22.67431641 135.84301758 C18.3655436 144.53774983 14.04433098 153.2229946 9.50561523 161.80053711 C8.66668424 163.38782253 7.83413975 164.97850007 7.00805664 166.57250977 C5.14280862 170.16096663 3.24359453 173.66754315 1.07421875 177.08203125 C-1.74312964 181.67333632 -3.89545054 185.31445286 -2.984375 190.8359375 C-2.08969794 193.36860337 -1.15721155 195.80910964 -0.125 198.28125 C10.09747778 223.09147987 4.81539736 254.56679917 -4.49365234 278.73339844 C-9.38569227 290.47696629 -16.06073893 300.86457879 -24.56640625 310.30859375 C-25.59121094 311.54609375 -25.59121094 311.54609375 -26.63671875 312.80859375 C-45.0221348 334.51831012 -72.76092194 347.25367163 -100.56640625 351.30859375 C-115.83003064 352.08173205 -131.76660821 352.4747117 -146.56640625 348.30859375 C-147.79488281 347.96828125 -149.02335937 347.62796875 -150.2890625 347.27734375 C-181.70459157 337.66100807 -206.57782739 316.33635232 -222.51171875 287.828125 C-226.80431145 279.60530133 -230.06005216 271.22313522 -232.56640625 262.30859375 C-233.04787109 260.60123047 -233.04787109 260.60123047 -233.5390625 258.859375 C-240.88721083 227.24524846 -234.45454221 193.70541871 -217.56640625 166.30859375 C-214.7713264 162.12111199 -211.77112593 158.18992364 -208.56640625 154.30859375 C-207.76847656 153.3340625 -206.97054687 152.35953125 -206.1484375 151.35546875 C-186.12262717 128.20914638 -157.04882207 113.84720446 -126.56640625 111.30859375 C-116.22544985 110.65212069 -106.00491121 110.96761178 -95.75390625 112.49609375 C-94.71762085 112.64715576 -94.71762085 112.64715576 -93.66040039 112.80126953 C-89.85885621 113.45381598 -86.56217981 114.31033007 -82.97045898 115.78588867 C-76.59015507 118.36535778 -71.50246655 120.38196944 -64.78048706 117.58372498 C-61.50361924 115.96201221 -58.38162726 114.13597294 -55.25390625 112.24609375 C-53.90691685 111.48368701 -52.55702124 110.72639324 -51.2043457 109.97412109 C-48.53534738 108.48199018 -45.88318784 106.96543248 -43.2421875 105.42431641 C-38.34053776 102.57790474 -33.30182132 100.00869404 -28.25390625 97.43359375 C-23.0664598 94.8714615 -23.0664598 94.8714615 -18.56640625 91.30859375 C-39.48845253 76.75106911 -62.31082405 67.61709957 -87.33325195 63.1315918 C-94.5895649 61.77167502 -100.23620988 60.31332065 -104.94140625 54.24609375 C-107.21732415 50.13193446 -107.69933383 47.22150508 -107.7434082 42.5871582 C-107.76266106 40.82436272 -107.76266106 40.82436272 -107.78230286 39.0259552 C-107.78968979 37.75410873 -107.79707672 36.48226227 -107.8046875 35.171875 C-107.81275925 33.86333054 -107.82083099 32.55478607 -107.82914734 31.20658875 C-107.84416418 28.43338145 -107.85400581 25.66019966 -107.86157227 22.88696289 C-107.87260794 19.35078739 -107.90697809 15.81524615 -107.94674397 12.27929401 C-107.97933285 8.8893476 -107.98369989 5.49946588 -107.9921875 2.109375 C-108.00969559 0.84764969 -108.02720367 -0.41407562 -108.04524231 -1.71403503 C-108.02768116 -8.8629343 -107.48754582 -13.64525043 -103.56640625 -19.69140625 C-82.69703569 -39.54275873 -21.5724994 -10.66491387 0 0 Z M-89.56640625 -6.69140625 C-89.56640625 10.13859375 -89.56640625 26.96859375 -89.56640625 44.30859375 C-81.31640625 45.95859375 -73.06640625 47.60859375 -64.56640625 49.30859375 C-41.99651139 56.27461068 -19.64122251 66.04960415 -1.26953125 81.203125 C-0.7075 81.56792969 -0.14546875 81.93273437 0.43359375 82.30859375 C2.07523845 81.87305536 3.71501413 81.42218473 5.32421875 80.87890625 C12.93436868 78.82134719 19.57289575 80.06815596 26.33984375 83.890625 C31.09235461 87.10920978 34.01235506 91.76887507 35.43359375 97.30859375 C35.92604454 102.44523427 35.96818161 106.88140615 34.14453125 111.75 C33.03440366 115.36139139 33.03440366 115.36139139 35.109375 118.4921875 C35.96905374 119.59212507 36.84945064 120.67607444 37.74609375 121.74609375 C38.69396493 122.97289664 39.6351824 124.20486397 40.5703125 125.44140625 C41.05161621 126.07594727 41.53291992 126.71048828 42.02880859 127.36425781 C46.08080123 132.97254238 49.24135218 139.18479093 52.43359375 145.30859375 C52.95566406 146.30366943 52.95566406 146.30366943 53.48828125 147.31884766 C57.79546768 155.64782894 61.26694687 164.14705724 64.18359375 173.05859375 C64.45316895 173.86570801 64.72274414 174.67282227 65.00048828 175.50439453 C68.06984259 185.3365406 69.47569073 195.02960292 71.43359375 205.30859375 C88.26359375 205.30859375 105.09359375 205.30859375 122.43359375 205.30859375 C121.80345501 197.11679014 121.18775109 189.6036611 119.43359375 181.68359375 C119.21920654 180.71558838 119.00481934 179.74758301 118.78393555 178.75024414 C106.44698012 125.66714854 76.00276665 75.61021843 32.43359375 42.30859375 C31.81838867 41.83341309 31.20318359 41.35823242 30.56933594 40.86865234 C2.02448227 18.9732167 -30.57952258 4.27252764 -65.62890625 -3.56640625 C-66.53189453 -3.76983643 -67.43488281 -3.9732666 -68.36523438 -4.18286133 C-75.542155 -5.69465423 -82.09558862 -6.11672797 -89.56640625 -6.69140625 Z M7.43359375 99.14453125 C6.63912842 99.54397949 5.84466309 99.94342773 5.02612305 100.35498047 C4.17058838 100.79342285 3.31505371 101.23186523 2.43359375 101.68359375 C1.54003174 102.13621582 0.64646973 102.58883789 -0.27416992 103.05517578 C-7.72481572 106.8431505 -15.12612522 110.72376045 -22.51171875 114.63671875 C-28.41217321 117.76174783 -34.33302416 120.84749189 -40.25390625 123.93359375 C-41.27718018 124.46710449 -42.3004541 125.00061523 -43.35473633 125.55029297 C-45.75847095 126.80335836 -48.16235369 128.05613847 -50.56640625 129.30859375 C-50.56640625 129.96859375 -50.56640625 130.62859375 -50.56640625 131.30859375 C-48.65344061 132.81585239 -48.65344061 132.81585239 -46.19140625 134.37109375 C-35.2287527 141.85966695 -24.46453667 151.54641099 -17.56640625 162.99609375 C-16.90640625 164.08921875 -16.24640625 165.18234375 -15.56640625 166.30859375 C-14.90640625 166.30859375 -14.24640625 166.30859375 -13.56640625 166.30859375 C-13.31584473 165.80223389 -13.0652832 165.29587402 -12.80712891 164.77416992 C-8.19430532 155.4658894 -3.54410037 146.18200813 1.30859375 136.99609375 C1.70715576 136.23820557 2.10571777 135.48031738 2.51635742 134.69946289 C4.9007487 130.17498079 7.32136515 125.67212394 9.765625 121.1796875 C10.88425427 119.0977313 12.00274587 117.01570112 13.12109375 114.93359375 C13.6629834 113.95221436 14.20487305 112.97083496 14.76318359 111.9597168 C15.5030249 110.57393433 15.5030249 110.57393433 16.2578125 109.16015625 C16.9242981 107.93546631 16.9242981 107.93546631 17.60424805 106.68603516 C18.62535986 103.75886799 18.46444124 102.21501521 17.43359375 99.30859375 C13.35555153 96.58989894 11.56070922 97.05347206 7.43359375 99.14453125 Z M-188.56640625 160.30859375 C-189.46230469 161.19417969 -190.35820312 162.07976562 -191.28125 162.9921875 C-209.3748675 181.75490642 -218.20486318 207.73426468 -217.91601562 233.58056641 C-217.03919063 261.04059232 -205.98354761 285.14635415 -186.56640625 304.30859375 C-185.68082031 305.20449219 -184.79523438 306.10039062 -183.8828125 307.0234375 C-165.12009358 325.117055 -139.14073532 333.94705068 -113.29443359 333.65820312 C-84.0083778 332.72307125 -59.37409142 319.89499002 -39.09375 299.07421875 C-21.12882229 279.41553433 -12.64433651 252.99725288 -13.32421875 226.65625 C-14.52377259 200.10572902 -25.84018854 176.78897992 -44.56640625 158.30859375 C-45.45199219 157.41269531 -46.33757812 156.51679688 -47.25 155.59375 C-66.01271892 137.5001325 -91.99207718 128.67013682 -117.83837891 128.95898438 C-145.29840482 129.83580937 -169.40416665 140.89145239 -188.56640625 160.30859375 Z " fill="#000000" transform="translate(371.56640625,24.69140625)"/>
<path d="M0 0 C1.17519699 -0.01283524 2.35039398 -0.02567047 3.561203 -0.03889465 C5.4689727 -0.04997505 5.4689727 -0.04997505 7.4152832 -0.0612793 C8.72382767 -0.06935104 10.03237213 -0.07742279 11.38056946 -0.08573914 C14.15377675 -0.10075598 16.92695854 -0.11059761 19.70019531 -0.11816406 C23.23637081 -0.12919974 26.77191205 -0.16356989 30.30786419 -0.20333576 C33.6978106 -0.23592465 37.08769233 -0.24029169 40.4777832 -0.2487793 C42.37037117 -0.27504143 42.37037117 -0.27504143 44.30119324 -0.30183411 C51.91359503 -0.28313437 58.15681923 0.07740366 63.8404541 5.73049927 C67.90104768 10.47957747 68.58896378 16.1266711 69.59106445 22.11450195 C74.73761336 49.09715223 84.97960675 74.62365303 102.27856445 96.17700195 C102.71523437 96.72501465 103.1519043 97.27302734 103.60180664 97.83764648 C130.64420841 131.4702952 167.62720404 153.12073108 210.19677734 160.31640625 C216.27354875 161.4209467 220.86590774 162.72622482 225.27856445 167.17700195 C229.86893327 174.25421009 229.8636721 180.51381983 229.80981445 188.80200195 C229.81364136 190.10347168 229.81746826 191.40494141 229.82141113 192.74584961 C229.8272792 195.48937156 229.81883182 198.23236948 229.80004883 200.97583008 C229.77725954 204.47276533 229.79039736 207.96847224 229.81433868 211.46536255 C229.83236087 214.82767118 229.81970125 218.18965855 229.80981445 221.55200195 C229.81791138 222.79804199 229.8260083 224.04408203 229.83435059 225.32788086 C229.75830715 232.41328255 229.14517082 237.17648335 225.27856445 243.17700195 C219.78001006 248.40733419 215.03511566 248.52546658 207.7199707 248.45043945 C146.14186577 245.60729038 86.55023871 209.17738195 45.27856445 165.17700195 C42.16715527 161.59432942 39.20921699 157.90829667 36.27856445 154.17700195 C35.48708008 153.19086914 34.6955957 152.20473633 33.88012695 151.1887207 C5.19175361 114.85313113 -20.67481706 62.72851566 -19.10424805 15.19262695 C-18.35967919 9.3272478 -16.3876896 6.46919897 -11.65893555 2.80200195 C-7.54477626 0.52608405 -4.63434688 0.04407437 0 0 Z M-0.72143555 18.17700195 C3.87355919 73.31693879 30.32262258 122.76494977 68.27856445 162.17700195 C69.03137695 162.97106445 69.78418945 163.76512695 70.55981445 164.58325195 C75.73983742 169.93311174 81.44330513 174.56254031 87.27856445 179.17700195 C88.27887695 179.98266602 89.27918945 180.78833008 90.30981445 181.6184082 C97.92932644 187.68517948 105.90621594 192.98183864 114.26538086 197.97436523 C115.56839906 198.75276296 116.8678265 199.53721682 118.1628418 200.32885742 C139.34250053 213.24055099 163.03345327 221.57822792 187.15356445 226.98950195 C188.06823486 227.19679932 188.98290527 227.40409668 189.92529297 227.61767578 C197.16299927 229.15771003 203.73811845 229.59696765 211.27856445 230.17700195 C211.27856445 213.34700195 211.27856445 196.51700195 211.27856445 179.17700195 C199.39856445 176.70200195 199.39856445 176.70200195 187.27856445 174.17700195 C154.61075782 164.5119704 127.97283923 148.39384148 103.27856445 125.17700195 C102.64176758 124.5943457 102.0049707 124.01168945 101.34887695 123.41137695 C72.54564311 96.12410279 56.66854562 56.51688898 50.27856445 18.17700195 C33.44856445 18.17700195 16.61856445 18.17700195 -0.72143555 18.17700195 Z " fill="#000000" transform="translate(18.721435546875,263.822998046875)"/>
<path d="M0 0 C3.90436807 3.29702193 6.19861851 6.53335554 7.8125 11.375 C7.92096517 13.27997221 7.97135643 15.18846423 7.98950195 17.09643555 C8.00875481 18.85923103 8.00875481 18.85923103 8.02839661 20.65763855 C8.03578354 21.92948502 8.04317047 23.20133148 8.05078125 24.51171875 C8.058853 25.82026321 8.06692474 27.12880768 8.07524109 28.477005 C8.09025793 31.2502123 8.10009956 34.02339409 8.10766602 36.79663086 C8.11870169 40.33280636 8.15307184 43.8683476 8.19283772 47.40429974 C8.2254266 50.79424615 8.22979364 54.18412787 8.23828125 57.57421875 C8.25578934 58.83594406 8.27329742 60.09766937 8.29133606 61.39762878 C8.27089178 69.72020819 7.42956588 75.34933964 1.703125 81.72265625 C-2.48265278 84.11533733 -6.73789625 84.88513191 -11.4375 85.8125 C-13.42402941 86.23560114 -15.40970486 86.66273045 -17.39453125 87.09375 C-18.37631348 87.30644531 -19.3580957 87.51914063 -20.36962891 87.73828125 C-51.69105351 94.81558807 -80.23675446 109.92246167 -103.1875 132.375 C-104.04730469 133.18453125 -104.90710938 133.9940625 -105.79296875 134.828125 C-131.95662121 159.97768241 -145.8633692 193.69403214 -153.00878906 228.65698242 C-154.4669899 235.47557518 -155.76117127 239.97656989 -161.6875 244.125 C-165.79744529 246.17997264 -169.27846474 246.50489751 -173.85473633 246.53613281 C-174.99304398 246.54574036 -176.13135162 246.5553479 -177.30415344 246.56524658 C-178.53022812 246.56949646 -179.7563028 246.57374634 -181.01953125 246.578125 C-182.28464035 246.58382507 -183.54974945 246.58952515 -184.85319519 246.59539795 C-187.53050328 246.60484466 -190.20769938 246.61174324 -192.88500977 246.61523438 C-196.30119699 246.62071147 -199.71698413 246.64473088 -203.13304615 246.67320633 C-206.40767716 246.69640836 -209.68232957 246.69828733 -212.95703125 246.703125 C-214.78703423 246.7216452 -214.78703423 246.7216452 -216.65400696 246.74053955 C-224.5690188 246.7198439 -229.85129933 246.26637391 -236 240.9375 C-240.99960462 235.0808203 -240.86961752 229.3309572 -240.43017578 221.921875 C-234.4101164 158.74153351 -199.08738516 96.86279924 -150.625 56.5625 C-148.82183733 55.15462524 -147.008579 53.75962205 -145.1875 52.375 C-144.01251566 51.44855701 -142.83807379 50.52142576 -141.6640625 49.59375 C-126.69378546 37.91339267 -110.3720802 28.40653941 -93.1875 20.375 C-92.27000977 19.93728271 -92.27000977 19.93728271 -91.33398438 19.49072266 C-72.18725784 10.40765307 -51.91781748 4.53530196 -31.1875 0.375 C-30.02863281 0.12878906 -28.86976563 -0.11742188 -27.67578125 -0.37109375 C-19.38010168 -1.97706643 -7.81035152 -4.02249864 0 0 Z M-28.875 18.5 C-29.98061279 18.72518311 -31.08622559 18.95036621 -32.2253418 19.18237305 C-55.41691404 24.05171849 -77.28260308 32.24973808 -98.1875 43.375 C-98.83106445 43.71080078 -99.47462891 44.04660156 -100.13769531 44.39257812 C-128.06111227 59.02772555 -154.25535563 81.14325125 -173.1875 106.375 C-173.65542969 106.9829541 -174.12335938 107.5909082 -174.60546875 108.21728516 C-196.5133645 136.76790875 -211.22079169 169.37571135 -219.0625 204.4375 C-219.26593018 205.34048828 -219.46936035 206.24347656 -219.67895508 207.17382812 C-221.19074798 214.35074875 -221.61282172 220.90418237 -222.1875 228.375 C-205.3575 228.375 -188.5275 228.375 -171.1875 228.375 C-169.8675 221.445 -168.5475 214.515 -167.1875 207.375 C-166.09043422 203.31414625 -164.99790249 199.44894968 -163.625 195.5 C-163.28911865 194.51660645 -162.9532373 193.53321289 -162.60717773 192.52001953 C-153.38445251 166.42047587 -139.21959817 143.42999596 -120.1875 123.375 C-119.74180664 122.9020752 -119.29611328 122.42915039 -118.83691406 121.94189453 C-89.99672155 91.52806077 -51.10491942 74.1945699 -10.1875 67.375 C-10.1875 50.545 -10.1875 33.715 -10.1875 16.375 C-16.84005973 16.375 -22.42068627 17.18274287 -28.875 18.5 Z " fill="#000000" transform="translate(240.1875,1.625)"/>
<path d="M0 0 C1.30146973 -0.0038269 2.60293945 -0.00765381 3.94384766 -0.01159668 C6.68736961 -0.01746474 9.43036753 -0.00901737 12.17382812 0.00976562 C15.67076338 0.03255492 19.16647029 0.01941709 22.6633606 -0.00452423 C26.02566923 -0.02254642 29.3876566 -0.0098868 32.75 0 C33.99604004 -0.00809692 35.24208008 -0.01619385 36.52587891 -0.02453613 C43.61128059 0.0515073 48.37448139 0.66464363 54.375 4.53125 C59.64338822 10.06981197 59.87081576 15.31988862 59.71484375 22.6640625 C57.12947472 73.57759534 30.49452547 124.81804885 -2.625 162.53125 C-3.75035156 163.82482422 -3.75035156 163.82482422 -4.8984375 165.14453125 C-14.0576276 175.51061824 -23.70968773 185.01640059 -34.625 193.53125 C-36.10033203 194.71460938 -36.10033203 194.71460938 -37.60546875 195.921875 C-73.78645899 224.70933375 -126.40125665 250.62969855 -173.8671875 248.9140625 C-179.53781437 248.12692166 -182.45364889 246.04167643 -186 241.46875 C-188.2759179 237.35459071 -188.75792758 234.44416133 -188.80200195 229.80981445 C-188.81483719 228.63461746 -188.82767242 227.45942047 -188.84089661 226.24861145 C-188.84828354 224.97676498 -188.85567047 223.70491852 -188.86328125 222.39453125 C-188.871353 221.08598679 -188.87942474 219.77744232 -188.88774109 218.429245 C-188.90275793 215.6560377 -188.91259956 212.88285591 -188.92016602 210.10961914 C-188.93120169 206.57344364 -188.96557184 203.0379024 -189.00533772 199.50195026 C-189.0379266 196.11200385 -189.04229364 192.72212213 -189.05078125 189.33203125 C-189.06828934 188.07030594 -189.08579742 186.80858063 -189.10383606 185.50862122 C-189.08509428 177.87910318 -188.68112366 171.76676954 -183.14805603 165.98898315 C-177.95506401 161.38491214 -170.83527028 160.79816416 -164.25 159.59375 C-130.14982686 152.77240189 -102.03161332 137.12611478 -76.625 113.53125 C-75.98175781 112.95375 -75.33851563 112.37625 -74.67578125 111.78125 C-48.54260983 87.23688775 -34.82140109 52.5936437 -27.80395508 18.24975586 C-25.59948623 7.94368767 -25.59948623 7.94368767 -21.625 4.53125 C-14.49186682 0.00178975 -8.31734621 -0.05404715 0 0 Z M-9.625 18.53125 C-10.945 25.13125 -12.265 31.73125 -13.625 38.53125 C-14.48188262 41.96348864 -15.33278936 45.29158233 -16.375 48.65625 C-16.6239502 49.46989014 -16.87290039 50.28353027 -17.12939453 51.12182617 C-19.91898435 59.91524642 -23.5849401 68.24893278 -27.625 76.53125 C-27.93663086 77.17900391 -28.24826172 77.82675781 -28.56933594 78.49414062 C-49.58102531 121.67371815 -89.09439104 154.62750963 -133.98046875 170.70703125 C-145.864651 174.71090677 -158.26539124 177.47131521 -170.625 179.53125 C-170.625 196.36125 -170.625 213.19125 -170.625 230.53125 C-110.43779041 225.5156492 -54.95369762 194.41917787 -15.06640625 149.66015625 C-12.84765539 146.99844622 -10.72160606 144.29014137 -8.625 141.53125 C-8.20831055 140.99097168 -7.79162109 140.45069336 -7.36230469 139.89404297 C14.78935216 111.07750031 30.25471025 78.11776067 38.1875 42.65625 C38.39463623 41.74198242 38.60177246 40.82771484 38.81518555 39.88574219 C40.35589356 32.64772579 40.79493638 26.07207712 41.375 18.53125 C24.545 18.53125 7.715 18.53125 -9.625 18.53125 Z " fill="#000000" transform="translate(452.625,263.46875)"/>
<path d="M0 0 C0.82242188 0.72832031 1.64484375 1.45664063 2.4921875 2.20703125 C3.12898437 2.76003906 3.76578125 3.31304687 4.421875 3.8828125 C18.84195743 17.27288905 28.65003796 38.55687531 29.4921875 58.20703125 C29.54375 59.27953125 29.5953125 60.35203125 29.6484375 61.45703125 C30.24273298 85.22885055 22.27431126 106.38580123 6.4921875 124.20703125 C5.93917969 124.84382812 5.38617188 125.480625 4.81640625 126.13671875 C-9.69420587 141.7635318 -31.51152055 150.2672771 -52.5 151.36328125 C-75.62340378 151.99248952 -97.07759299 144.53995605 -114.5078125 129.20703125 C-115.26964844 128.54058594 -116.03148437 127.87414062 -116.81640625 127.1875 C-132.50819834 112.52913616 -141.51810085 90.85054477 -142.7109375 69.5859375 C-142.99784609 46.22679606 -136.11354933 24.94737903 -120.5078125 7.20703125 C-119.84136719 6.44519531 -119.17492187 5.68335938 -118.48828125 4.8984375 C-87.59519158 -28.17264365 -33.66848621 -28.7565116 0 0 Z M-102.5078125 15.20703125 C-103.11753906 15.73683594 -103.72726563 16.26664063 -104.35546875 16.8125 C-117.0799798 28.58616846 -123.23598582 45.39116058 -124.79296875 62.3046875 C-125.35657638 80.51166427 -118.68528277 97.74182849 -106.5078125 111.20703125 C-105.97800781 111.81675781 -105.44820312 112.42648437 -104.90234375 113.0546875 C-93.3142913 125.57859216 -76.13483206 131.93818887 -59.4453125 133.4921875 C-41.73882019 134.03374245 -24.34221107 127.3349718 -10.87890625 115.9921875 C3.43870473 102.50521654 11.11904303 84.37289866 11.8046875 64.83203125 C11.39388156 46.98764837 3.99928147 29.81629624 -8.2578125 16.95703125 C-21.49120435 4.3242472 -38.21704138 -2.60176722 -56.5078125 -3.16796875 C-73.83180452 -2.5657979 -89.61389016 3.54620752 -102.5078125 15.20703125 Z " fill="#000000" transform="translate(312.5078125,190.79296875)"/>
<path d="M0 0 C2.38055741 1.38443764 4.58205038 2.93346952 6.82421875 4.53125 C13.10349681 8.77004452 20.69146427 8.74725677 28 8 C33.3036913 6.66374531 37.78812632 4.86229473 42.25 1.6875 C45 0 45 0 48.625 0 C52.31300277 1.09274156 53.7635089 1.90332002 56 5 C57.01583936 7.82983821 57.10296779 9.498032 56.5 12.4375 C51.8543352 20.37384403 43.78455785 23.47774793 35.25390625 25.72265625 C22.15445242 28.40653349 7.27741227 27.47322215 -4.41015625 20.578125 C-8.13452217 17.9555225 -11.39835093 15.3778408 -13 11 C-13 6.78105729 -12.66605308 4.76400206 -9.875 1.5625 C-6.09065717 -0.49420806 -4.27131673 -0.71188612 0 0 Z " fill="#000000" transform="translate(234,264)"/>
<path d="M0 0 C2.92488107 1.99140839 4.66988282 3.41229358 5.41015625 6.97265625 C5.54085106 10.01273119 5.15280773 12.60269991 4.0625 15.4375 C0.69975484 17.98503421 -2.85027804 18.29120856 -7 18 C-10 16.5 -10 16.5 -12 14 C-13.14888518 10.05070721 -13.43129396 7.97041141 -11.75 4.1875 C-8.25986481 -0.17516899 -5.39027785 -0.65055077 0 0 Z " fill="#000000" transform="translate(234,230)"/>
<path d="M0 0 C3.75514634 2.0408404 4.77457968 3.28395898 6.0625 7.375 C5.98603205 11.81014124 4.80644332 13.63226802 2 17 C-1.49402539 18.7470127 -5.28688318 17.85687311 -9 17 C-11.0625 15.4375 -11.0625 15.4375 -12 13 C-12.62869315 8.04904141 -12.77903011 6.13313471 -9.9375 2 C-6.23727467 -0.51930235 -4.3968344 -0.7066341 0 0 Z " fill="#000000" transform="translate(285,230)"/>
</svg>
