<?xml version="1.0" encoding="UTF-8"?>
<svg version="1.1" xmlns="http://www.w3.org/2000/svg" width="512" height="512">
<path d="M0 0 C1.14629883 0.05526855 2.29259766 0.11053711 3.47363281 0.16748047 C9.00332341 0.69620054 14.41486217 1.50756524 19.8671875 2.56640625 C21.02903564 2.78756104 22.19088379 3.00871582 23.38793945 3.23657227 C34.85922786 5.51707971 45.92550249 8.7501147 56.9921875 12.50390625 C57.69778809 12.73658203 58.40338867 12.96925781 59.13037109 13.20898438 C93.47566481 24.63184205 126.89780259 45.28027401 151.9921875 71.50390625 C154.46855123 74.00070202 156.96052255 76.473573 159.5 78.90625 C197.23192411 115.45553172 227.11195538 175.14621457 228.3046875 228.19140625 C228.34207031 229.28839844 228.37945313 230.38539063 228.41796875 231.515625 C227.89538441 235.18330411 226.89013972 236.27431058 223.9921875 238.50390625 C220.90567496 239.53274376 218.74999286 239.6426745 215.5144043 239.66503906 C214.39281418 239.67464661 213.27122406 239.68425415 212.11564636 239.69415283 C210.29689751 239.70052765 210.29689751 239.70052765 208.44140625 239.70703125 C207.19470657 239.71273132 205.9480069 239.7184314 204.66352844 239.7243042 C202.02312571 239.73375791 199.38283674 239.74065278 196.74243164 239.74414062 C194.03916969 239.74853062 191.33622597 239.76244191 188.63305664 239.78515625 C184.73574117 239.81561704 180.8388275 239.82618882 176.94140625 239.83203125 C175.73497971 239.84437805 174.52855316 239.85672485 173.28556824 239.8694458 C162.45995867 239.84072132 162.45995867 239.84072132 157.9921875 236.50390625 C156.08458223 233.75928326 155.56520224 230.96952331 154.984375 227.70703125 C151.07268 206.85885001 145.31763984 187.10896359 134.9921875 168.50390625 C134.33675269 167.2828133 133.68180394 166.06145933 133.02734375 164.83984375 C128.07608667 155.75293175 122.42287056 146.78431472 114.9921875 139.50390625 C109.63625598 149.6588472 104.29836602 159.82286916 98.9921875 170.00390625 C95.16639008 177.34119522 91.33803546 184.67710253 87.4921875 192.00390625 C87.09515625 192.76251953 86.698125 193.52113281 86.2890625 194.30273438 C85.91265625 195.01880859 85.53625 195.73488281 85.1484375 196.47265625 C84.61476563 197.49746094 84.61476563 197.49746094 84.0703125 198.54296875 C82.9921875 200.50390625 82.9921875 200.50390625 81.7890625 202.33984375 C79.78952419 205.42132401 78.98405386 207.21857831 79.08984375 210.9296875 C80.267162 215.59309096 81.62217009 220.16821386 83.08789062 224.74804688 C91.65138679 252.54726416 88.08178719 283.95071509 74.88671875 309.69921875 C70.6665942 317.61712513 65.9273671 324.74888667 59.9921875 331.50390625 C59.32960938 332.30957031 58.66703125 333.11523438 57.984375 333.9453125 C40.80308721 354.20148021 13.95964668 368.51444102 -12.50195312 371.3046875 C-44.21960449 373.82627787 -75.96670198 367.58940936 -100.72265625 346.51171875 C-101.47675781 345.84914063 -102.23085937 345.1865625 -103.0078125 344.50390625 C-103.81347656 343.84132813 -104.61914062 343.17875 -105.44921875 342.49609375 C-125.70538646 325.31480596 -140.01834727 298.47136543 -142.80859375 272.00976562 C-145.33018412 240.29211426 -139.09331561 208.54501677 -118.015625 183.7890625 C-117.35304687 183.03496094 -116.69046875 182.28085938 -116.0078125 181.50390625 C-115.34523437 180.69824219 -114.68265625 179.89257812 -114 179.0625 C-96.81871221 158.80633229 -69.97527168 144.49337148 -43.51367188 141.703125 C-24.28254025 140.17422755 -4.22539011 140.72372225 13.60546875 148.8671875 C21.41046491 150.94937142 28.11391144 146.14880885 34.7421875 142.56640625 C35.85182861 141.97738525 36.96146973 141.38836426 38.10473633 140.78149414 C40.35471717 139.58661194 42.6025487 138.38767322 44.84814453 137.18457031 C47.58534593 135.72138547 50.32976212 134.27441349 53.08203125 132.83984375 C65.13928261 126.55474785 77.07257533 120.04554931 88.9921875 113.50390625 C66.89755093 90.21829485 30.33800702 78.27504092 -0.546875 73.3125 C-4.58605582 72.36880877 -7.81217726 71.37092472 -10.12391663 67.76107788 C-11.21706282 64.96955158 -11.28297068 62.72708285 -11.31420898 59.72900391 C-11.33019638 58.56744781 -11.34618378 57.40589172 -11.36265564 56.20913696 C-11.36801834 54.95805145 -11.37338104 53.70696594 -11.37890625 52.41796875 C-11.38793472 51.12829193 -11.3969632 49.83861511 -11.40626526 48.50985718 C-11.42273483 45.78128561 -11.4304516 43.05283645 -11.43334961 40.32421875 C-11.43873144 36.83811015 -11.47640888 33.35316143 -11.52209377 29.86738014 C-11.55909818 26.53008225 -11.56038189 23.19296475 -11.56640625 19.85546875 C-11.58593857 18.6084317 -11.60547089 17.36139465 -11.62559509 16.0765686 C-11.57531885 6.41578166 -11.57531885 6.41578166 -8.84838867 2.70092773 C-5.53402864 0.13746182 -4.13921643 -0.20447354 0 0 Z " fill="#464F5C" transform="translate(284.0078125,-0.50390625)"/>
<path d="M0 0 C3.28868699 2.76566689 4.75099772 4.50529782 5.46354675 8.78256226 C5.64617747 12.29158015 5.66645124 15.76762054 5.62890625 19.28125 C5.63131821 20.56809692 5.63373016 21.85494385 5.63621521 23.18078613 C5.63906532 25.89770298 5.62445187 28.61379185 5.59692383 31.33056641 C5.56284013 34.80089723 5.56886548 38.26974877 5.5875864 41.74015045 C5.60073857 45.06649537 5.58242878 48.39241536 5.56640625 51.71875 C5.57136612 52.95951294 5.57632599 54.20027588 5.58143616 55.4786377 C5.42917466 66.64519057 5.42917466 66.64519057 1 71 C-1.59936523 72.12084961 -1.59936523 72.12084961 -4.55859375 72.65234375 C-6.20456543 72.97464966 -6.20456543 72.97464966 -7.88378906 73.3034668 C-9.05651367 73.51269775 -10.22923828 73.72192871 -11.4375 73.9375 C-49.16377308 81.54942475 -81.20537153 98.53083791 -109 125 C-109.70640625 125.65355469 -110.4128125 126.30710937 -111.140625 126.98046875 C-137.11809117 151.74354118 -153.14358729 187.15930755 -159.89453125 221.86328125 C-160.59781783 225.26984559 -161.36048313 228.63740542 -162.32421875 231.98046875 C-162.52490967 232.68453857 -162.72560059 233.3886084 -162.93237305 234.11401367 C-164.459939 236.81249228 -166.24722766 237.61563075 -169 239 C-171.76953125 239.38095093 -171.76953125 239.38095093 -174.8125 239.38818359 C-175.9571875 239.39764008 -177.101875 239.40709656 -178.28125 239.4168396 C-179.5084375 239.41076691 -180.735625 239.40469421 -182 239.3984375 C-183.90265625 239.40274277 -183.90265625 239.40274277 -185.84375 239.40713501 C-188.52375105 239.40917518 -191.20292925 239.40516185 -193.8828125 239.39111328 C-197.30932566 239.37402141 -200.73513377 239.38386824 -204.16162109 239.40183067 C-207.44110564 239.41530808 -210.72050623 239.40585823 -214 239.3984375 C-215.84078125 239.40754654 -215.84078125 239.40754654 -217.71875 239.4168396 C-218.8634375 239.40738312 -220.008125 239.39792664 -221.1875 239.38818359 C-222.19167969 239.38579681 -223.19585937 239.38341003 -224.23046875 239.38095093 C-228.42352556 238.80419308 -231.04829329 236.95170671 -234 234 C-240.44156948 193.3164033 -212.23123187 138.75213119 -189.44970703 106.98291016 C-183.4257758 98.74337336 -177.08526441 90.85972147 -170.1640625 83.3515625 C-168.72038883 81.78280519 -167.29827663 80.19393114 -165.8984375 78.5859375 C-133.83430294 41.85792882 -52.16408818 -13.64630155 0 0 Z " fill="#F0C418" transform="translate(234,0)"/>
<path d="M0 0 C1.28684692 -0.00619858 2.57369385 -0.01239716 3.89953613 -0.01878357 C6.61631238 -0.02916087 9.33256396 -0.02466516 12.04931641 -0.01000977 C15.5197908 0.00718541 18.98861057 -0.01633624 22.45890045 -0.05149937 C25.78519651 -0.07881858 29.11109707 -0.06873473 32.4375 -0.0625 C33.67826294 -0.07575821 34.91902588 -0.08901642 36.1973877 -0.10267639 C45.79280095 0.00087093 45.79280095 0.00087093 49.50341797 2.94799805 C52.85551862 6.91000813 52.42168532 9.40001886 52.16796875 14.41796875 C48.086386 55.97403293 32.21429857 97.76666612 7.71875 131.56640625 C6.98269531 132.59378906 6.24664062 133.62117187 5.48828125 134.6796875 C-4.65675087 148.52361629 -16.08878439 162.844755 -29.296875 173.88671875 C-30.67355541 175.05201909 -32.0157328 176.25883851 -33.328125 177.49609375 C-45.85894736 189.29235066 -60.23506694 199.25926619 -75.28125 207.56640625 C-76.09480957 208.02225098 -76.90836914 208.4780957 -77.74658203 208.94775391 C-103.77047964 223.42667769 -151.23661734 247.51850463 -182.28125 239.56640625 C-185.57447856 236.7995932 -187.03634598 235.06136832 -187.73823547 230.77684021 C-187.91071659 227.25824877 -187.92142933 223.77256871 -187.875 220.25 C-187.87504028 218.9607814 -187.87508057 217.67156281 -187.87512207 216.34327698 C-187.87347361 213.62214894 -187.85486383 210.90184954 -187.82324219 208.1809082 C-187.78352498 204.70168104 -187.77920414 201.22353535 -187.78670502 197.74412441 C-187.79052026 194.41261895 -187.76968862 191.08145207 -187.75 187.75 C-187.74969788 185.88111366 -187.74969788 185.88111366 -187.74938965 183.97447205 C-187.72552185 182.23225121 -187.72552185 182.23225121 -187.70117188 180.45483398 C-187.69275269 179.43590561 -187.6843335 178.41697723 -187.67565918 177.36717224 C-187.21373522 174.0869724 -186.23652212 172.22282998 -184.28125 169.56640625 C-181.26507735 167.55562448 -179.74294638 167.12284551 -176.2578125 166.5234375 C-175.2476709 166.34087402 -174.2375293 166.15831055 -173.19677734 165.97021484 C-172.11090332 165.77508301 -171.0250293 165.57995117 -169.90625 165.37890625 C-137.61352677 159.17607216 -108.06501628 145.31139864 -83.28125 123.56640625 C-82.40984375 122.80457031 -81.5384375 122.04273438 -80.640625 121.2578125 C-78.15981986 119.05554087 -75.71342685 116.82215576 -73.28125 114.56640625 C-72.68957031 114.02886719 -72.09789062 113.49132812 -71.48828125 112.9375 C-44.72002725 87.56806212 -27.76061431 50.20726482 -21.51953125 14.3359375 C-21.29652344 13.09199219 -21.07351563 11.84804688 -20.84375 10.56640625 C-20.68003906 9.49390625 -20.51632812 8.42140625 -20.34765625 7.31640625 C-19.20122919 4.36005221 -18.07279417 3.07435655 -15.39830017 1.39797974 C-10.55131382 -0.50590775 -5.13030239 -0.02050805 0 0 Z " fill="#4EBA6E" transform="translate(460.28125,272.43359375)"/>
<path d="M0 0 C1.2892186 -0.00004028 2.57843719 -0.00008057 3.90672302 -0.00012207 C6.62785106 0.00152639 9.34815046 0.02013617 12.0690918 0.05175781 C15.54831896 0.09147502 19.02646465 0.09579586 22.50587559 0.08829498 C25.83738105 0.08447974 29.16854793 0.10531138 32.5 0.125 C33.74592422 0.12520142 34.99184845 0.12540283 36.27552795 0.12561035 C37.43700851 0.14152222 38.59848907 0.15743408 39.79516602 0.17382812 C41.32355858 0.18645691 41.32355858 0.18645691 42.88282776 0.19934082 C46.1368316 0.65757581 48.03803202 1.67435649 50.68359375 3.59375 C51.76660156 5.54785156 51.76660156 5.54785156 52.38671875 7.734375 C52.61681641 8.53294922 52.84691406 9.33152344 53.08398438 10.15429688 C53.99593741 13.86449016 54.73677875 17.58813099 55.43359375 21.34375 C61.67095865 52.26443875 75.88630551 80.89012566 96.68359375 104.59375 C97.44542969 105.46515625 98.20726563 106.3365625 98.9921875 107.234375 C101.19445913 109.71518014 103.42784424 112.16157315 105.68359375 114.59375 C106.22113281 115.18542969 106.75867188 115.77710938 107.3125 116.38671875 C132.96079601 143.44920652 172.02707462 161.67279388 208.62109375 166.59375 C212.13520828 167.10994761 214.29154298 167.60115038 216.87109375 170.09375 C219.53223963 173.76429603 219.82003659 175.6415698 219.87646484 180.14160156 C219.89252777 181.30330872 219.9085907 182.46501587 219.92514038 183.66192627 C219.96952719 188.98214254 220.0111025 194.30221023 220.03369141 199.62255859 C220.04701578 202.42985733 220.07483841 205.23642657 220.11572266 208.04345703 C220.17460496 212.08638748 220.19236213 216.12853798 220.20703125 220.171875 C220.22970062 221.42518616 220.25237 222.67849731 220.27572632 223.9697876 C220.25215582 233.6816673 220.25215582 233.6816673 217.31079102 237.38720703 C213.33669399 240.7249906 210.80566375 240.29452572 205.7890625 240.05078125 C150.94548544 234.63091311 94.94460987 208.3077161 56.68359375 168.59375 C54.27945184 166.17034414 51.86459659 163.76641312 49.39453125 161.41015625 C42.39838558 154.65969463 36.47490648 147.370712 30.68359375 139.59375 C30.20132324 138.95050781 29.71905273 138.30726563 29.22216797 137.64453125 C2.94804986 102.34654083 -17.99745013 56.57209018 -19.75390625 11.96875 C-19.81449219 10.88335937 -19.87507813 9.79796875 -19.9375 8.6796875 C-19.24591741 5.24352244 -18.19691392 3.78982281 -15.45133972 1.63833618 C-10.69617579 -0.68828364 -5.17618689 -0.0682249 0 0 Z " fill="#E64B3B" transform="translate(19.31640625,272.40625)"/>
<path d="M0 0 C1.14629883 0.05526855 2.29259766 0.11053711 3.47363281 0.16748047 C9.00332341 0.69620054 14.41486217 1.50756524 19.8671875 2.56640625 C21.02903564 2.78756104 22.19088379 3.00871582 23.38793945 3.23657227 C34.85922786 5.51707971 45.92550249 8.7501147 56.9921875 12.50390625 C57.69778809 12.73658203 58.40338867 12.96925781 59.13037109 13.20898438 C93.47566481 24.63184205 126.89780259 45.28027401 151.9921875 71.50390625 C154.46855123 74.00070202 156.96052255 76.473573 159.5 78.90625 C197.23192411 115.45553172 227.11195538 175.14621457 228.3046875 228.19140625 C228.36076172 229.83689453 228.36076172 229.83689453 228.41796875 231.515625 C227.89538441 235.18330411 226.89013972 236.27431058 223.9921875 238.50390625 C220.90567496 239.53274376 218.74999286 239.6426745 215.5144043 239.66503906 C214.39281418 239.67464661 213.27122406 239.68425415 212.11564636 239.69415283 C210.90314713 239.69840271 209.69064789 239.70265259 208.44140625 239.70703125 C207.19470657 239.71273132 205.9480069 239.7184314 204.66352844 239.7243042 C202.02312571 239.73375791 199.38283674 239.74065278 196.74243164 239.74414062 C194.03916969 239.74853062 191.33622597 239.76244191 188.63305664 239.78515625 C184.73574117 239.81561704 180.8388275 239.82618882 176.94140625 239.83203125 C175.73497971 239.84437805 174.52855316 239.85672485 173.28556824 239.8694458 C162.45995867 239.84072132 162.45995867 239.84072132 157.9921875 236.50390625 C156.08458223 233.75928326 155.56520224 230.96952331 154.984375 227.70703125 C151.07268 206.85885001 145.31763984 187.10896359 134.9921875 168.50390625 C134.33675269 167.2828133 133.68180394 166.06145933 133.02734375 164.83984375 C128.20893368 155.99793595 122.53723847 148.13254554 116.22265625 140.3125 C114.9921875 138.50390625 114.9921875 138.50390625 115.1171875 136.19140625 C115.9921875 133.50390625 115.9921875 133.50390625 117.5546875 130.12890625 C119.11596256 126.19177783 119.45803155 123.69650267 118.9921875 119.50390625 C117.58459409 116.73948656 117.58459409 116.73948656 115.9921875 114.50390625 C115.9921875 113.84390625 115.9921875 113.18390625 115.9921875 112.50390625 C111.51012131 110.33516454 106.95606653 109.41008723 101.9921875 109.50390625 C98.26901306 110.78968212 98.26901306 110.78968212 94.9921875 112.50390625 C92.65625 113.37890625 92.65625 113.37890625 89.9921875 113.50390625 C87.80948927 112.12376002 86.05002643 110.80078502 84.1171875 109.12890625 C61.04837674 90.42366644 31.98234232 78.47719183 2.77880859 73.83227539 C-1.71607219 73.0949378 -5.36328718 72.44191131 -9.0078125 69.50390625 C-11.08966899 66.23168437 -11.27422756 63.56619855 -11.31420898 59.72900391 C-11.33019638 58.56744781 -11.34618378 57.40589172 -11.36265564 56.20913696 C-11.36801834 54.95805145 -11.37338104 53.70696594 -11.37890625 52.41796875 C-11.38793472 51.12829193 -11.3969632 49.83861511 -11.40626526 48.50985718 C-11.42273483 45.78128561 -11.4304516 43.05283645 -11.43334961 40.32421875 C-11.43873144 36.83811015 -11.47640888 33.35316143 -11.52209377 29.86738014 C-11.55909818 26.53008225 -11.56038189 23.19296475 -11.56640625 19.85546875 C-11.58593857 18.6084317 -11.60547089 17.36139465 -11.62559509 16.0765686 C-11.57531885 6.41578166 -11.57531885 6.41578166 -8.84838867 2.70092773 C-5.53402864 0.13746182 -4.13921643 -0.20447354 0 0 Z " fill="#3A97D3" transform="translate(284.0078125,-0.50390625)"/>
<path d="M0 0 C18.15018454 13.12945476 30.24910965 30.36772232 34.68896484 52.53808594 C35.05870265 56.73703587 35.06579588 60.88818946 35.00146484 65.10058594 C35.0046875 66.15955078 35.00791016 67.21851563 35.01123047 68.30957031 C34.86451697 89.95647953 26.19530592 108.24504544 11.45849609 123.93261719 C-6.5865494 140.90870371 -27.82831649 146.19390499 -51.97509766 145.88183594 C-60.1007509 145.59240929 -66.88584729 143.72634998 -74.31103516 140.53808594 C-75.36033203 140.10367188 -76.40962891 139.66925781 -77.49072266 139.22167969 C-96.88612026 130.38040104 -111.43481989 114.2119164 -119.36035156 94.55566406 C-126.12439174 76.19860793 -126.31789475 54.5180466 -118.31103516 36.53808594 C-118.05402832 35.93367676 -117.79702148 35.32926758 -117.53222656 34.70654297 C-109.4295448 15.8400777 -94.58072952 1.37474455 -75.87353516 -7.00097656 C-50.91938719 -16.87866013 -22.48019157 -15.32533187 0 0 Z " fill="#EFC319" transform="translate(300.31103515625,189.4619140625)"/>
<path d="M0 0 C3.9555106 3.39043766 5.84582979 6.97683215 6.75 12 C5.0128577 23.9669803 -1.72922389 34.72073502 -7.38720703 45.21386719 C-9.90379593 49.91253436 -12.35401681 54.64575227 -14.8125 59.375 C-18.61572684 66.67153401 -22.42420636 73.96526964 -26.25 81.25 C-26.63865234 81.99185547 -27.02730469 82.73371094 -27.42773438 83.49804688 C-30.14607908 88.66712722 -32.95743591 93.7802453 -35.8125 98.875 C-36.4725 98.875 -37.1325 98.875 -37.8125 98.875 C-38.12960937 98.17117187 -38.44671875 97.46734375 -38.7734375 96.7421875 C-49.86036672 73.28200026 -67.28275936 56.36575327 -89.8125 43.875 C-91.48300124 42.88141891 -93.15090097 41.88339796 -94.8125 40.875 C-91.89232426 38.56413384 -88.93110954 36.7906482 -85.62109375 35.08984375 C-84.09512573 34.30178345 -84.09512573 34.30178345 -82.53833008 33.49780273 C-81.45318115 32.94165283 -80.36803223 32.38550293 -79.25 31.8125 C-76.97118607 30.63574213 -74.69254163 29.45865599 -72.4140625 28.28125 C-71.2890332 27.70117188 -70.16400391 27.12109375 -69.00488281 26.5234375 C-64.7032562 24.30222437 -60.41059802 22.06446703 -56.125 19.8125 C-55.38209717 19.42239746 -54.63919434 19.03229492 -53.8737793 18.63037109 C-46.62821335 14.80824374 -39.44685926 10.86820695 -32.2824707 6.89624023 C-27.53729486 4.28312658 -22.83398242 1.90811949 -17.8125 -0.125 C-16.86375 -0.5375 -15.915 -0.95 -14.9375 -1.375 C-9.70682631 -2.63036169 -4.9722956 -1.98891824 0 0 Z " fill="#E54C3C" transform="translate(397.8125,110.125)"/>
<path d="M0 0 C4.43570122 0.81321189 6.97065658 2.51304481 10.5390625 5.1796875 C15.4992621 8.56243846 20.02883306 9.07555494 25.9375 9.0625 C27.06816895 9.06008301 27.06816895 9.06008301 28.22167969 9.05761719 C35.7039439 8.89377199 41.64195073 7.2304494 47.5 2.4375 C49.75 0.6875 49.75 0.6875 52.6875 0.125 C56.97140391 0.91183949 58.863795 2.45769916 61.75 5.6875 C62.52682093 9.18319417 62.47260515 11.25167417 60.84765625 14.48046875 C56.07911731 21.04626857 47.72077125 24.51915633 40.0078125 26.33203125 C24.57395413 28.01606136 9.04934769 28.28354291 -3.62890625 18.25 C-6.65344443 15.33478248 -8.13562936 13.47379814 -8.75 9.25 C-8.25 5.6875 -8.25 5.6875 -6.1875 2.75 C-3.25 0.6875 -3.25 0.6875 0 0 Z " fill="#48505C" transform="translate(229.25,264.3125)"/>
<path d="M0 0 C3 2.0625 3 2.0625 5 5 C5.625 8.5 5.625 8.5 5 12 C2.40783917 15.69186542 0.95850936 16.82883761 -3.5 17.625 C-7 17 -7 17 -9.9375 15 C-12.79117716 10.84919686 -12.7099846 8.9698922 -12 4 C-9.21741025 -0.63764958 -5.03817252 -1.13733003 0 0 Z " fill="#4A515B" transform="translate(286,230)"/>
<path d="M0 0 C3.33443684 0.69329875 4.85232439 1.75974142 6.97265625 4.41015625 C7.76456489 9.39918066 7.77646344 11.24098216 4.91015625 15.41015625 C1.19458399 17.93990758 -0.61559205 18.19796905 -5.02734375 17.41015625 C-7.96484375 15.34765625 -7.96484375 15.34765625 -10.02734375 12.41015625 C-10.68889099 8.29386233 -10.42210037 6.18322131 -8.52734375 2.47265625 C-5.65085262 0.09955107 -3.71435099 -0.27076577 0 0 Z " fill="#4A515B" transform="translate(231.02734375,229.58984375)"/>
</svg>
